<?xml version="1.0" encoding="UTF-8" standalone="no"?>
<!-- Created with Inkscape (http://www.inkscape.org/) -->

<svg
   xmlns:dc="http://purl.org/dc/elements/1.1/"
   xmlns:cc="http://creativecommons.org/ns#"
   xmlns:rdf="http://www.w3.org/1999/02/22-rdf-syntax-ns#"
   xmlns:svg="http://www.w3.org/2000/svg"
   xmlns="http://www.w3.org/2000/svg"
   xmlns:sodipodi="http://sodipodi.sourceforge.net/DTD/sodipodi-0.dtd"
   xmlns:inkscape="http://www.inkscape.org/namespaces/inkscape"
   width="20"
   height="20"
   viewBox="0 0 5.2916665 5.2916668"
   version="1.1"
   id="svg8"
   sodipodi:docname="fail.svg"
   inkscape:version="0.92.5 (2060ec1f9f, 2020-04-08)">
  <defs
     id="defs2" />
  <sodipodi:namedview
     id="base"
     pagecolor="#ffffff"
     bordercolor="#666666"
     borderopacity="1.0"
     inkscape:pageopacity="0.0"
     inkscape:pageshadow="2"
     inkscape:zoom="39.85"
     inkscape:cx="11.982434"
     inkscape:cy="9.9498118"
     inkscape:document-units="mm"
     inkscape:current-layer="layer1"
     showgrid="false"
     units="px"
     inkscape:window-width="1920"
     inkscape:window-height="1016"
     inkscape:window-x="0"
     inkscape:window-y="27"
     inkscape:window-maximized="1" />
  <metadata
     id="metadata5">
    <rdf:RDF>
      <cc:Work
         rdf:about="">
        <dc:format>image/svg+xml</dc:format>
        <dc:type
           rdf:resource="http://purl.org/dc/dcmitype/StillImage" />
        <dc:title />
      </cc:Work>
    </rdf:RDF>
  </metadata>
  <g
     inkscape:label="Layer 1"
     inkscape:groupmode="layer"
     id="layer1"
     transform="translate(0,-291.70832)">
    <circle
       style="fill:#ffffff;fill-opacity:1;stroke-width:0.66145831;stroke-linecap:round;stroke-linejoin:round;stroke-miterlimit:4;stroke-dasharray:none"
       id="path816"
       cx="2.6458333"
       cy="294.35416"
       r="2.5429213" />
    <path
       style="fill:#ca4d39;fill-opacity:1;stroke-width:2.5;stroke-linecap:round;stroke-linejoin:round;stroke-miterlimit:4;stroke-dasharray:none"
       d="M 10 0.27539062 A 9.7246089 9.7246089 0 0 0 0.27539062 10 A 9.7246089 9.7246089 0 0 0 10 19.724609 A 9.7246089 9.7246089 0 0 0 19.724609 10 A 9.7246089 9.7246089 0 0 0 10 0.27539062 z M 6.5332031 5.3105469 A 1.250125 1.250125 0 0 1 7.4335938 5.6933594 L 9.9882812 8.2480469 L 12.541016 5.6933594 A 1.250125 1.250125 0 0 1 13.398438 5.3105469 A 1.250125 1.250125 0 0 1 14.306641 7.4589844 L 11.751953 10.011719 L 14.306641 12.566406 A 1.250125 1.250125 0 1 1 12.541016 14.330078 L 9.9882812 11.777344 L 7.4335938 14.330078 A 1.250125 1.250125 0 1 1 5.6699219 12.566406 L 8.2226562 10.011719 L 5.6699219 7.4589844 A 1.250125 1.250125 0 0 1 6.5332031 5.3105469 z "
       transform="matrix(0.26458333,0,0,0.26458333,0,291.70832)"
       id="path8" />
  </g>
</svg>
