<svg width="32" height="32" version="1.1" viewBox="0 0 6.36 7.35" xmlns="http://www.w3.org/2000/svg">
  <g transform="matrix(.168 0 0 .168 -5.04 -4.73)" fill="#14679e">
    <path d="m50.1 71.9c-2.64 0.0037-5.28-0.448-7.75-1.38 2-1.12 0.634-4.17 1.04-6.1-3.14 0.808-7.17 0.263-8.89-2.83-0.81-2-1.86-4.06-3.84-5.13-2.01-1.87 2.47-1.56 3.15-0.392 1.77 1.28 2.35 3.82 4.59 4.51 1.61 0.57 4.05 0.522 5.15-0.696-0.0582-1.25 1.42-2.87 1.41-3.39-4.1-0.419-8.56-2.03-10.6-5.89-1.66-3.22-2.08-7.08-1.31-10.6 0.433-1.67 1.3-3.22 2.47-4.48-0.897-2.34-0.644-5 0.27-7.3 2.79-0.249 5.31 1.38 7.58 2.83 4.49-1.23 9.31-1.23 13.8 0 2.26-1.44 4.78-3.07 7.57-2.83 0.913 2.3 1.17 4.95 0.272 7.3 2.59 2.67 3.22 6.6 2.67 10.2-0.351 3.88-2.57 7.71-6.25 9.28-1.94 0.901-4.06 1.32-6.17 1.55 2.31 2.09 1.84 5.39 1.89 8.2 0.0228 1.62-0.0475 3.25 0.0386 4.87 1.6 1.52-1.95 1.45-3.09 1.94-1.33 0.252-2.67 0.381-4.02 0.386z" fill="#14679e"/>
  </g>
</svg>
