<?xml version="1.0" encoding="UTF-8"?>
<svg id="a" width="32" height="32" fill="none" version="1.1" viewBox="0 0 32 32" xmlns="http://www.w3.org/2000/svg"><desc>Logo Mastodon Streamline Icon: https://streamlinehq.com</desc><path d="m30.922 10.498c0-6.9369-4.5474-8.9701-4.5474-8.9701-2.2943-1.0519-6.2314-1.4949-10.322-1.5282h-0.10055c-4.0904 0.033306-8.0248 0.47632-10.318 1.5282 0 0-4.548 2.0332-4.548 8.9701 0 1.5888-0.030641 3.4875 0.019321 5.502 0.16521 6.783 1.2444 13.47 7.5205 15.13 2.8932 0.76546 5.378 0.92534 7.3786 0.81542 3.6287-0.19982 5.6626-1.2937 5.6626-1.2937l-0.11931-2.6314s-2.5934 0.8174-5.5053 0.71749c-2.8852-0.09856-5.929-0.3111-6.3953-3.8512-0.045052-0.32894-0.067294-0.66058-0.066654-0.99264 2.1115 0.47141 4.2601 0.75778 6.4213 0.85606 2.195 0.10062 4.2529-0.12855 6.3433-0.37776 4.0091-0.4783 7.4999-2.9471 7.9382-5.2022 0.69419-3.5534 0.63819-8.6717 0.63819-8.6717zm-5.3654 8.9375h-3.3309v-8.1521c0-1.7187-0.72346-2.5908-2.1705-2.5908-1.5988 0-2.4022 1.0346-2.4022 3.0805v4.4634h-3.3083v-4.4634c0-2.0458-0.79943-3.0805-2.4023-3.0805-1.4469 0-2.1704 0.87205-2.1704 2.5908v8.1521h-3.3309v-8.3992c0-1.7165 0.43858-3.0797 1.3157-4.0897 0.90602-1.0093 2.0918-1.5269 3.5647-1.5269 1.7041 0 2.9945 0.6542 3.8472 1.9639l0.83069 1.3889 0.82941-1.3889c0.85336-1.3097 2.1431-1.9639 3.8472-1.9639 1.4729 0 2.6587 0.51762 3.5647 1.5269 0.87887 1.0091 1.3174 2.3723 1.3157 4.0897z" fill="#14679e" stroke-width=".7106"/></svg>
