<?xml version="1.0" encoding="UTF-8" standalone="no"?>
<!-- Created with Inkscape (http://www.inkscape.org/) -->

<svg
   xmlns:dc="http://purl.org/dc/elements/1.1/"
   xmlns:cc="http://creativecommons.org/ns#"
   xmlns:rdf="http://www.w3.org/1999/02/22-rdf-syntax-ns#"
   xmlns:svg="http://www.w3.org/2000/svg"
   xmlns="http://www.w3.org/2000/svg"
   xmlns:sodipodi="http://sodipodi.sourceforge.net/DTD/sodipodi-0.dtd"
   xmlns:inkscape="http://www.inkscape.org/namespaces/inkscape"
   width="20"
   height="20"
   viewBox="0 0 5.2916665 5.2916668"
   version="1.1"
   id="svg8"
   sodipodi:docname="pending.svg"
   inkscape:version="0.92.5 (2060ec1f9f, 2020-04-08)">
  <defs
     id="defs2" />
  <sodipodi:namedview
     id="base"
     pagecolor="#ffffff"
     bordercolor="#666666"
     borderopacity="1.0"
     inkscape:pageopacity="0.0"
     inkscape:pageshadow="2"
     inkscape:zoom="32"
     inkscape:cx="6.536668"
     inkscape:cy="12.2979"
     inkscape:document-units="mm"
     inkscape:current-layer="layer1"
     showgrid="false"
     units="px"
     inkscape:window-width="1920"
     inkscape:window-height="1016"
     inkscape:window-x="0"
     inkscape:window-y="27"
     inkscape:window-maximized="1"
     showguides="false" />
  <metadata
     id="metadata5">
    <rdf:RDF>
      <cc:Work
         rdf:about="">
        <dc:format>image/svg+xml</dc:format>
        <dc:type
           rdf:resource="http://purl.org/dc/dcmitype/StillImage" />
        <dc:title />
      </cc:Work>
    </rdf:RDF>
  </metadata>
  <g
     inkscape:label="Layer 1"
     inkscape:groupmode="layer"
     id="layer1"
     transform="translate(0,-291.70832)">
    <circle
       style="fill:#ffffff;fill-opacity:1;stroke-width:0.66145831;stroke-linecap:round;stroke-linejoin:round;stroke-miterlimit:4;stroke-dasharray:none"
       id="path816-3"
       cx="2.6458333"
       cy="294.35416"
       r="2.5429213" />
    <path
       style="fill:#ffac00;fill-opacity:1;stroke-width:4.71496153;stroke-linecap:round;stroke-linejoin:round;stroke-miterlimit:4;stroke-dasharray:none"
       d="M 10 0.27539062 A 9.7246089 9.7246089 0 0 0 0.27539062 10 A 9.7246089 9.7246089 0 0 0 10 19.724609 A 9.7246089 9.7246089 0 0 0 19.724609 10 A 9.7246089 9.7246089 0 0 0 10 0.27539062 z M 4.734375 8.109375 A 1.890625 1.890625 0 0 1 6.625 10 A 1.890625 1.890625 0 0 1 4.734375 11.890625 A 1.890625 1.890625 0 0 1 2.84375 10 A 1.890625 1.890625 0 0 1 4.734375 8.109375 z M 9.96875 8.109375 A 1.890625 1.890625 0 0 1 11.859375 10 A 1.890625 1.890625 0 0 1 9.96875 11.890625 A 1.890625 1.890625 0 0 1 8.078125 10 A 1.890625 1.890625 0 0 1 9.96875 8.109375 z M 15.203125 8.109375 A 1.890625 1.890625 0 0 1 17.09375 10 A 1.890625 1.890625 0 0 1 15.203125 11.890625 A 1.890625 1.890625 0 0 1 13.3125 10 A 1.890625 1.890625 0 0 1 15.203125 8.109375 z "
       id="path816"
       transform="matrix(0.26458333,0,0,0.26458333,0,291.70832)" />
  </g>
</svg>
