<?xml version="1.0" encoding="UTF-8" standalone="no"?>
<!-- Created with Inkscape (http://www.inkscape.org/) -->

<svg
   xmlns:dc="http://purl.org/dc/elements/1.1/"
   xmlns:cc="http://creativecommons.org/ns#"
   xmlns:rdf="http://www.w3.org/1999/02/22-rdf-syntax-ns#"
   xmlns:svg="http://www.w3.org/2000/svg"
   xmlns="http://www.w3.org/2000/svg"
   xmlns:xlink="http://www.w3.org/1999/xlink"
   xmlns:sodipodi="http://sodipodi.sourceforge.net/DTD/sodipodi-0.dtd"
   xmlns:inkscape="http://www.inkscape.org/namespaces/inkscape"
   width="73"
   height="74.250053"
   viewBox="0 0 73.000001 74.250054"
   id="svg4294"
   version="1.1"
   inkscape:version="0.91 r13725"
   sodipodi:docname="piwheels-logo.svg">
  <defs
     id="defs4296">
    <linearGradient
       inkscape:collect="always"
       xlink:href="#linearGradient4689"
       id="linearGradient14340"
       gradientUnits="userSpaceOnUse"
       gradientTransform="matrix(1.1560565,-0.30976441,0.312755,1.1672175,300.58695,65.178605)"
       x1="26.648937"
       y1="20.603781"
       x2="135.66525"
       y2="114.39767" />
    <linearGradient
       id="linearGradient4689">
      <stop
         id="stop4691"
         offset="0"
         style="stop-color:#5a9fd4;stop-opacity:1;" />
      <stop
         id="stop4693"
         offset="1"
         style="stop-color:#306998;stop-opacity:1;" />
    </linearGradient>
    <linearGradient
       inkscape:collect="always"
       xlink:href="#linearGradient4671"
       id="linearGradient14342"
       gradientUnits="userSpaceOnUse"
       gradientTransform="matrix(1.1560565,-0.30976441,0.312755,1.1672175,300.58695,65.178605)"
       x1="150.96111"
       y1="192.35176"
       x2="112.03144"
       y2="137.27299" />
    <linearGradient
       id="linearGradient4671">
      <stop
         id="stop4673"
         offset="0"
         style="stop-color:#ffd43b;stop-opacity:1;" />
      <stop
         id="stop4675"
         offset="1"
         style="stop-color:#ffe873;stop-opacity:1" />
    </linearGradient>
  </defs>
  <sodipodi:namedview
     id="base"
     pagecolor="#ffffff"
     bordercolor="#666666"
     borderopacity="1.0"
     inkscape:pageopacity="0.0"
     inkscape:pageshadow="2"
     inkscape:zoom="15.839192"
     inkscape:cx="51.497115"
     inkscape:cy="28.861855"
     inkscape:document-units="px"
     inkscape:current-layer="g4289"
     showgrid="false"
     units="px"
     fit-margin-top="0"
     fit-margin-left="0"
     fit-margin-right="0"
     fit-margin-bottom="0"
     inkscape:window-width="1920"
     inkscape:window-height="1056"
     inkscape:window-x="0"
     inkscape:window-y="24"
     inkscape:window-maximized="1" />
  <metadata
     id="metadata4299">
    <rdf:RDF>
      <cc:Work
         rdf:about="">
        <dc:format>image/svg+xml</dc:format>
        <dc:type
           rdf:resource="http://purl.org/dc/dcmitype/StillImage" />
        <dc:title></dc:title>
      </cc:Work>
    </rdf:RDF>
  </metadata>
  <g
     inkscape:label="Layer 1"
     inkscape:groupmode="layer"
     id="layer1"
     transform="translate(-1.4676388,-976.6955)">
    <g
       id="g14392"
       transform="matrix(0.31024122,0,0,0.31024122,-111.81888,962.65467)">
      <path
         inkscape:connector-curvature="0"
         id="path14336"
         d="m 487.29688,45.257812 c -3.73917,2.594732 -3.9031,8.512833 -11.08399,8.824219 -5.56919,0.24149 -6.36164,-4.430205 -8.75,-7.076172 -3.71328,0.645223 -7.39722,1.406052 -11.01953,2.269532 -1.78044,3.433677 -1.57907,8.01946 -7.54492,9.830078 -5.2968,1.607557 -7.23599,-2.648685 -10.17188,-4.636719 -3.43244,1.205964 -6.72522,2.487225 -9.84375,3.826172 -1.51507,3.980693 0.64836,8.917352 -5.19336,12.466797 -5.44898,3.310801 -8.51629,-2.032902 -12.56054,-2.310547 -3.56694,3.062329 -5.75101,6.22789 -6.87891,9.662109 0.44531,2.786131 1.24708,5.644493 -0.87695,8.75 0.22316,2.840931 0.83483,5.883863 1.72265,9.197266 l 5.62696,21.000003 48.27343,-12.9336 a 64.34797,64.34797 0 0 1 21.07422,-3.6289 64.34797,64.34797 0 0 1 50.1543,24.0625 c -0.13218,-1.84087 -0.43659,-3.6954 -0.93164,-5.54297 L 515.23438,66.548828 c -1.13723,-4.244174 -3.21331,-7.912427 -5.95899,-10.958984 -1.40679,0.630104 -3.10156,0.897549 -5.35547,0.421875 -5.08559,-1.07329 -5.07906,-5.257224 -6.39648,-8.376953 -3.21535,-1.255837 -6.66952,-2.061898 -10.22656,-2.376954 z m -58.67383,30.001954 c 4.56127,0.209029 8.70228,3.390111 9.96679,8.109375 1.55081,5.787758 -1.84358,11.713228 -7.53515,13.238281 -5.712,1.530527 -11.5937,-1.909513 -13.14453,-7.697266 -1.55635,-5.808318 1.80557,-11.772207 7.51757,-13.302734 1.06718,-0.285948 2.14271,-0.395894 3.19532,-0.347656 z m 7.75,42.431644 -23.77344,6.36914 -20.67969,5.54101 c -12.59421,3.37461 -22.35707,12.37551 -25.70117,25.54297 2.56459,1.97568 5.51752,3.71687 5.41797,8.82227 -0.095,4.8707 -3.70723,5.86383 -6.48047,7.51562 0.20534,4.38758 0.55285,8.428 1.07227,12.27344 3.24171,1.6725 7.36205,2.0981 8.70507,7.78711 1.1846,5.0179 -2.53304,6.80636 -4.80078,9.29492 1.21032,3.64944 2.66996,7.3346 4.44922,11.21094 3.56406,0.82626 7.67997,0.19387 10.4043,5.38672 2.33164,4.44435 -0.59039,7.08066 -2.20313,9.96093 2.56467,3.88057 5.44437,7.22991 8.63868,9.86914 3.14527,-0.32628 6.40454,-0.94364 9.73828,2.74805 0.98524,1.09106 1.48898,2.14237 1.69531,3.16602 4.27799,1.04309 8.91831,1.00734 13.90234,-0.32813 l 18.94531,-5.07617 -6.74414,-25.17578 c -0.907,-3.38498 -1.24857,-6.84099 -1.08398,-10.25781 a 64.34797,64.34797 0 0 1 -12.15234,-37.4961 64.34797,64.34797 0 0 1 20.65039,-47.15429 z"
         style="fill:url(#linearGradient14340);fill-opacity:1" />
      <path
         sodipodi:nodetypes="ssccccccccscccsccscccscscccscccsccsccscsccccssssss"
         inkscape:connector-curvature="0"
         id="path14338"
         d="m 557.42969,86.162109 c -2.25881,0.01045 -4.63526,0.334549 -7.14063,1.00586 l -20.67968,5.541015 6.55664,24.466796 c 1.51307,5.64687 1.5192,11.40706 0.3125,16.8457 5.18675,9.44755 7.91742,20.04656 7.9414,30.82422 -0.003,19.57241 -8.91415,38.07942 -24.21289,50.28711 l 32.50586,-8.71093 27.55078,-7.38086 c 7.54991,-2.023 12.20026,-5.93345 15.1211,-11.41211 -1.94607,-1.92618 -3.74005,-4.08225 -3.12305,-8.30274 0.69637,-4.76356 4.32679,-5.33874 7.26758,-6.59765 0.36116,-2.82964 0.61335,-5.82786 0.80078,-9.00586 0.0624,-1.04011 0.10033,-2.07231 0.12695,-3.09961 -3.03331,-2.24952 -7.36597,-3.02883 -8.00976,-9.07032 -0.58841,-5.52132 3.98654,-6.6184 6.48437,-9.14648 -0.70783,-3.59346 -1.66929,-7.19909 -2.87695,-10.86133 -3.54593,-1.58988 -8.14366,-1.06854 -10.33594,-6.9375 -1.75639,-4.70189 1.47445,-6.95155 3.43555,-9.60742 -1.18162,-2.3753 -2.45515,-4.79573 -3.83008,-7.2793 -0.67075,-1.21296 -1.36626,-2.37886 -2.07227,-3.52148 -3.57289,-0.30074 -7.47195,0.68243 -10.75,-4.01953 -2.35204,-3.373721 -1.04469,-5.983583 0.18555,-8.500002 -4.42309,-3.50062 -9.44925,-5.544457 -15.25781,-5.517579 z m -121.34571,125.539061 13.99414,52.23242 c 2.19867,8.20551 7.82445,13.49835 15.05079,16.66993 2.33581,-2.52728 4.15738,-5.81511 9.60937,-5.36524 6.34835,0.52382 5.69664,6.63797 8.79492,9.24414 0.53249,0.0245 1.06388,0.0574 1.59766,0.0703 2.1965,0.0531 4.36668,0.0451 6.51953,-0.0176 4.48155,-2.72034 3.13899,-9.54713 10.81836,-10.85743 7.34885,-1.2539 7.31555,7.2952 12.96484,7.22852 1.49382,-0.43452 2.99196,-0.91657 4.49414,-1.43945 5.55461,-3.52453 1.22515,-10.71391 9.00977,-14.19336 5.864,-2.62099 8.23045,3.16851 12.26172,3.88281 2.68551,-1.6792 5.2938,-3.53328 7.69336,-5.57227 1.01742,-4.14431 -1.76546,-8.77876 3.59375,-13.03906 2.61186,-2.07628 4.87282,-1.71012 7.01562,-0.92969 1.75819,-4.55881 2.20817,-9.62021 0.71485,-15.19335 l -5.62696,-21 -55.03711,14.74804 c -10.69535,1.66784 -15.32247,0.98712 -19.48242,1.02539 -16.35234,-0.0306 -32.07967,-6.2856 -43.98633,-17.49414 z m 101.375,21.82031 c 4.56413,0.19607 8.68332,3.34825 9.94336,8.05079 1.55631,5.80832 -1.80559,11.7722 -7.51757,13.30273 -5.6916,1.52505 -11.60578,-1.95339 -13.16211,-7.76172 -1.55082,-5.78773 1.84354,-11.71321 7.53515,-13.23828 1.071,-0.28697 2.14792,-0.39876 3.20117,-0.35352 z"
         style="fill:url(#linearGradient14342);fill-opacity:1" />
    </g>
    <g
       id="g4289"
       transform="matrix(0.19646873,0,0,0.19646873,-5.8132379,971.69364)">
      <g
         style="color:#000000;font-style:normal;font-variant:normal;font-weight:normal;font-stretch:normal;font-size:20px;line-height:125%;font-family:sans-serif;text-indent:0;text-align:start;text-decoration:none;text-decoration-line:none;text-decoration-style:solid;text-decoration-color:#000000;letter-spacing:0px;word-spacing:0px;text-transform:none;direction:ltr;block-progression:tb;writing-mode:lr-tb;baseline-shift:baseline;text-anchor:start;white-space:normal;clip-rule:nonzero;display:inline;overflow:visible;visibility:visible;opacity:1;isolation:auto;mix-blend-mode:normal;color-interpolation:sRGB;color-interpolation-filters:linearRGB;solid-color:#000000;solid-opacity:1;fill:#d5d5d5;fill-opacity:1;fill-rule:nonzero;stroke:none;stroke-width:1px;stroke-linecap:butt;stroke-linejoin:miter;stroke-miterlimit:4;stroke-dasharray:none;stroke-dashoffset:0;stroke-opacity:1;color-rendering:auto;image-rendering:auto;shape-rendering:auto;text-rendering:auto;enable-background:accumulate"
         id="g14368"
         transform="matrix(1.7309541,-0.49072659,0.49072659,1.7309541,-1534.3161,-607.94612)"
         inkscape:transform-center-x="7.3020357"
         inkscape:transform-center-y="-27.943383">
        <path
           d="m 783.16221,676.765 c 1.08692,1.22882 1.61028,2.51834 1.74899,3.74222 0.13895,1.21468 -0.23123,2.28488 -1.07871,3.21248 -0.65427,0.71612 -1.43322,1.13043 -2.37747,1.18069 0,0 3.86872,3.05803 3.86872,3.05803 0,0 -1.76494,2.45281 -1.76494,2.45281 0,0 -12.09724,-8.22425 -12.09724,-8.22425 0,0 2.25305,-3.13116 2.25305,-3.13116 0,0 0.8266,0.52898 0.8266,0.52898 -0.22127,-0.97984 0.49547,-2.48149 1.18927,-3.24086 0.87821,-0.96124 2.47385,-1.89295 3.66132,-1.69184 1.18296,0.19639 2.55406,0.73783 3.66685,1.99591 0,0 0.10352,0.11703 0.10352,0.11703 0,0 4e-5,-4e-5 4e-5,-4e-5 m -2.92115,2.57559 c -1.38418,-1.26463 -2.6614,-1.27741 -3.36986,-0.44419 -0.50604,0.59515 -0.80368,1.41351 -0.52594,1.96497 0,0 3.26351,2.57965 3.26351,2.57965 0.63727,0.13861 1.25602,-0.16632 1.75362,-0.75155 0.67894,-0.79851 0.45236,-1.86701 -0.8618,-3.11176 0,0 -0.25953,-0.23712 -0.25953,-0.23712 0,0 0,0 0,0"
           style="font-style:normal;font-variant:normal;font-weight:900;font-stretch:normal;font-family:Roboto;-inkscape-font-specification:'Roboto Heavy';fill:#d5d5d5;fill-opacity:1"
           id="path14370"
           inkscape:connector-curvature="0" />
        <path
           d="m 790.50427,677.59947 c 0,0 -2.66239,2.00723 -2.66239,2.00723 0,0 -6.71718,-8.15578 -6.71718,-8.15578 0,0 3.5556,-2.66728 3.5556,-2.66728 0,0 5.82397,8.81583 5.82397,8.81583 0,0 0,0 0,0 m -11.26239,-8.12741 c -0.29798,-0.36181 -0.41152,-0.7659 -0.3406,-1.21227 0.0709,-0.44637 0.74351,-1.16164 1.17241,-1.4903 0.4289,-0.32865 1.30727,-0.77262 1.75673,-0.72504 0.44946,0.0476 1.22014,-0.0112 1.4785,0.37985 0.25837,0.3911 -0.0397,1.05711 -0.14174,1.49741 -0.10205,0.4403 -0.71643,1.0615 -1.14533,1.39015 -0.4289,0.32866 -1.20376,0.74277 -1.65545,0.72683 -0.45169,-0.0159 -0.82653,-0.20482 -1.12452,-0.56663 0,0 0,0 0,0"
           style="font-style:normal;font-variant:normal;font-weight:900;font-stretch:normal;font-family:Roboto;-inkscape-font-specification:'Roboto Heavy';fill:#d5d5d5;fill-opacity:1"
           id="path14372"
           inkscape:connector-curvature="0" />
        <path
           d="m 799.28972,668.5696 c 0,0 -0.48679,-6.35504 -0.48679,-6.35504 0,0 3.80909,-0.90864 3.80909,-0.90864 0,0 -0.34926,10.91403 -0.34926,10.91403 0,0 -2.68369,0.81739 -2.68369,0.81739 0,0 -3.94399,-5.22132 -3.94399,-5.22132 0,0 0.66505,6.52182 0.66505,6.52182 0,0 -2.52143,1.25619 -2.52143,1.25619 0,0 -7.66847,-7.74535 -7.66847,-7.74535 0,0 3.39477,-1.94493 3.39477,-1.94493 0,0 4.01283,5.11608 4.01283,5.11608 0,0 -0.86996,-6.61502 -0.86996,-6.61502 0,0 2.8374,-1.12682 2.8374,-1.12682 0,0 3.80445,5.29161 3.80445,5.29161 0,0 0,0 0,0"
           style="font-style:normal;font-variant:normal;font-weight:900;font-stretch:normal;font-family:Roboto;-inkscape-font-specification:'Roboto Heavy';fill:#d5d5d5;fill-opacity:1"
           id="path14374"
           inkscape:connector-curvature="0" />
        <path
           d="m 808.56457,661.65135 c 0.64964,-0.9253 2.30998,-1.46064 3.40359,-1.44732 1.16522,0.0142 2.80882,0.41746 3.3414,1.15469 0.53258,0.73724 0.74896,1.77783 0.64914,3.12177 0,0 -0.55825,6.64615 -0.55825,6.64615 0,0 -3.31925,-0.15929 -3.31925,-0.15929 0,0 0.0803,-6.59095 0.0803,-6.59095 0.007,-0.55983 -0.1021,-0.97132 -0.32677,-1.23448 -0.22458,-0.26967 -0.91506,-0.38492 -1.46176,-0.37209 -0.67686,0.0159 -1.44485,0.28823 -1.69896,0.73366 0,0 0.44691,7.56453 0.44691,7.56453 0,0 -3.30105,0.39605 -3.30105,0.39605 0,0 -2.4636,-14.79553 -2.4636,-14.79553 0,0 4.88005,-0.57362 4.88005,-0.57362 0,0 0.32827,5.55643 0.32827,5.55643 0,0 0,0 0,0"
           style="font-style:normal;font-variant:normal;font-weight:900;font-stretch:normal;font-family:Roboto;-inkscape-font-specification:'Roboto Heavy';fill:#d5d5d5;fill-opacity:1"
           id="path14376"
           inkscape:connector-curvature="0" />
        <path
           d="m 822.22448,672.5908 c -1.56513,-0.42192 -2.78433,-1.19754 -3.6253,-2.30489 -0.83995,-1.11377 -1.27673,-2.44655 -1.09163,-3.98484 0,0 0.0327,-0.27147 0.0327,-0.27147 0.12911,-1.07293 0.71366,-1.95939 1.23421,-2.71456 0.52698,-0.75417 1.55751,-1.23186 2.39721,-1.52646 0.84094,-0.301 2.54696,-0.14259 3.56524,0.13192 1.43313,0.38634 3.49806,1.57062 3.96501,2.74321 0.46932,1.16653 0.64809,2.62659 -10e-4,4.14022 0,0 -0.50436,1.17561 -0.50436,1.17561 0,0 -6.99997,-2.22981 -6.99997,-2.22981 -0.0195,0.60359 0.12602,1.11506 0.43652,1.53445 0.3105,0.41938 0.95721,0.75527 1.56067,0.94126 0.99541,0.3068 1.97696,0.25042 2.76978,-0.24594 0,0 0.88716,2.24043 0.88716,2.24043 -0.58716,0.37977 -1.32242,0.56844 -2.14687,0.64028 -0.81616,0.0678 -1.64306,-0.044 -2.47906,-0.26941 0,0 0,0 0,0 m 1.8327,-8.22396 c -0.93029,-0.25079 -1.93061,0.17362 -2.39605,1.37557 0,0 3.66125,0.99052 3.66125,0.99052 0,0 0.0748,-0.24264 0.0748,-0.24264 0.16774,-0.50009 0.16005,-0.92823 -0.0231,-1.28441 -0.18124,-0.36241 -0.81405,-0.70348 -1.3169,-0.83904 0,0 0,0 0,0"
           style="font-style:normal;font-variant:normal;font-weight:900;font-stretch:normal;font-family:Roboto;-inkscape-font-specification:'Roboto Heavy';fill:#d5d5d5;fill-opacity:1"
           id="path14378"
           inkscape:connector-curvature="0" />
        <path
           d="m 832.17398,677.04835 c -1.3554,-0.88913 -2.32574,-1.91031 -2.77584,-3.22594 -0.44711,-1.3214 -0.58042,-2.74036 0.0304,-4.16424 0,0 0.1078,-0.25128 0.1078,-0.25128 0.42608,-0.99314 1.22874,-1.67568 1.94047,-2.25422 0.71762,-0.57575 1.83012,-0.74149 2.71873,-0.78908 0.89159,-0.0534 2.46089,0.5834 3.36237,1.13074 1.26876,0.77032 2.88617,2.49755 3.01047,3.75356 0.12824,1.25083 -0.11487,2.71098 -1.15701,3.9864 0,0 -0.80942,0.9906 -0.80942,0.9906 0,0 -6.05999,-4.1261 -6.05999,-4.1261 -0.18733,0.57411 -0.0792,1.1595 0.0846,1.65496 0.16376,0.49545 0.59981,0.9485 1.12782,1.29487 0.87095,0.57133 1.91549,0.84892 2.82324,0.62329 0,0 0.1677,2.37767 0.1677,2.37767 -0.67596,0.17909 -1.46711,0.11818 -2.27916,-0.0414 -0.80296,-0.16112 -1.56822,-0.48493 -2.2922,-0.95985 0,0 0,0 0,0 m 4.04962,-7.39391 c -0.82358,-0.50004 -1.89182,-0.37729 -2.6745,0.64679 0,0 3.41146,2.11554 3.41146,2.11554 0,0 0.14658,-0.20731 0.14658,-0.20731 0.31504,-0.42306 0.21384,-0.98366 0.13691,-1.37671 -0.0734,-0.3985 -0.57528,-0.90803 -1.02045,-1.17831 0,0 0,0 0,0"
           style="font-style:normal;font-variant:normal;font-weight:900;font-stretch:normal;font-family:Roboto;-inkscape-font-specification:'Roboto Heavy';fill:#d5d5d5;fill-opacity:1"
           id="path14380"
           inkscape:connector-curvature="0" />
        <path
           d="m 839.46728,682.81107 c 0,0 -2.39848,-2.31567 -2.39848,-2.31567 0,0 9.88897,-11.27766 9.88897,-11.27766 0,0 3.52098,3.4088 3.52098,3.4088 0,0 -11.01147,10.18453 -11.01147,10.18453 0,0 0,0 0,0"
           style="font-style:normal;font-variant:normal;font-weight:900;font-stretch:normal;font-family:Roboto;-inkscape-font-specification:'Roboto Heavy';fill:#d5d5d5;fill-opacity:1"
           id="path14382"
           inkscape:connector-curvature="0" />
        <path
           d="m 846.61991,687.23041 c 0.23551,-0.15132 0.34529,-0.39595 0.32933,-0.73391 -0.0159,-0.33796 -0.25632,-1.02585 -0.57396,-1.80378 -0.31764,-0.77792 -0.73989,-1.72865 -0.84567,-2.32832 -0.10071,-0.60375 -0.20343,-1.30658 -0.0657,-1.7949 0.13771,-0.48833 0.41366,-0.91102 0.82783,-1.26809 0.73467,-0.63337 1.81944,-0.60019 2.80809,-0.36709 0.99373,0.22904 2.33771,1.49136 3.07596,2.55594 0.79389,1.14482 1.68943,3.27137 1.54135,4.31687 -0.14808,1.04549 -0.54283,2.09497 -1.4623,2.55602 0,0 -2.02886,-3.57736 -2.02886,-3.57736 0.712,-0.45747 0.67106,-1.33529 0.16281,-2.0682 -0.19661,-0.28353 -0.44198,-0.46592 -0.73599,-0.54723 -0.28869,-0.085 -0.72355,-0.27669 -0.95306,-0.10529 -0.23472,0.1753 -0.18744,0.64266 -0.17399,0.98192 0.0134,0.33926 0.29343,0.99449 0.53267,1.58363 0.24276,0.59461 0.53932,1.33453 0.64198,1.82626 0.34069,1.64505 0.003,3.16402 -1.26023,3.79725 -0.86127,0.43187 -1.78378,0.34826 -2.72725,-0.11528 -0.94034,-0.45785 -1.76525,-1.28696 -2.54059,-2.40504 -0.51566,-0.7436 -0.85376,-1.51804 -1.04419,-2.27515 -0.19045,-0.7571 -0.2222,-1.50372 -0.0575,-2.17007 0.16473,-0.66633 0.48131,-1.20142 0.94973,-1.60525 0,0 2.09296,2.59696 2.09296,2.59696 -0.38342,0.30257 -0.57291,0.64722 -0.56849,1.03394 0.01,0.38282 0.18877,0.84965 0.467,1.25087 0.25598,0.36913 0.55063,0.67539 0.82359,0.7631 0.27652,0.0932 0.53801,0.0606 0.78448,-0.0978 0,0 0,0 0,0"
           style="font-style:normal;font-variant:normal;font-weight:900;font-stretch:normal;font-family:Roboto;-inkscape-font-specification:'Roboto Heavy';fill:#d5d5d5;fill-opacity:1"
           id="path14384"
           inkscape:connector-curvature="0" />
      </g>
      <path
         transform="matrix(-0.82796062,-0.56078625,0.56078625,-0.82796062,0,0)"
         id="path14386"
         style="color:#000000;clip-rule:nonzero;display:inline;overflow:visible;visibility:visible;opacity:0.75;isolation:auto;mix-blend-mode:normal;color-interpolation:sRGB;color-interpolation-filters:linearRGB;solid-color:#000000;solid-opacity:1;fill:none;fill-opacity:1;fill-rule:nonzero;stroke:#d5d5d5;stroke-width:3.27250719;stroke-linecap:round;stroke-linejoin:round;stroke-miterlimit:4;stroke-dasharray:none;stroke-dashoffset:0;stroke-opacity:1;color-rendering:auto;image-rendering:auto;shape-rendering:auto;text-rendering:auto;enable-background:accumulate"
         sodipodi:type="arc"
         sodipodi:cx="-303.74271"
         sodipodi:cy="-55.812748"
         sodipodi:rx="67.631813"
         sodipodi:ry="67.631813"
         sodipodi:start="1.925935"
         sodipodi:end="4.1887902"
         sodipodi:open="true"
         d="m -327.25967,7.5987235 a 67.631813,67.631813 0 0 1 -43.87508,-57.7215735 67.631813,67.631813 0 0 1 33.57614,-64.26077" />
      <path
         d="m -328.76759,14.62938 a 74.755188,74.755188 0 0 1 -46.35662,-92.646164 74.755188,74.755188 0 0 1 90.72957,-50.003926"
         sodipodi:open="true"
         sodipodi:end="4.9741884"
         sodipodi:start="1.9121445"
         sodipodi:ry="74.755188"
         sodipodi:rx="74.755188"
         sodipodi:cy="-55.812748"
         sodipodi:cx="-303.74271"
         sodipodi:type="arc"
         style="color:#000000;clip-rule:nonzero;display:inline;overflow:visible;visibility:visible;opacity:0.65;isolation:auto;mix-blend-mode:normal;color-interpolation:sRGB;color-interpolation-filters:linearRGB;solid-color:#000000;solid-opacity:1;fill:none;fill-opacity:1;fill-rule:nonzero;stroke:#d5d5d5;stroke-width:3.27250719;stroke-linecap:round;stroke-linejoin:round;stroke-miterlimit:4;stroke-dasharray:none;stroke-dashoffset:0;stroke-opacity:1;color-rendering:auto;image-rendering:auto;shape-rendering:auto;text-rendering:auto;enable-background:accumulate"
         id="path14388"
         transform="matrix(-0.82796062,-0.56078625,0.56078625,-0.82796062,0,0)" />
      <path
         transform="matrix(-0.82796062,-0.56078625,0.56078625,-0.82796062,0,0)"
         id="path14390"
         style="color:#000000;clip-rule:nonzero;display:inline;overflow:visible;visibility:visible;opacity:0.55;isolation:auto;mix-blend-mode:normal;color-interpolation:sRGB;color-interpolation-filters:linearRGB;solid-color:#000000;solid-opacity:1;fill:none;fill-opacity:1;fill-rule:nonzero;stroke:#d5d5d5;stroke-width:3.27250719;stroke-linecap:round;stroke-linejoin:round;stroke-miterlimit:4;stroke-dasharray:none;stroke-dashoffset:0;stroke-opacity:1;color-rendering:auto;image-rendering:auto;shape-rendering:auto;text-rendering:auto;enable-background:accumulate"
         sodipodi:type="arc"
         sodipodi:cx="-303.74271"
         sodipodi:cy="-55.812748"
         sodipodi:rx="82.383026"
         sodipodi:ry="82.383026"
         sodipodi:start="1.8978145"
         sodipodi:end="5.4977871"
         sodipodi:open="true"
         d="m -330.20584,22.204338 a 82.383026,82.383026 0 0 1 -55.84093,-74.410909 82.383026,82.383026 0 0 1 49.11876,-79.009749 82.383026,82.383026 0 0 1 91.4389,17.14997" />
    </g>
  </g>
</svg>
