<?xml version="1.0" encoding="UTF-8" standalone="no"?>
<svg xmlns:rdf="http://www.w3.org/1999/02/22-rdf-syntax-ns#" xmlns="http://www.w3.org/2000/svg" height="74.25" width="73" version="1.1" xmlns:cc="http://creativecommons.org/ns#" xmlns:xlink="http://www.w3.org/1999/xlink" viewBox="0 0 73.000001 74.250054" xmlns:dc="http://purl.org/dc/elements/1.1/">
<defs>
<linearGradient id="b" y2="114.4" gradientUnits="userSpaceOnUse" x2="135.67" gradientTransform="matrix(1.1561 -.30976 .31276 1.1672 300.59 65.179)" y1="20.604" x1="26.649">
<stop stop-color="#5a9fd4" offset="0"/>
<stop stop-color="#306998" offset="1"/>
</linearGradient>
<linearGradient id="a" y2="137.27" gradientUnits="userSpaceOnUse" x2="112.03" gradientTransform="matrix(1.1561 -.30976 .31276 1.1672 300.59 65.179)" y1="192.35" x1="150.96">
<stop stop-color="#ffd43b" offset="0"/>
<stop stop-color="#ffe873" offset="1"/>
</linearGradient>
</defs>
<g transform="translate(-1.4676 -976.7)">
<g transform="matrix(.31024 0 0 .31024 -111.82 962.65)">
<path d="m487.3 45.258c-3.7392 2.5947-3.9031 8.5128-11.084 8.8242-5.5692 0.24149-6.3616-4.4302-8.75-7.0762-3.7133 0.64522-7.3972 1.4061-11.02 2.2695-1.7804 3.4337-1.5791 8.0195-7.5449 9.8301-5.2968 1.6076-7.236-2.6487-10.172-4.6367-3.4324 1.206-6.7252 2.4872-9.8438 3.8262-1.5151 3.9807 0.64836 8.9174-5.1934 12.467-5.449 3.3108-8.5163-2.0329-12.561-2.3105-3.5669 3.0623-5.751 6.2279-6.8789 9.6621 0.44531 2.7861 1.2471 5.6445-0.87695 8.75 0.22316 2.8409 0.83483 5.8839 1.7226 9.1973l5.627 21 48.273-12.934a64.348 64.348 0 0 1 21.074 -3.6289 64.348 64.348 0 0 1 50.154 24.062c-0.13218-1.8409-0.43659-3.6954-0.93164-5.543l-14.07-52.471c-1.1372-4.2442-3.2133-7.9124-5.959-10.959-1.4068 0.6301-3.1016 0.89755-5.3555 0.42188-5.0856-1.0733-5.0791-5.2572-6.3965-8.377-3.2154-1.2558-6.6695-2.0619-10.227-2.377zm-58.674 30.002c4.5613 0.20903 8.7023 3.3901 9.9668 8.1094 1.5508 5.7878-1.8436 11.713-7.5352 13.238-5.712 1.5305-11.594-1.9095-13.145-7.6973-1.5564-5.8083 1.8056-11.772 7.5176-13.303 1.0672-0.28595 2.1427-0.39589 3.1953-0.34766zm7.75 42.432-23.773 6.3691-20.68 5.541c-12.594 3.3746-22.357 12.376-25.701 25.543 2.5646 1.9757 5.5175 3.7169 5.418 8.8223-0.095 4.8707-3.7072 5.8638-6.4805 7.5156 0.20534 4.3876 0.55285 8.428 1.0723 12.273 3.2417 1.6725 7.362 2.0981 8.7051 7.7871 1.1846 5.0179-2.533 6.8064-4.8008 9.2949 1.2103 3.6494 2.67 7.3346 4.4492 11.211 3.5641 0.82626 7.68 0.19387 10.404 5.3867 2.3316 4.4444-0.59039 7.0807-2.2031 9.9609 2.5647 3.8806 5.4444 7.2299 8.6387 9.8691 3.1453-0.32628 6.4045-0.94364 9.7383 2.748 0.98524 1.0911 1.489 2.1424 1.6953 3.166 4.278 1.0431 8.9183 1.0073 13.902-0.32813l18.945-5.0762-6.7441-25.176c-0.907-3.385-1.2486-6.841-1.084-10.258a64.348 64.348 0 0 1 -12.152 -37.496 64.348 64.348 0 0 1 20.65 -47.154z" fill="url(#b)"/>
<path d="m557.43 86.162c-2.2588 0.01045-4.6353 0.33455-7.1406 1.0059l-20.68 5.541 6.5566 24.467c1.5131 5.6469 1.5192 11.407 0.3125 16.846 5.1868 9.4476 7.9174 20.047 7.9414 30.824-0.003 19.572-8.9142 38.079-24.213 50.287l32.506-8.7109 27.551-7.3809c7.5499-2.023 12.2-5.9334 15.121-11.412-1.9461-1.9262-3.74-4.0822-3.123-8.3027 0.69637-4.7636 4.3268-5.3387 7.2676-6.5976 0.36116-2.8296 0.61335-5.8279 0.80078-9.0059 0.0624-1.0401 0.10033-2.0723 0.12695-3.0996-3.0333-2.2495-7.366-3.0288-8.0098-9.0703-0.58841-5.5213 3.9865-6.6184 6.4844-9.1465-0.70783-3.5935-1.6693-7.1991-2.877-10.861-3.5459-1.5899-8.1437-1.0685-10.336-6.9375-1.7564-4.7019 1.4744-6.9516 3.4356-9.6074-1.1816-2.3753-2.4552-4.7957-3.8301-7.2793-0.67075-1.213-1.3663-2.3789-2.0723-3.5215-3.5729-0.30074-7.472 0.68243-10.75-4.0195-2.352-3.3737-1.0447-5.9836 0.18555-8.5-4.4231-3.5006-9.4492-5.5445-15.258-5.5176zm-121.35 125.54 13.994 52.232c2.1987 8.2055 7.8244 13.498 15.051 16.67 2.3358-2.5273 4.1574-5.8151 9.6094-5.3652 6.3484 0.52382 5.6966 6.638 8.7949 9.2441 0.53249 0.0245 1.0639 0.0574 1.5977 0.0703 2.1965 0.0531 4.3667 0.0451 6.5195-0.0176 4.4816-2.7203 3.139-9.5471 10.818-10.857 7.3488-1.2539 7.3156 7.2952 12.965 7.2285 1.4938-0.43452 2.992-0.91657 4.4941-1.4394 5.5546-3.5245 1.2252-10.714 9.0098-14.193 5.864-2.621 8.2304 3.1685 12.262 3.8828 2.6855-1.6792 5.2938-3.5333 7.6934-5.5723 1.0174-4.1443-1.7655-8.7788 3.5938-13.039 2.6119-2.0763 4.8728-1.7101 7.0156-0.92969 1.7582-4.5588 2.2082-9.6202 0.71485-15.193l-5.627-21-55.037 14.748c-10.695 1.6678-15.322 0.98712-19.482 1.0254-16.352-0.0306-32.08-6.2856-43.986-17.494zm101.38 21.82c4.5641 0.19607 8.6833 3.3482 9.9434 8.0508 1.5563 5.8083-1.8056 11.772-7.5176 13.303-5.6916 1.525-11.606-1.9534-13.162-7.7617-1.5508-5.7877 1.8435-11.713 7.5352-13.238 1.071-0.28697 2.1479-0.39876 3.2012-0.35352z" fill="url(#a)"/>
</g>
<g transform="matrix(.19647 0 0 .19647 -5.8132 971.69)">
<g style="color-rendering:auto;text-decoration-color:#000000;color:#000000;isolation:auto;mix-blend-mode:normal;shape-rendering:auto;solid-color:#000000;block-progression:tb;text-decoration-line:none;text-decoration-style:solid;image-rendering:auto;white-space:normal;text-indent:0;text-transform:none" transform="matrix(1.731 -.49073 .49073 1.731 -1534.3 -607.95)" fill="#d5d5d5">
<path d="m783.16 676.76c1.0869 1.2288 1.6103 2.5183 1.749 3.7422 0.13895 1.2147-0.23123 2.2849-1.0787 3.2125-0.65427 0.71612-1.4332 1.1304-2.3775 1.1807l3.8687 3.058s-1.7649 2.4528-1.7649 2.4528-12.097-8.2242-12.097-8.2242l2.253-3.1312 0.8266 0.52898c-0.22127-0.97984 0.49547-2.4815 1.1893-3.2409 0.87821-0.96124 2.4738-1.893 3.6613-1.6918 1.183 0.19639 2.5541 0.73783 3.6668 1.9959l0.10352 0.11703 0.00004-0.00004m-2.9212 2.5756c-1.3842-1.2646-2.6614-1.2774-3.3699-0.44419-0.50604 0.59515-0.80368 1.4135-0.52594 1.965l3.2635 2.5796c0.63727 0.13861 1.256-0.16632 1.7536-0.75155 0.67894-0.79851 0.45236-1.867-0.8618-3.1118l-0.25953-0.23712"/>
<path d="m790.5 677.6l-2.6624 2.0072s-6.7172-8.1558-6.7172-8.1558l3.5556-2.6673 5.824 8.8158m-11.262-8.1274c-0.29798-0.36181-0.41152-0.7659-0.3406-1.2123 0.0709-0.44637 0.74351-1.1616 1.1724-1.4903 0.4289-0.32865 1.3073-0.77262 1.7567-0.72504 0.44946 0.0476 1.2201-0.0112 1.4785 0.37985 0.25837 0.3911-0.0397 1.0571-0.14174 1.4974-0.10205 0.4403-0.71643 1.0615-1.1453 1.3902-0.4289 0.32866-1.2038 0.74277-1.6554 0.72683-0.45169-0.0159-0.82653-0.20482-1.1245-0.56663"/>
<path d="m799.29 668.57l-0.48679-6.355s3.8091-0.90864 3.8091-0.90864l-0.34926 10.914s-2.6837 0.81739-2.6837 0.81739-3.944-5.2213-3.944-5.2213l0.66505 6.5218-2.5214 1.2562s-7.6685-7.7454-7.6685-7.7454l3.3948-1.9449s4.0128 5.1161 4.0128 5.1161l-0.86996-6.615 2.8374-1.1268s3.8044 5.2916 3.8044 5.2916"/>
<path d="m808.56 661.65c0.64964-0.9253 2.31-1.4606 3.4036-1.4473 1.1652 0.0142 2.8088 0.41746 3.3414 1.1547 0.53258 0.73724 0.74896 1.7778 0.64914 3.1218 0 0-0.55825 6.6462-0.55825 6.6462l-3.3192-0.15929 0.0803-6.591c0.007-0.55983-0.1021-0.97132-0.32677-1.2345-0.22458-0.26967-0.91506-0.38492-1.4618-0.37209-0.67686 0.0159-1.4448 0.28823-1.699 0.73366 0 0 0.44691 7.5645 0.44691 7.5645l-3.301 0.39605-2.4636-14.796s4.88-0.57362 4.88-0.57362 0.32827 5.5564 0.32827 5.5564"/>
<path d="m822.22 672.59c-1.5651-0.42192-2.7843-1.1975-3.6253-2.3049-0.83995-1.1138-1.2767-2.4466-1.0916-3.9848l0.0327-0.27147c0.12911-1.0729 0.71366-1.9594 1.2342-2.7146 0.52698-0.75417 1.5575-1.2319 2.3972-1.5265 0.84094-0.301 2.547-0.14259 3.5652 0.13192 1.4331 0.38634 3.4981 1.5706 3.965 2.7432 0.46932 1.1665 0.64809 2.6266-0.001 4.1402l-0.50436 1.1756-7-2.2298c-0.0195 0.60359 0.12602 1.1151 0.43652 1.5344 0.3105 0.41938 0.95721 0.75527 1.5607 0.94126 0.99541 0.3068 1.977 0.25042 2.7698-0.24594l0.88716 2.2404c-0.58716 0.37977-1.3224 0.56844-2.1469 0.64028-0.81616 0.0678-1.6431-0.044-2.4791-0.26941m1.8327-8.224c-0.93029-0.25079-1.9306 0.17362-2.396 1.3756 0 0 3.6612 0.99052 3.6612 0.99052l0.0748-0.24264c0.16774-0.50009 0.16005-0.92823-0.0231-1.2844-0.18124-0.36241-0.81405-0.70348-1.3169-0.83904"/>
<path d="m832.17 677.05c-1.3554-0.88913-2.3257-1.9103-2.7758-3.2259-0.44711-1.3214-0.58042-2.7404 0.0304-4.1642l0.1078-0.25128c0.42608-0.99314 1.2287-1.6757 1.9405-2.2542 0.71762-0.57575 1.8301-0.74149 2.7187-0.78908 0.89159-0.0534 2.4609 0.5834 3.3624 1.1307 1.2688 0.77032 2.8862 2.4976 3.0105 3.7536 0.12824 1.2508-0.11487 2.711-1.157 3.9864 0 0-0.80942 0.9906-0.80942 0.9906l-6.06-4.1261c-0.18733 0.57411-0.0792 1.1595 0.0846 1.655 0.16376 0.49545 0.59981 0.9485 1.1278 1.2949 0.87095 0.57133 1.9155 0.84892 2.8232 0.62329l0.1677 2.3777c-0.67596 0.17909-1.4671 0.11818-2.2792-0.0414-0.80296-0.16112-1.5682-0.48493-2.2922-0.95985m4.0496-7.3939c-0.82358-0.50004-1.8918-0.37729-2.6745 0.64679l3.4115 2.1155 0.14658-0.20731c0.31504-0.42306 0.21384-0.98366 0.13691-1.3767-0.0734-0.3985-0.57528-0.90803-1.0204-1.1783"/>
<path d="m839.47 682.81l-2.3985-2.3157 9.889-11.278 3.521 3.4088-11.011 10.185"/>
<path d="m846.62 687.23c0.23551-0.15132 0.34529-0.39595 0.32933-0.73391-0.0159-0.33796-0.25632-1.0258-0.57396-1.8038-0.31764-0.77792-0.73989-1.7286-0.84567-2.3283-0.10071-0.60375-0.20343-1.3066-0.0657-1.7949 0.13771-0.48833 0.41366-0.91102 0.82783-1.2681 0.73467-0.63337 1.8194-0.60019 2.8081-0.36709 0.99373 0.22904 2.3377 1.4914 3.076 2.5559 0.79389 1.1448 1.6894 3.2714 1.5414 4.3169-0.14808 1.0455-0.54283 2.095-1.4623 2.556l-2.0289-3.5774c0.712-0.45747 0.67106-1.3353 0.16281-2.0682-0.19661-0.28353-0.44198-0.46592-0.73599-0.54723-0.28869-0.085-0.72355-0.27669-0.95306-0.10529-0.23472 0.1753-0.18744 0.64266-0.17399 0.98192 0.0134 0.33926 0.29343 0.99449 0.53267 1.5836 0.24276 0.59461 0.53932 1.3345 0.64198 1.8263 0.34069 1.645 0.003 3.164-1.2602 3.7972-0.86127 0.43187-1.7838 0.34826-2.7272-0.11528-0.94034-0.45785-1.7652-1.287-2.5406-2.405-0.51566-0.7436-0.85376-1.518-1.0442-2.2752-0.19045-0.7571-0.2222-1.5037-0.0575-2.1701 0.16473-0.66633 0.48131-1.2014 0.94973-1.6052l2.093 2.597c-0.38342 0.30257-0.57291 0.64722-0.56849 1.0339 0.01 0.38282 0.18877 0.84965 0.467 1.2509 0.25598 0.36913 0.55063 0.67539 0.82359 0.7631 0.27652 0.0932 0.53801 0.0606 0.78448-0.0978"/>
</g>
<g stroke-linejoin="round" stroke="#d5d5d5" stroke-linecap="round" stroke-width="3.2725" fill="none">
<path opacity=".75" style="color-rendering:auto;color:#000000;isolation:auto;mix-blend-mode:normal;shape-rendering:auto;solid-color:#000000;image-rendering:auto" transform="rotate(214.11)" d="m-327.26 7.5987a67.632 67.632 0 0 1 -43.875 -57.722 67.632 67.632 0 0 1 33.576 -64.261"/>
<path opacity=".65" style="color-rendering:auto;color:#000000;isolation:auto;mix-blend-mode:normal;shape-rendering:auto;solid-color:#000000;image-rendering:auto" d="m-328.77 14.629a74.755 74.755 0 0 1 -46.357 -92.646 74.755 74.755 0 0 1 90.73 -50.004" transform="rotate(214.11)"/>
<path opacity=".55" style="color-rendering:auto;color:#000000;isolation:auto;mix-blend-mode:normal;shape-rendering:auto;solid-color:#000000;image-rendering:auto" transform="rotate(214.11)" d="m-330.21 22.204a82.383 82.383 0 0 1 -55.841 -74.411 82.383 82.383 0 0 1 49.119 -79.01 82.383 82.383 0 0 1 91.439 17.15"/>
</g>
</g>
</g>
</svg>
