<?xml version="1.0" encoding="UTF-8" standalone="no"?>
<!-- Created with Inkscape (http://www.inkscape.org/) -->

<svg
   xmlns:dc="http://purl.org/dc/elements/1.1/"
   xmlns:cc="http://creativecommons.org/ns#"
   xmlns:rdf="http://www.w3.org/1999/02/22-rdf-syntax-ns#"
   xmlns:svg="http://www.w3.org/2000/svg"
   xmlns="http://www.w3.org/2000/svg"
   xmlns:sodipodi="http://sodipodi.sourceforge.net/DTD/sodipodi-0.dtd"
   xmlns:inkscape="http://www.inkscape.org/namespaces/inkscape"
   id="svg2"
   version="1.1"
   inkscape:version="0.91 r13725"
   xml:space="preserve"
   width="615.45001"
   height="774.15002"
   viewBox="0 0 615.45001 774.15002"
   sodipodi:docname="raspberry-pi-logo.svg"><metadata
     id="metadata8"><rdf:RDF><cc:Work
         rdf:about=""><dc:format>image/svg+xml</dc:format><dc:type
           rdf:resource="http://purl.org/dc/dcmitype/StillImage" /><dc:title></dc:title></cc:Work></rdf:RDF></metadata><defs
     id="defs6" /><sodipodi:namedview
     pagecolor="#ffffff"
     bordercolor="#666666"
     borderopacity="1"
     objecttolerance="10"
     gridtolerance="10"
     guidetolerance="10"
     inkscape:pageopacity="0"
     inkscape:pageshadow="2"
     inkscape:window-width="896"
     inkscape:window-height="480"
     id="namedview4"
     showgrid="false"
     inkscape:zoom="0.30485047"
     inkscape:cx="307.72501"
     inkscape:cy="387.07501"
     inkscape:window-x="0"
     inkscape:window-y="24"
     inkscape:window-maximized="0"
     inkscape:current-layer="g10" /><g
     id="g10"
     inkscape:groupmode="layer"
     inkscape:label="ink_ext_XXXXXX"
     transform="matrix(1.25,0,0,-1.25,0,774.15)"><g
       id="g12"
       transform="scale(0.1,0.1)"><path
         d="m 1332.8,6193.06 c -31.79,-0.96 -66.04,-12.52 -104.87,-42.73 -95.16,36.15 -187.4,48.71 -269.879,-24.86 -127.371,16.28 -168.774,-17.31 -200.141,-56.51 -27.957,0.57 -209.246,28.31 -292.375,-93.84 -208.914,24.34 -274.957,-121.05 -200.14,-256.61 -42.661,-65.07 -86.86,-129.35 12.902,-253.37 -35.281,-69.08 -13.41,-144.02 69.746,-234.72 -21.949,-97.11 21.199,-165.62 98.551,-219.02 -14.477,-132.88 123.722,-210.15 164.988,-237.69 15.836,-77.43 48.871,-150.49 206.723,-190.89 26.023,-115.41 120.89,-135.33 212.755,-159.55 C 727.43,4249.44 467.074,4020.71 468.836,3459.5 L 424.34,3381.36 C 76.2109,3172.81 -237.016,2502.56 252.781,1957.78 284.777,1787.24 338.43,1664.75 386.207,1529.19 457.668,982.91 924.004,727.121 1047.01,696.859 1227.25,561.641 1419.2,433.332 1678.97,343.441 1923.85,94.6914 2189.13,-0.121094 2455.89,0.0195313 c 3.91,0 7.89,-0.0507813 11.8,0 C 2734.44,-0.128906 2999.74,94.6719 3244.6,343.441 c 259.77,89.891 451.74,218.2 631.98,353.418 123,30.262 589.33,286.051 660.8,832.331 47.75,135.56 101.42,258.05 133.41,428.59 489.81,544.82 176.6,1215.12 -171.57,1423.67 l -44.54,78.13 c 1.76,561.16 -258.61,789.89 -562.23,963.77 91.87,24.22 186.73,44.14 212.75,159.53 157.86,40.42 190.89,113.49 206.72,190.91 41.28,27.52 179.47,104.8 165,237.69 77.35,53.4 120.49,121.92 98.56,219.02 83.15,90.7 105.03,165.63 69.73,234.71 99.8,123.99 55.52,188.26 12.9,253.33 74.76,135.56 8.8,280.94 -200.2,256.59 -83.11,122.15 -264.33,94.41 -292.36,93.85 -31.37,39.2 -72.74,72.79 -200.12,56.51 -82.48,73.57 -174.73,61.01 -269.87,24.87 -112.99,87.81 -187.73,17.42 -273.12,-9.18 -136.78,44.02 -168.06,-16.29 -235.26,-40.84 -149.17,31.05 -194.51,-36.55 -266.02,-107.9 l -83.18,1.62 c -224.99,-130.58 -336.75,-396.52 -376.37,-533.23 -39.64,136.74 -151.17,402.67 -376.1,533.23 l -83.17,-1.62 c -71.61,71.35 -116.96,138.95 -266.11,107.9 -67.2,24.55 -98.38,84.86 -235.26,40.84 -56.04,17.46 -107.6,53.77 -168.28,51.92 l 0.11,-0.04"
         style="fill:#040606;fill-opacity:1;fill-rule:nonzero;stroke:none"
         id="path14"
         inkscape:connector-curvature="0" /><path
         d="M 884.848,5618.51 C 1481.77,5315.4 1828.78,5070.18 2018.89,4861.35 1921.54,4477 1413.65,4459.45 1227.94,4470.24 c 38.02,17.43 69.75,38.32 81,70.4 -46.6,32.6 -211.84,3.44 -327.182,67.26 44.302,9.06 65.042,17.85 85.752,50.07 -108.975,34.23 -226.369,63.75 -295.408,120.46 37.265,-0.47 72.039,-8.22 120.711,25.03 -97.625,51.82 -201.786,92.87 -282.708,172.08 50.458,1.2 104.875,0.5 120.696,18.77 -89.34,54.51 -164.727,115.15 -227.129,181.47 70.644,-8.39 100.461,-1.17 117.547,10.95 -67.535,68.12 -153.024,125.66 -193.778,209.63 52.45,-17.81 100.422,-24.63 135.02,1.56 -22.961,51.01 -121.285,81.08 -177.902,200.25 55.218,-5.28 113.769,-11.86 125.492,0 -25.641,102.83 -69.606,160.64 -112.735,220.54 118.157,1.72 297.172,-0.46 289.071,9.39 l -73.051,73.53 c 115.402,30.6 233.496,-4.92 319.234,-31.29 38.496,29.91 -0.679,67.75 -47.648,106.38 98.09,-12.91 186.718,-35.12 266.818,-65.72 42.81,38.08 -27.78,76.15 -61.94,114.21 151.53,-28.32 215.74,-68.1 279.53,-107.94 46.31,43.7 2.66,80.84 -28.58,118.88 114.26,-41.67 173.11,-95.49 235.07,-148.61 21.01,27.92 53.37,48.39 14.29,115.77 81.12,-46.06 142.21,-100.33 187.42,-161.13 50.19,31.48 29.91,74.52 30.18,114.2 84.3,-67.56 137.81,-139.44 203.31,-209.63 13.18,9.45 24.73,41.55 34.93,92.3 201.12,-192.2 485.32,-676.29 73.06,-868.24 -350.87,285.03 -769.91,492.21 -1234.283,647.62 l 0.121,0.08"
         style="fill:#79cc4a;fill-opacity:1;fill-rule:nonzero;stroke:none"
         id="path16"
         inkscape:connector-curvature="0" /><path
         d="m 4052.08,5618.51 c -596.86,-303.16 -943.86,-548.29 -1133.97,-757.16 97.36,-384.35 605.25,-401.9 790.96,-391.11 -38.03,17.43 -69.75,38.32 -80.99,70.4 46.59,32.6 211.83,3.44 327.18,67.26 -44.31,9.06 -65.04,17.85 -85.77,50.07 108.99,34.23 226.38,63.75 295.43,120.46 -37.26,-0.47 -72.06,-8.22 -120.71,25.03 97.61,51.82 201.78,92.87 282.7,172.08 -50.47,1.2 -104.87,0.5 -120.71,18.77 89.36,54.51 164.74,115.15 227.13,181.47 -70.62,-8.39 -100.44,-1.17 -117.53,10.95 67.54,68.12 153.01,125.66 193.78,209.63 -52.45,-17.81 -100.43,-24.63 -135.02,1.56 22.96,51.01 121.28,81.08 177.88,200.25 -55.2,-5.28 -113.75,-11.86 -125.47,0 25.67,102.87 69.65,160.68 112.76,220.59 -118.15,1.72 -297.16,-0.46 -289.07,9.38 l 73.08,73.52 c -115.43,30.61 -233.51,-4.9 -319.26,-31.28 -38.47,29.92 0.69,67.76 47.65,106.37 -98.08,-12.89 -186.72,-35.11 -266.83,-65.7 -42.79,38.06 27.8,76.13 61.95,114.2 -151.53,-28.32 -215.73,-68.11 -279.54,-107.94 -46.29,43.7 -2.64,80.85 28.59,118.88 -114.25,-41.67 -173.11,-95.48 -235.06,-148.6 -21.01,27.92 -53.36,48.38 -14.29,115.77 -81.13,-46.07 -142.22,-100.34 -187.42,-161.14 -50.19,31.48 -29.9,74.53 -30.18,114.19 -84.31,-67.54 -137.82,-139.43 -203.3,-209.62 -13.19,9.46 -24.73,41.55 -34.94,92.3 -201.13,-192.19 -485.34,-676.3 -73.06,-868.24 350.68,285.09 769.7,492.26 1234.1,647.67 l -0.07,-0.01"
         style="fill:#79cc4a;fill-opacity:1;fill-rule:nonzero;stroke:none"
         id="path18"
         inkscape:connector-curvature="0" /><path
         d="m 3222.96,1704.73 c 2.08,-358.65 -316.35,-650.94 -711.23,-652.83 -394.87,-1.89 -716.67,287.33 -718.75,645.98 -0.01,2.28 -0.01,4.56 0,6.85 -2.07,358.65 316.34,650.94 711.23,652.82 394.88,1.89 716.68,-287.32 718.75,-645.98 0.01,-2.28 0.01,-4.56 0,-6.84"
         style="fill:#c91646;fill-opacity:1;fill-rule:nonzero;stroke:none"
         id="path20"
         inkscape:connector-curvature="0" /><path
         d="m 2094.25,3559.87 c 296.27,-191.17 349.67,-624.54 119.29,-967.92 -230.38,-343.39 -657.31,-466.8 -953.56,-275.62 l 0,0 c -296.261,191.19 -349.671,624.56 -119.29,967.96 230.38,343.38 657.3,466.78 953.56,275.58 l 0,0"
         style="fill:#c91646;fill-opacity:1;fill-rule:nonzero;stroke:none"
         id="path22"
         inkscape:connector-curvature="0" /><path
         d="m 2893.9,3594.49 c -296.27,-191.18 -349.68,-624.56 -119.3,-967.93 230.39,-343.39 657.31,-466.8 953.57,-275.61 l 0,0 c 296.27,191.18 349.68,624.56 119.29,967.95 -230.38,343.39 -657.3,466.78 -953.56,275.59 l 0,0"
         style="fill:#c91646;fill-opacity:1;fill-rule:nonzero;stroke:none"
         id="path24"
         inkscape:connector-curvature="0" /><path
         d="M 613.578,3247.31 C 933.426,3331.76 721.563,1943.9 461.316,2057.77 175.031,2284.58 82.8164,2948.78 613.578,3247.31"
         style="fill:#c91646;fill-opacity:1;fill-rule:nonzero;stroke:none"
         id="path26"
         inkscape:connector-curvature="0" /><path
         d="m 4310,3264.62 c -319.89,84.42 -107.98,-1303.48 152.28,-1189.61 286.27,226.82 378.48,891.08 -152.28,1189.61 l 0,0"
         style="fill:#c91646;fill-opacity:1;fill-rule:nonzero;stroke:none"
         id="path28"
         inkscape:connector-curvature="0" /><path
         d="m 3223.23,4298.12 c 551.99,91.81 1011.3,-231.21 992.77,-820.81 -18.16,-226.02 -1196.16,787.16 -992.77,820.81"
         style="fill:#c91646;fill-opacity:1;fill-rule:nonzero;stroke:none"
         id="path30"
         inkscape:connector-curvature="0" /><path
         d="m 1698.07,4315.43 c -552.04,91.81 -1011.308,-231.29 -992.769,-820.82 18.14,-226.02 1196.139,787.16 992.769,820.82"
         style="fill:#c91646;fill-opacity:1;fill-rule:nonzero;stroke:none"
         id="path32"
         inkscape:connector-curvature="0" /><path
         d="m 2491,4452.92 c -329.46,8.44 -645.64,-240.85 -646.41,-385.43 -0.92,-175.69 260.48,-355.58 648.65,-360.15 396.4,-2.79 649.34,143.99 650.62,325.31 1.45,205.43 -360.53,423.45 -652.86,420.29 l 0,-0.02"
         style="fill:#c91646;fill-opacity:1;fill-rule:nonzero;stroke:none"
         id="path34"
         inkscape:connector-curvature="0" /><path
         d="m 2511.11,850.172 c 287.23,12.359 672.68,-91.133 673.43,-228.391 4.77,-133.301 -349.56,-434.48 -692.48,-428.672 -355.16,-15.07 -703.39,286.563 -698.83,391.121 -5.32,153.29 432.44,272.969 717.88,265.942 l 0,0"
         style="fill:#c91646;fill-opacity:1;fill-rule:nonzero;stroke:none"
         id="path36"
         inkscape:connector-curvature="0" /><path
         d="m 1450.17,1663.73 c 204.49,-242.68 297.72,-669.031 127.07,-794.71 -161.47,-95.961 -553.57,-56.442 -832.271,337.92 -187.934,330.88 -163.727,667.63 -31.75,766.53 197.347,118.41 502.261,-41.52 736.951,-309.74 l 0,0"
         style="fill:#c91646;fill-opacity:1;fill-rule:nonzero;stroke:none"
         id="path38"
         inkscape:connector-curvature="0" /><path
         d="m 3531.13,1740.65 c -221.26,-255.28 -344.47,-720.87 -183.06,-870.83 154.32,-116.488 568.64,-100.199 874.69,318.05 222.22,280.91 147.76,750.06 20.83,874.64 -188.57,143.66 -459.26,-40.19 -712.46,-321.78 l 0,-0.08"
         style="fill:#c91646;fill-opacity:1;fill-rule:nonzero;stroke:none"
         id="path40"
         inkscape:connector-curvature="0" /></g></g></svg>