<svg width="32" height="32" version="1.1" viewBox="0 0 48 48" xmlns="http://www.w3.org/2000/svg">
  <path d="m5.57 47.9c3.28-0.725 6.59-1.32 9.92-1.79v-46.1c-3.3 0.00993-6.6 0.151-9.88 0.421v47.4zm12.3-47.8v45.8c8.16-0.949 16.4-1.11 24.6-0.409v-42.4c-8.06-1.83-16.3-2.82-24.6-2.97zm21.5 29.5c-6.1-0.732-12.3-0.855-18.4-0.71-2.28-1.3 0.675-2.87 2.21-2.26 5.56-0.0925 11.1 0.105 16.7 0.823 1.42 0.343 0.721 2.82-0.489 2.15zm0.0698-5.41c-6.01-0.821-12.1-1.08-18.2-1.02-1.9-0.298-0.883-2.89 0.724-2.41 5.97-0.109 12 0.227 17.9 1 1.55 0.679 0.812 2.06-0.447 2.42zm0-5.41c-6.07-0.891-12.2-1.29-18.3-1.31-1.93-0.752-0.236-2.88 1.3-2.32 5.86 0.0247 11.7 0.451 17.5 1.33 1.39 0.419 0.941 2.47-0.479 2.3zm0-5.41c-6.07-1.03-12.2-1.48-18.4-1.63-2.26-1.22 0.358-3.08 1.98-2.33 5.62 0.149 11.2 0.679 16.8 1.58 1.58 0.701 0.559 2.07-0.375 2.38zm-31.3-1.02c-2.14-0.254-0.866-2.88 0.808-2.44 1.58 0.0537 3.36-0.686 4.81 0.0428 1.31 1.97-1.52 2.34-2.9 2.23-0.904 0.0312-1.83 0.209-2.72 0.163zm31.2-4.39c-6.06-1.1-12.2-1.69-18.4-1.92-1.93-0.784-0.176-2.95 1.36-2.35 5.88 0.197 11.7 0.893 17.5 1.86 1.51 0.686 0.686 2.09-0.505 2.41zm-31.3-1.53c-2.4-0.472-0.529-3.22 1.29-2.43 1.44 0.162 3.34-0.782 4.44 0.417 0.739 1.9-1.59 1.85-2.83 1.88-0.888 0.0426-2.51 0.184-2.9 0.137z" fill="#14679e" stroke-width="1.99"/>
</svg>
