<svg width="32" height="32" version="1.1" viewBox="0 0 6.34 5.29" xmlns="http://www.w3.org/2000/svg">
  <g transform="matrix(.169 0 0 .169 -5.29 -5.82)" fill="#14679e">
    <path d="m68.8 38.1c-1.38 0.628-2.86 1.05-4.42 1.24 1.59-0.976 2.81-2.52 3.38-4.37-1.49 0.905-3.13 1.56-4.89 1.92-1.4-1.53-3.4-2.49-5.62-2.49-4.25 0-7.69 3.53-7.69 7.89 0 0.617 0.0676 1.22 0.199 1.8-6.39-0.33-12.1-3.47-15.9-8.24-0.662 1.16-1.04 2.52-1.04 3.97 0 2.74 1.36 5.15 3.42 6.57-1.26-0.0413-2.45-0.396-3.48-0.987-9e-4 0.0327-9e-4 0.0664-9e-4 0.1 0 3.82 2.65 7.01 6.17 7.74-0.646 0.18-1.33 0.276-2.03 0.276-0.496 0-0.978-0.0493-1.45-0.142 0.98 3.13 3.82 5.42 7.19 5.48-2.63 2.12-5.95 3.38-9.55 3.38-0.62 0-1.23-0.0375-1.84-0.111 3.41 2.24 7.45 3.54 11.8 3.54 14.2 0 21.9-12 21.9-22.4 0-0.342-0.0069-0.683-0.0212-1.02 1.5-1.11 2.81-2.5 3.84-4.08z" fill="#14679e"/>
  </g>
</svg>
