<?xml version="1.0" encoding="UTF-8" standalone="no"?>
<!DOCTYPE svg PUBLIC "-//W3C//DTD SVG 1.1//EN"
 "http://www.w3.org/Graphics/SVG/1.1/DTD/svg11.dtd">
<!-- Generated by graphviz version 2.38.0 (20140413.2041)
 -->
<!-- Title: slave Pages: 1 -->
<svg width="221pt" height="348pt"
 viewBox="0.00 0.00 221.02 348.00" xmlns="http://www.w3.org/2000/svg" xmlns:xlink="http://www.w3.org/1999/xlink">
<g id="graph0" class="graph" transform="scale(1 1) rotate(0) translate(4 344)">
<title>slave</title>
<polygon fill="white" stroke="none" points="-4,4 -4,-344 217.016,-344 217.016,4 -4,4"/>
<!-- IMPORT -->
<g id="node1" class="node"><title>IMPORT</title>
<polygon fill="#ffaaaa" stroke="black" stroke-width="0" points="86.2339,-327.562 49.0156,-340 11.7973,-327.562 11.832,-307.438 86.1992,-307.438 86.2339,-327.562"/>
<text text-anchor="middle" x="49.0156" y="-319.5" font-family="Sans" font-size="10.00">IMPORT</text>
</g>
<!-- ERROR -->
<g id="node4" class="node"><title>ERROR</title>
<polygon fill="#aaffaa" stroke="black" stroke-width="0" points="82.1632,-200.438 117.016,-188 151.868,-200.438 151.835,-220.562 82.1957,-220.562 82.1632,-200.438"/>
<text text-anchor="middle" x="117.016" y="-203.5" font-family="Sans" font-size="10.00">ERROR</text>
</g>
<!-- IMPORT&#45;&gt;ERROR -->
<g id="edge2" class="edge"><title>IMPORT&#45;&gt;ERROR</title>
<path fill="none" stroke="black" d="M70.5393,-307.392C78.2357,-301.607 86.3876,-294.279 92.0156,-286 103.36,-269.312 109.779,-247.193 113.263,-230.605"/>
<polygon fill="black" stroke="black" points="116.733,-231.092 115.151,-220.616 109.855,-229.792 116.733,-231.092"/>
</g>
<!-- SEND -->
<g id="node5" class="node"><title>SEND</title>
<polygon fill="#aaffaa" stroke="black" stroke-width="0" points="-0.015614,-200.438 32.0156,-188 64.0468,-200.438 64.0169,-220.562 0.0142834,-220.562 -0.015614,-200.438"/>
<text text-anchor="middle" x="32.0156" y="-203.5" font-family="Sans" font-size="10.00">SEND</text>
</g>
<!-- IMPORT&#45;&gt;SEND -->
<g id="edge1" class="edge"><title>IMPORT&#45;&gt;SEND</title>
<path fill="none" stroke="black" d="M46.9311,-307.021C44.0991,-288.03 38.9956,-253.807 35.5569,-230.748"/>
<polygon fill="black" stroke="black" points="39.0008,-230.111 34.0641,-220.737 32.0774,-231.144 39.0008,-230.111"/>
<text text-anchor="middle" x="68.0156" y="-278" font-family="Sans" font-size="10.00">[package,</text>
<text text-anchor="middle" x="68.0156" y="-267" font-family="Sans" font-size="10.00">version,</text>
<text text-anchor="middle" x="68.0156" y="-256" font-family="Sans" font-size="10.00">status,</text>
<text text-anchor="middle" x="68.0156" y="-245" font-family="Sans" font-size="10.00">...</text>
</g>
<!-- REMOVE -->
<g id="node2" class="node"><title>REMOVE</title>
<polygon fill="#ffaaaa" stroke="black" stroke-width="0" points="192.465,-327.562 151.016,-340 109.566,-327.562 109.605,-307.438 192.426,-307.438 192.465,-327.562"/>
<text text-anchor="middle" x="151.016" y="-319.5" font-family="Sans" font-size="10.00">REMOVE</text>
</g>
<!-- REMOVE&#45;&gt;ERROR -->
<g id="edge7" class="edge"><title>REMOVE&#45;&gt;ERROR</title>
<path fill="none" stroke="black" d="M146.847,-307.021C141.157,-287.944 130.883,-253.497 124.005,-230.435"/>
<polygon fill="black" stroke="black" points="127.325,-229.319 121.113,-220.737 120.617,-231.32 127.325,-229.319"/>
</g>
<!-- DONE -->
<g id="node6" class="node"><title>DONE</title>
<polygon fill="#aaffaa" stroke="black" stroke-width="0" points="115.027,-12.4377 148.016,3.55271e-15 181.004,-12.4377 180.973,-32.5623 115.058,-32.5623 115.027,-12.4377"/>
<text text-anchor="middle" x="148.016" y="-15.5" font-family="Sans" font-size="10.00">DONE</text>
</g>
<!-- REMOVE&#45;&gt;DONE -->
<g id="edge6" class="edge"><title>REMOVE&#45;&gt;DONE</title>
<path fill="none" stroke="black" d="M152.75,-307.212C155.041,-288.428 159.018,-253.729 161.016,-224 165.755,-153.457 164.904,-135.693 166.016,-65 166.092,-60.1117 167.166,-58.7516 166.016,-54 165.031,-49.9324 163.487,-45.8076 161.708,-41.8859"/>
<polygon fill="black" stroke="black" points="164.672,-39.9957 156.985,-32.7039 158.447,-43.1974 164.672,-39.9957"/>
<text text-anchor="middle" x="189.016" y="-162" font-family="Sans" font-size="10.00">[package,</text>
<text text-anchor="middle" x="189.016" y="-151" font-family="Sans" font-size="10.00">version,</text>
<text text-anchor="middle" x="189.016" y="-140" font-family="Sans" font-size="10.00">skip]</text>
</g>
<!-- SENT -->
<g id="node3" class="node"><title>SENT</title>
<polygon fill="#ffaaaa" stroke="black" stroke-width="0" points="135.636,-106.562 105.016,-119 74.3948,-106.562 74.4234,-86.4377 135.608,-86.4377 135.636,-106.562"/>
<text text-anchor="middle" x="105.016" y="-98.5" font-family="Sans" font-size="10.00">SENT</text>
</g>
<!-- SENT&#45;&gt;SEND -->
<g id="edge5" class="edge"><title>SENT&#45;&gt;SEND</title>
<path fill="none" stroke="black" d="M76.0749,-107.315C59.2396,-112.052 39.3567,-120.853 29.0156,-137 20.9408,-149.609 21.5939,-166.394 24.3134,-180.132"/>
<polygon fill="black" stroke="black" points="20.9295,-181.03 26.6855,-189.925 27.7328,-179.382 20.9295,-181.03"/>
<text text-anchor="middle" x="58.0156" y="-151" font-family="Sans" font-size="10.00">failure/more</text>
</g>
<!-- SENT&#45;&gt;DONE -->
<g id="edge4" class="edge"><title>SENT&#45;&gt;DONE</title>
<path fill="none" stroke="black" d="M111.228,-86.1435C115.462,-76.9238 121.315,-64.6042 127.016,-54 129.227,-49.8865 131.692,-45.5712 134.132,-41.4307"/>
<polygon fill="black" stroke="black" points="137.174,-43.165 139.331,-32.792 131.176,-39.5559 137.174,-43.165"/>
<text text-anchor="middle" x="146.516" y="-57" font-family="Sans" font-size="10.00">success</text>
</g>
<!-- SEND&#45;&gt;SENT -->
<g id="edge3" class="edge"><title>SEND&#45;&gt;SENT</title>
<path fill="none" stroke="black" d="M54.8798,-196.811C67.4178,-191.164 82.1678,-182.414 91.0156,-170 99.4059,-158.228 103.007,-142.56 104.466,-129.232"/>
<polygon fill="black" stroke="black" points="107.963,-129.398 105.226,-119.163 100.983,-128.871 107.963,-129.398"/>
</g>
</g>
</svg>
