<?xml version="1.0" encoding="UTF-8" standalone="no"?>
<!DOCTYPE svg PUBLIC "-//W3C//DTD SVG 1.1//EN"
 "http://www.w3.org/Graphics/SVG/1.1/DTD/svg11.dtd">
<!-- Generated by graphviz version 2.38.0 (20140413.2041)
 -->
<!-- Title: slave Pages: 1 -->
<svg width="285pt" height="348pt"
 viewBox="0.00 0.00 285.18 348.00" xmlns="http://www.w3.org/2000/svg" xmlns:xlink="http://www.w3.org/1999/xlink">
<g id="graph0" class="graph" transform="scale(1 1) rotate(0) translate(4 344)">
<title>slave</title>
<polygon fill="white" stroke="none" points="-4,4 -4,-344 281.178,-344 281.178,4 -4,4"/>
<!-- IMPORT -->
<g id="node1" class="node"><title>IMPORT</title>
<polygon fill="#ffaaaa" stroke="black" stroke-width="0" points="76.8363,-327.562 39.618,-340 2.39966,-327.562 2.4344,-307.438 76.8016,-307.438 76.8363,-327.562"/>
<text text-anchor="middle" x="39.618" y="-319.5" font-family="Sans" font-size="10.00">IMPORT</text>
</g>
<!-- ERROR -->
<g id="node5" class="node"><title>ERROR</title>
<polygon fill="#aaffaa" stroke="black" stroke-width="0" points="0.765586,-12.4377 35.618,3.55271e-15 70.4704,-12.4377 70.4378,-32.5623 0.798117,-32.5623 0.765586,-12.4377"/>
<text text-anchor="middle" x="35.618" y="-15.5" font-family="Sans" font-size="10.00">ERROR</text>
</g>
<!-- IMPORT&#45;&gt;ERROR -->
<g id="edge2" class="edge"><title>IMPORT&#45;&gt;ERROR</title>
<path fill="none" stroke="black" d="M34.0646,-307.332C20.8963,-273.17 -10.1225,-181.328 3.61797,-105 7.62891,-82.7192 17.0477,-58.6741 24.6343,-41.6893"/>
<polygon fill="black" stroke="black" points="27.8294,-43.1186 28.8348,-32.5716 21.4716,-40.1896 27.8294,-43.1186"/>
</g>
<!-- SEND -->
<g id="node6" class="node"><title>SEND</title>
<polygon fill="#aaffaa" stroke="black" stroke-width="0" points="141.587,-200.438 173.618,-188 205.649,-200.438 205.619,-220.562 141.617,-220.562 141.587,-200.438"/>
<text text-anchor="middle" x="173.618" y="-203.5" font-family="Sans" font-size="10.00">SEND</text>
</g>
<!-- IMPORT&#45;&gt;SEND -->
<g id="edge1" class="edge"><title>IMPORT&#45;&gt;SEND</title>
<path fill="none" stroke="black" d="M55.7815,-307.249C79.1223,-287.392 122.431,-250.547 149.543,-227.482"/>
<polygon fill="black" stroke="black" points="152.048,-229.945 157.397,-220.8 147.513,-224.614 152.048,-229.945"/>
<text text-anchor="middle" x="154.618" y="-278" font-family="Sans" font-size="10.00">[package,</text>
<text text-anchor="middle" x="154.618" y="-267" font-family="Sans" font-size="10.00">version,</text>
<text text-anchor="middle" x="154.618" y="-256" font-family="Sans" font-size="10.00">status,</text>
<text text-anchor="middle" x="154.618" y="-245" font-family="Sans" font-size="10.00">...</text>
</g>
<!-- REMOVE -->
<g id="node2" class="node"><title>REMOVE</title>
<polygon fill="#ffaaaa" stroke="black" stroke-width="0" points="198.068,-128.562 156.618,-141 115.168,-128.562 115.207,-108.438 198.029,-108.438 198.068,-128.562"/>
<text text-anchor="middle" x="156.618" y="-120.5" font-family="Sans" font-size="10.00">REMOVE</text>
</g>
<!-- REMOVE&#45;&gt;ERROR -->
<g id="edge7" class="edge"><title>REMOVE&#45;&gt;ERROR</title>
<path fill="none" stroke="black" d="M151.131,-108.31C144.483,-93.238 131.976,-69.141 114.618,-54 104.627,-45.2856 92.1199,-38.4168 80.0239,-33.1579"/>
<polygon fill="black" stroke="black" points="81.0495,-29.797 70.4673,-29.281 78.418,-36.2836 81.0495,-29.797"/>
</g>
<!-- DONE -->
<g id="node7" class="node"><title>DONE</title>
<polygon fill="#aaffaa" stroke="black" stroke-width="0" points="128.63,-12.4377 161.618,3.55271e-15 194.606,-12.4377 194.575,-32.5623 128.66,-32.5623 128.63,-12.4377"/>
<text text-anchor="middle" x="161.618" y="-15.5" font-family="Sans" font-size="10.00">DONE</text>
</g>
<!-- REMOVE&#45;&gt;DONE -->
<g id="edge6" class="edge"><title>REMOVE&#45;&gt;DONE</title>
<path fill="none" stroke="black" d="M157.292,-108.109C158.106,-91.3524 159.486,-62.9162 160.469,-42.6749"/>
<polygon fill="black" stroke="black" points="163.965,-42.8289 160.954,-32.671 156.973,-42.4895 163.965,-42.8289"/>
<text text-anchor="middle" x="184.618" y="-79" font-family="Sans" font-size="10.00">[package,</text>
<text text-anchor="middle" x="184.618" y="-68" font-family="Sans" font-size="10.00">version,</text>
<text text-anchor="middle" x="184.618" y="-57" font-family="Sans" font-size="10.00">skip]</text>
</g>
<!-- REBUILD -->
<g id="node3" class="node"><title>REBUILD</title>
<polygon fill="#ffaaaa" stroke="black" stroke-width="0" points="97.0237,-128.562 54.618,-141 12.2122,-128.562 12.2518,-108.438 96.9841,-108.438 97.0237,-128.562"/>
<text text-anchor="middle" x="54.618" y="-120.5" font-family="Sans" font-size="10.00">REBUILD</text>
</g>
<!-- REBUILD&#45;&gt;ERROR -->
<g id="edge9" class="edge"><title>REBUILD&#45;&gt;ERROR</title>
<path fill="none" stroke="black" d="M52.0555,-108.109C48.9645,-91.3524 43.719,-62.9162 39.9852,-42.6749"/>
<polygon fill="black" stroke="black" points="43.3959,-41.8701 38.1398,-32.671 36.512,-43.14 43.3959,-41.8701"/>
</g>
<!-- REBUILD&#45;&gt;DONE -->
<g id="edge8" class="edge"><title>REBUILD&#45;&gt;DONE</title>
<path fill="none" stroke="black" d="M63.894,-108.216C74.0601,-93.7138 91.3673,-70.7169 109.618,-54 115.712,-48.4184 122.766,-43.0684 129.674,-38.3039"/>
<polygon fill="black" stroke="black" points="131.864,-41.0518 138.264,-32.6085 127.995,-35.2177 131.864,-41.0518"/>
<text text-anchor="middle" x="132.118" y="-73.5" font-family="Sans" font-size="10.00">[part,</text>
<text text-anchor="middle" x="132.118" y="-62.5" font-family="Sans" font-size="10.00">package]</text>
</g>
<!-- SENT -->
<g id="node4" class="node"><title>SENT</title>
<polygon fill="#ffaaaa" stroke="black" stroke-width="0" points="277.239,-128.562 246.618,-141 215.997,-128.562 216.026,-108.438 277.21,-108.438 277.239,-128.562"/>
<text text-anchor="middle" x="246.618" y="-120.5" font-family="Sans" font-size="10.00">SENT</text>
</g>
<!-- SENT&#45;&gt;SEND -->
<g id="edge5" class="edge"><title>SENT&#45;&gt;SEND</title>
<path fill="none" stroke="black" d="M226.041,-132.824C204.097,-142.33 172.253,-156.446 170.618,-159 166.732,-165.068 165.951,-172.557 166.57,-179.717"/>
<polygon fill="black" stroke="black" points="163.153,-180.499 168.283,-189.769 170.054,-179.323 163.153,-180.499"/>
<text text-anchor="middle" x="199.618" y="-162" font-family="Sans" font-size="10.00">failure/more</text>
</g>
<!-- SENT&#45;&gt;DONE -->
<g id="edge4" class="edge"><title>SENT&#45;&gt;DONE</title>
<path fill="none" stroke="black" d="M242.109,-108.29C236.789,-93.64 226.834,-70.3238 212.618,-54 207.624,-48.2655 201.49,-43.0255 195.23,-38.4451"/>
<polygon fill="black" stroke="black" points="196.941,-35.3751 186.71,-32.6236 192.992,-41.1549 196.941,-35.3751"/>
<text text-anchor="middle" x="252.118" y="-68" font-family="Sans" font-size="10.00">success</text>
</g>
<!-- SEND&#45;&gt;SENT -->
<g id="edge3" class="edge"><title>SEND&#45;&gt;SENT</title>
<path fill="none" stroke="black" d="M196.059,-196.494C208.456,-190.742 223.206,-181.992 232.618,-170 237.119,-164.264 240.179,-157.088 242.256,-150.121"/>
<polygon fill="black" stroke="black" points="245.693,-150.8 244.651,-140.257 238.891,-149.149 245.693,-150.8"/>
</g>
</g>
</svg>
