<?xml version="1.0" encoding="UTF-8" standalone="no"?>
<!DOCTYPE svg PUBLIC "-//W3C//DTD SVG 1.1//EN"
 "http://www.w3.org/Graphics/SVG/1.1/DTD/svg11.dtd">
<!-- Generated by graphviz version 2.38.0 (20140413.2041)
 -->
<!-- Title: piwheels Pages: 1 -->
<svg width="858pt" height="816pt"
 viewBox="0.00 0.00 857.93 816.00" xmlns="http://www.w3.org/2000/svg" xmlns:xlink="http://www.w3.org/1999/xlink">
<g id="graph0" class="graph" transform="scale(1 1) rotate(0) translate(4 812)">
<title>piwheels</title>
<polygon fill="white" stroke="none" points="-4,4 -4,-812 853.93,-812 853.93,4 -4,4"/>
<g id="clust1" class="cluster"><title>cluster_db_server</title>
<polygon fill="#cccccc" stroke="black" points="356.046,-8 356.046,-299 735.046,-299 735.046,-8 356.046,-8"/>
<text text-anchor="middle" x="545.546" y="-283.8" font-family="Roboto" font-size="14.00">piw&#45;master (db)</text>
</g>
<g id="clust2" class="cluster"><title>cluster_file_server</title>
<polygon fill="#cccccc" stroke="black" points="171.046,-8 171.046,-515 347.046,-515 347.046,-8 171.046,-8"/>
<text text-anchor="middle" x="259.046" y="-499.8" font-family="Roboto" font-size="14.00">piw&#45;master (fs)</text>
</g>
<g id="clust3" class="cluster"><title>cluster_master</title>
<polygon fill="#cccccc" stroke="black" points="543.046,-332 543.046,-623 817.046,-623 817.046,-332 543.046,-332"/>
<text text-anchor="middle" x="680.046" y="-607.8" font-family="Roboto" font-size="14.00">piw&#45;master (core)</text>
</g>
<g id="clust4" class="cluster"><title>cluster_monitor</title>
<polygon fill="#cccccc" stroke="black" points="743.046,-224 743.046,-299 835.046,-299 835.046,-224 743.046,-224"/>
<text text-anchor="middle" x="789.046" y="-283.8" font-family="Roboto" font-size="14.00">piw&#45;monitor</text>
</g>
<g id="clust5" class="cluster"><title>cluster_slave1</title>
<polygon fill="#cccccc" stroke="black" points="284.046,-656 284.046,-731 360.046,-731 360.046,-656 284.046,-656"/>
<text text-anchor="middle" x="322.046" y="-715.8" font-family="Roboto" font-size="14.00">piw&#45;slave</text>
</g>
<g id="clust6" class="cluster"><title>cluster_slave2</title>
<polygon fill="#cccccc" stroke="black" points="374.046,-656 374.046,-731 450.046,-731 450.046,-656 374.046,-656"/>
<text text-anchor="middle" x="412.046" y="-715.8" font-family="Roboto" font-size="14.00">piw&#45;slave</text>
</g>
<g id="clust7" class="cluster"><title>cluster_import</title>
<polygon fill="#cccccc" stroke="black" points="462.046,-656 462.046,-731 547.046,-731 547.046,-656 462.046,-656"/>
<text text-anchor="middle" x="504.546" y="-715.8" font-family="Roboto" font-size="14.00">piw&#45;import</text>
</g>
<g id="clust8" class="cluster"><title>cluster_rebuild</title>
<polygon fill="#cccccc" stroke="black" points="648.046,-656 648.046,-731 734.046,-731 734.046,-656 648.046,-656"/>
<text text-anchor="middle" x="691.046" y="-715.8" font-family="Roboto" font-size="14.00">piw&#45;rebuild</text>
</g>
<g id="clust9" class="cluster"><title>cluster_remove</title>
<polygon fill="#cccccc" stroke="black" points="743.046,-656 743.046,-731 833.046,-731 833.046,-656 743.046,-656"/>
<text text-anchor="middle" x="788.046" y="-715.8" font-family="Roboto" font-size="14.00">piw&#45;remove</text>
</g>
<!-- PyPI -->
<g id="node1" class="node"><title>PyPI</title>
<polygon fill="#9999ff" stroke="black" points="414.729,-772.049 416.505,-772.148 418.263,-772.295 419.995,-772.491 421.694,-772.735 423.355,-773.027 424.969,-773.364 426.531,-773.748 428.035,-774.176 429.475,-774.647 430.846,-775.161 432.144,-775.715 433.364,-776.308 434.501,-776.939 435.554,-777.605 436.518,-778.306 437.392,-779.039 438.173,-779.801 438.861,-780.592 439.454,-781.408 439.952,-782.248 440.355,-783.109 440.663,-783.989 440.879,-784.886 441.002,-785.797 441.035,-786.719 440.98,-787.65 440.84,-788.587 440.617,-789.529 440.315,-790.471 439.936,-791.413 439.485,-792.35 438.964,-793.281 438.379,-794.203 437.732,-795.114 437.027,-796.011 436.269,-796.891 435.461,-797.752 434.608,-798.592 433.712,-799.408 432.779,-800.199 431.81,-800.961 430.811,-801.694 429.783,-802.395 428.731,-803.061 427.656,-803.692 426.562,-804.285 425.452,-804.839 424.326,-805.353 423.189,-805.824 422.04,-806.252 420.883,-806.636 419.718,-806.973 418.547,-807.265 417.371,-807.509 416.192,-807.705 415.009,-807.852 413.825,-807.951 412.639,-808 411.453,-808 410.268,-807.951 409.083,-807.852 407.901,-807.705 406.721,-807.509 405.545,-807.265 404.375,-806.973 403.21,-806.636 402.052,-806.252 400.904,-805.824 399.766,-805.353 398.641,-804.839 397.53,-804.285 396.436,-803.692 395.362,-803.061 394.309,-802.395 393.282,-801.694 392.282,-800.961 391.314,-800.199 390.38,-799.408 389.485,-798.592 388.632,-797.752 387.824,-796.891 387.066,-796.011 386.361,-795.114 385.714,-794.203 385.128,-793.281 384.608,-792.35 384.156,-791.413 383.778,-790.471 383.475,-789.529 383.252,-788.587 383.112,-787.65 383.057,-786.719 383.091,-785.797 383.214,-784.886 383.429,-783.989 383.738,-783.109 384.141,-782.248 384.639,-781.408 385.232,-780.592 385.919,-779.801 386.701,-779.039 387.575,-778.306 388.539,-777.605 389.591,-776.939 390.729,-776.308 391.949,-775.715 393.246,-775.161 394.618,-774.647 396.058,-774.176 397.562,-773.748 399.124,-773.364 400.738,-773.027 402.398,-772.735 404.098,-772.491 405.83,-772.295 407.588,-772.148 409.364,-772.049 411.151,-772 412.942,-772 414.729,-772.049"/>
<text text-anchor="middle" x="412.046" y="-787.5" font-family="Roboto" font-size="10.00">PyPI</text>
</g>
<!-- CloudGazer -->
<g id="node15" class="node"><title>CloudGazer</title>
<polygon fill="#9999ff" stroke="black" points="616.546,-592 551.546,-592 551.546,-556 616.546,-556 616.546,-592"/>
<text text-anchor="middle" x="584.046" y="-571.5" font-family="Roboto" font-size="10.00">CloudGazer</text>
</g>
<!-- PyPI&#45;&gt;CloudGazer -->
<g id="edge17" class="edge"><title>PyPI&#45;&gt;CloudGazer</title>
<path fill="none" stroke="black" d="M440.973,-785.653C474.074,-780.213 527.394,-766.234 556.046,-731 585.967,-694.207 588.291,-636.249 586.615,-602.3"/>
<polygon fill="black" stroke="black" points="590.099,-601.931 585.961,-592.178 583.114,-602.383 590.099,-601.931"/>
</g>
<!-- Slave1 -->
<g id="node21" class="node"><title>Slave1</title>
<polygon fill="#9999ff" stroke="black" points="349.046,-700 295.046,-700 295.046,-664 349.046,-664 349.046,-700"/>
<text text-anchor="middle" x="322.046" y="-679.5" font-family="Roboto" font-size="10.00">main</text>
</g>
<!-- PyPI&#45;&gt;Slave1 -->
<g id="edge18" class="edge"><title>PyPI&#45;&gt;Slave1</title>
<path fill="none" stroke="black" d="M398.766,-773.359C384.155,-756.15 360.465,-728.249 343.271,-707.998"/>
<polygon fill="black" stroke="black" points="345.715,-705.469 336.575,-700.112 340.379,-710 345.715,-705.469"/>
</g>
<!-- Slave2 -->
<g id="node22" class="node"><title>Slave2</title>
<polygon fill="#9999ff" stroke="black" points="439.046,-700 385.046,-700 385.046,-664 439.046,-664 439.046,-700"/>
<text text-anchor="middle" x="412.046" y="-679.5" font-family="Roboto" font-size="10.00">main</text>
</g>
<!-- PyPI&#45;&gt;Slave2 -->
<g id="edge19" class="edge"><title>PyPI&#45;&gt;Slave2</title>
<path fill="none" stroke="black" d="M412.046,-771.969C412.046,-755.378 412.046,-729.883 412.046,-710.431"/>
<polygon fill="black" stroke="black" points="415.546,-710.341 412.046,-700.341 408.546,-710.341 415.546,-710.341"/>
</g>
<!-- Users -->
<g id="node2" class="node"><title>Users</title>
<polygon fill="#9999ff" stroke="black" points="136.729,-16.0493 138.505,-16.1479 140.263,-16.2953 141.995,-16.4913 143.694,-16.7353 145.355,-17.0266 146.969,-17.3645 148.531,-17.7479 150.035,-18.1759 151.475,-18.6472 152.846,-19.1606 154.144,-19.7147 155.364,-20.308 156.501,-20.9388 157.554,-21.6054 158.518,-22.3059 159.392,-23.0385 160.173,-23.8012 160.861,-24.5918 161.454,-25.4082 161.952,-26.2481 162.355,-27.1093 162.663,-27.9894 162.879,-28.886 163.002,-29.7965 163.035,-30.7186 162.98,-31.6497 162.84,-32.5873 162.617,-33.5287 162.315,-34.4713 161.936,-35.4127 161.485,-36.3503 160.964,-37.2814 160.379,-38.2035 159.732,-39.114 159.027,-40.0106 158.269,-40.8907 157.461,-41.7519 156.608,-42.5918 155.712,-43.4082 154.779,-44.1988 153.81,-44.9615 152.811,-45.6941 151.783,-46.3946 150.731,-47.0612 149.656,-47.692 148.562,-48.2853 147.452,-48.8394 146.326,-49.3528 145.189,-49.8241 144.04,-50.2521 142.883,-50.6355 141.718,-50.9734 140.547,-51.2647 139.371,-51.5087 138.192,-51.7047 137.009,-51.8521 135.825,-51.9507 134.639,-52 133.453,-52 132.268,-51.9507 131.083,-51.8521 129.901,-51.7047 128.721,-51.5087 127.545,-51.2647 126.375,-50.9734 125.21,-50.6355 124.052,-50.2521 122.904,-49.8241 121.766,-49.3528 120.641,-48.8394 119.53,-48.2853 118.436,-47.692 117.362,-47.0612 116.309,-46.3946 115.282,-45.6941 114.282,-44.9615 113.314,-44.1988 112.38,-43.4082 111.485,-42.5918 110.632,-41.7519 109.824,-40.8907 109.066,-40.0106 108.361,-39.114 107.714,-38.2035 107.128,-37.2814 106.608,-36.3503 106.156,-35.4127 105.778,-34.4713 105.475,-33.5287 105.252,-32.5873 105.112,-31.6497 105.057,-30.7186 105.091,-29.7965 105.214,-28.886 105.429,-27.9894 105.738,-27.1093 106.141,-26.2481 106.639,-25.4082 107.232,-24.5918 107.919,-23.8012 108.701,-23.0385 109.575,-22.3059 110.539,-21.6054 111.591,-20.9388 112.729,-20.308 113.949,-19.7147 115.246,-19.1606 116.618,-18.6472 118.058,-18.1759 119.562,-17.7479 121.124,-17.3645 122.738,-17.0266 124.398,-16.7353 126.098,-16.4913 127.83,-16.2953 129.588,-16.1479 131.364,-16.0493 133.151,-16 134.942,-16 136.729,-16.0493"/>
<text text-anchor="middle" x="134.046" y="-31.5" font-family="Roboto" font-size="10.00">Users</text>
</g>
<!-- TheOracle1 -->
<g id="node3" class="node"><title>TheOracle1</title>
<polygon fill="#9999ff" stroke="black" points="522.546,-160 461.546,-160 461.546,-124 522.546,-124 522.546,-160"/>
<text text-anchor="middle" x="492.046" y="-139.5" font-family="Roboto" font-size="10.00">TheOracle</text>
</g>
<!-- db -->
<g id="node8" class="node"><title>db</title>
<polygon fill="#9999ff" stroke="black" points="568.046,-52 565.046,-56 544.046,-56 541.046,-52 512.046,-52 512.046,-16 568.046,-16 568.046,-52"/>
<text text-anchor="middle" x="540.046" y="-37" font-family="Roboto" font-size="10.00">piwheels</text>
<text text-anchor="middle" x="540.046" y="-26" font-family="Roboto" font-size="10.00">database</text>
</g>
<!-- TheOracle1&#45;&gt;db -->
<g id="edge4" class="edge"><title>TheOracle1&#45;&gt;db</title>
<path fill="none" stroke="black" d="M503.94,-114.735C511.241,-98.6111 520.568,-78.0155 527.913,-61.7954"/>
<polygon fill="black" stroke="black" points="500.695,-113.416 499.758,-123.969 507.072,-116.304 500.695,-113.416"/>
<polygon fill="black" stroke="black" points="531.257,-62.894 532.194,-52.3406 524.88,-60.0064 531.257,-62.894"/>
</g>
<!-- TheOracle2 -->
<g id="node4" class="node"><title>TheOracle2</title>
<polygon fill="#9999ff" stroke="black" points="619.546,-160 558.546,-160 558.546,-124 619.546,-124 619.546,-160"/>
<text text-anchor="middle" x="589.046" y="-139.5" font-family="Roboto" font-size="10.00">TheOracle</text>
</g>
<!-- TheOracle2&#45;&gt;db -->
<g id="edge5" class="edge"><title>TheOracle2&#45;&gt;db</title>
<path fill="none" stroke="black" d="M576.905,-114.735C569.451,-98.6111 559.931,-78.0155 552.433,-61.7954"/>
<polygon fill="black" stroke="black" points="573.801,-116.361 581.174,-123.969 580.155,-113.424 573.801,-116.361"/>
<polygon fill="black" stroke="black" points="555.435,-59.9491 548.062,-52.3406 549.081,-62.8863 555.435,-59.9491"/>
</g>
<!-- TheOracle3 -->
<g id="node5" class="node"><title>TheOracle3</title>
<polygon fill="#9999ff" stroke="black" points="425.546,-160 364.546,-160 364.546,-124 425.546,-124 425.546,-160"/>
<text text-anchor="middle" x="395.046" y="-139.5" font-family="Roboto" font-size="10.00">TheOracle</text>
</g>
<!-- TheOracle3&#45;&gt;db -->
<g id="edge6" class="edge"><title>TheOracle3&#45;&gt;db</title>
<path fill="none" stroke="black" d="M426.681,-117.874C450.828,-100.221 483.956,-76.0036 508.164,-58.3068"/>
<polygon fill="black" stroke="black" points="424.35,-115.242 418.343,-123.969 428.482,-120.893 424.35,-115.242"/>
<polygon fill="black" stroke="black" points="510.318,-61.0677 516.326,-52.3406 506.187,-55.4167 510.318,-61.0677"/>
</g>
<!-- TheArchitect -->
<g id="node6" class="node"><title>TheArchitect</title>
<polygon fill="#9999ff" stroke="black" points="726.546,-160 655.546,-160 655.546,-124 726.546,-124 726.546,-160"/>
<text text-anchor="middle" x="691.046" y="-139.5" font-family="Roboto" font-size="10.00">TheArchitect</text>
</g>
<!-- TheArchitect&#45;&gt;db -->
<g id="edge7" class="edge"><title>TheArchitect&#45;&gt;db</title>
<path fill="none" stroke="black" d="M658.467,-118.13C630.336,-98.3823 590.302,-70.2789 564.748,-52.3406"/>
<polygon fill="black" stroke="black" points="656.59,-121.088 666.786,-123.969 660.612,-115.359 656.59,-121.088"/>
</g>
<!-- SlaveDriver -->
<g id="node18" class="node"><title>SlaveDriver</title>
<polygon fill="#9999ff" stroke="black" points="717.546,-592 652.546,-592 652.546,-556 717.546,-556 717.546,-592"/>
<text text-anchor="middle" x="685.046" y="-571.5" font-family="Roboto" font-size="10.00">SlaveDriver</text>
</g>
<!-- TheArchitect&#45;&gt;SlaveDriver -->
<g id="edge40" class="edge"><title>TheArchitect&#45;&gt;SlaveDriver</title>
<path fill="none" stroke="black" d="M726.599,-150.993C762.611,-161.192 816.409,-182.696 841.046,-224 858.122,-252.627 845.068,-265.91 841.046,-299 828.853,-399.315 832.402,-435.479 770.046,-515 758.435,-529.807 741.99,-542.248 726.653,-551.764"/>
<polygon fill="black" stroke="black" points="724.607,-548.908 717.797,-557.024 728.182,-554.927 724.607,-548.908"/>
</g>
<!-- Seraph -->
<g id="node7" class="node"><title>Seraph</title>
<polygon fill="#9999ff" stroke="black" points="519.046,-268 465.046,-268 465.046,-232 519.046,-232 519.046,-268"/>
<text text-anchor="middle" x="492.046" y="-247.5" font-family="Roboto" font-size="10.00">Seraph</text>
</g>
<!-- Seraph&#45;&gt;TheOracle1 -->
<g id="edge1" class="edge"><title>Seraph&#45;&gt;TheOracle1</title>
<path fill="none" stroke="black" d="M492.046,-221.931C492.046,-206.187 492.046,-186.393 492.046,-170.566"/>
<polygon fill="black" stroke="black" points="488.546,-221.969 492.046,-231.969 495.546,-221.969 488.546,-221.969"/>
<polygon fill="black" stroke="black" points="495.546,-170.341 492.046,-160.341 488.546,-170.341 495.546,-170.341"/>
</g>
<!-- Seraph&#45;&gt;TheOracle2 -->
<g id="edge2" class="edge"><title>Seraph&#45;&gt;TheOracle2</title>
<path fill="none" stroke="black" d="M514.392,-224.581C529.982,-207.545 550.716,-184.887 566.376,-167.773"/>
<polygon fill="black" stroke="black" points="511.8,-222.229 507.631,-231.969 516.964,-226.955 511.8,-222.229"/>
<polygon fill="black" stroke="black" points="569.009,-170.081 573.178,-160.341 563.845,-165.355 569.009,-170.081"/>
</g>
<!-- Seraph&#45;&gt;TheOracle3 -->
<g id="edge3" class="edge"><title>Seraph&#45;&gt;TheOracle3</title>
<path fill="none" stroke="black" d="M469.701,-224.581C454.111,-207.545 433.377,-184.887 417.716,-167.773"/>
<polygon fill="black" stroke="black" points="467.129,-226.955 476.462,-231.969 472.293,-222.229 467.129,-226.955"/>
<polygon fill="black" stroke="black" points="420.248,-165.355 410.915,-160.341 415.083,-170.081 420.248,-165.355"/>
</g>
<!-- TheSecretary -->
<g id="node9" class="node"><title>TheSecretary</title>
<polygon fill="#9999ff" stroke="black" points="339.046,-484 265.046,-484 265.046,-448 339.046,-448 339.046,-484"/>
<text text-anchor="middle" x="302.046" y="-463.5" font-family="Roboto" font-size="10.00">TheSecretary</text>
</g>
<!-- TheScribe -->
<g id="node10" class="node"><title>TheScribe</title>
<polygon fill="#9999ff" stroke="black" points="339.046,-376 279.046,-376 279.046,-340 339.046,-340 339.046,-376"/>
<text text-anchor="middle" x="309.046" y="-355.5" font-family="Roboto" font-size="10.00">TheScribe</text>
</g>
<!-- TheSecretary&#45;&gt;TheScribe -->
<g id="edge8" class="edge"><title>TheSecretary&#45;&gt;TheScribe</title>
<path fill="none" stroke="black" d="M303.171,-447.969C304.267,-431.378 305.95,-405.883 307.235,-386.431"/>
<polygon fill="black" stroke="black" points="310.735,-386.55 307.901,-376.341 303.75,-386.088 310.735,-386.55"/>
</g>
<!-- TheScribe&#45;&gt;Seraph -->
<g id="edge36" class="edge"><title>TheScribe&#45;&gt;Seraph</title>
<path fill="none" stroke="black" d="M347.46,-334.749C379.442,-316.224 424.652,-290.037 455.967,-271.898"/>
<polygon fill="black" stroke="black" points="345.347,-331.928 338.448,-339.969 348.856,-337.986 345.347,-331.928"/>
<polygon fill="black" stroke="black" points="457.91,-274.818 464.808,-266.777 454.401,-268.761 457.91,-274.818"/>
</g>
<!-- fs -->
<g id="node13" class="node"><title>fs</title>
<polygon fill="#9999ff" stroke="black" points="249.546,-268 246.546,-272 225.546,-272 222.546,-268 188.546,-268 188.546,-232 249.546,-232 249.546,-268"/>
<text text-anchor="middle" x="219.046" y="-253" font-family="Roboto" font-size="10.00">www</text>
<text text-anchor="middle" x="219.046" y="-242" font-family="Roboto" font-size="10.00">filesystem</text>
</g>
<!-- TheScribe&#45;&gt;fs -->
<g id="edge9" class="edge"><title>TheScribe&#45;&gt;fs</title>
<path fill="none" stroke="black" d="M294.586,-339.969C279.912,-322.687 257.035,-295.743 240.3,-276.032"/>
<polygon fill="black" stroke="black" points="242.91,-273.698 233.769,-268.341 237.574,-278.229 242.91,-273.698"/>
</g>
<!-- FileJuggler -->
<g id="node11" class="node"><title>FileJuggler</title>
<polygon fill="#9999ff" stroke="black" points="242.546,-376 179.546,-376 179.546,-340 242.546,-340 242.546,-376"/>
<text text-anchor="middle" x="211.046" y="-355.5" font-family="Roboto" font-size="10.00">FileJuggler</text>
</g>
<!-- FileJuggler&#45;&gt;fs -->
<g id="edge10" class="edge"><title>FileJuggler&#45;&gt;fs</title>
<path fill="none" stroke="black" d="M213.089,-329.931C214.277,-314.187 215.771,-294.393 216.966,-278.566"/>
<polygon fill="black" stroke="black" points="209.594,-329.734 212.332,-339.969 216.574,-330.261 209.594,-329.734"/>
<polygon fill="black" stroke="black" points="220.475,-278.576 217.738,-268.341 213.495,-278.049 220.475,-278.576"/>
</g>
<!-- BigBrother -->
<g id="node19" class="node"><title>BigBrother</title>
<polygon fill="#9999ff" stroke="black" points="732.546,-484 671.546,-484 671.546,-448 732.546,-448 732.546,-484"/>
<text text-anchor="middle" x="702.046" y="-463.5" font-family="Roboto" font-size="10.00">BigBrother</text>
</g>
<!-- FileJuggler&#45;&gt;BigBrother -->
<g id="edge35" class="edge"><title>FileJuggler&#45;&gt;BigBrother</title>
<path fill="none" stroke="black" d="M242.598,-370.412C248.677,-372.416 255.027,-374.376 261.046,-376 406.652,-415.271 583.483,-445.932 661.61,-458.631"/>
<polygon fill="black" stroke="black" points="661.094,-462.093 671.524,-460.232 662.21,-455.182 661.094,-462.093"/>
</g>
<!-- Lumberjack -->
<g id="node12" class="node"><title>Lumberjack</title>
<polygon fill="#9999ff" stroke="black" points="301.546,-52 234.546,-52 234.546,-16 301.546,-16 301.546,-52"/>
<text text-anchor="middle" x="268.046" y="-31.5" font-family="Roboto" font-size="10.00">Lumberjack</text>
</g>
<!-- Lumberjack&#45;&gt;Seraph -->
<g id="edge44" class="edge"><title>Lumberjack&#45;&gt;Seraph</title>
<path fill="none" stroke="black" d="M279.936,-61.3462C293.153,-88.4885 316.575,-130.834 346.046,-160 378.267,-191.886 423.996,-217.399 455.655,-232.797"/>
<polygon fill="black" stroke="black" points="282.989,-59.6166 275.536,-52.0868 276.667,-62.6211 282.989,-59.6166"/>
<polygon fill="black" stroke="black" points="454.464,-236.106 464.997,-237.247 457.474,-229.787 454.464,-236.106"/>
</g>
<!-- httpd -->
<g id="node14" class="node"><title>httpd</title>
<polygon fill="#9999ff" stroke="black" points="246.046,-160 192.046,-160 192.046,-124 246.046,-124 246.046,-160"/>
<text text-anchor="middle" x="219.046" y="-139.5" font-family="Roboto" font-size="10.00">httpd</text>
</g>
<!-- fs&#45;&gt;httpd -->
<g id="edge11" class="edge"><title>fs&#45;&gt;httpd</title>
<path fill="none" stroke="black" d="M219.046,-231.969C219.046,-215.378 219.046,-189.883 219.046,-170.431"/>
<polygon fill="black" stroke="black" points="222.546,-170.341 219.046,-160.341 215.546,-170.341 222.546,-170.341"/>
</g>
<!-- httpd&#45;&gt;Users -->
<g id="edge45" class="edge"><title>httpd&#45;&gt;Users</title>
<path fill="none" stroke="black" d="M205.39,-123.969C190.936,-105.944 168.054,-77.4096 152.115,-57.5326"/>
<polygon fill="black" stroke="black" points="154.74,-55.2117 145.754,-49.5998 149.279,-59.5909 154.74,-55.2117"/>
</g>
<!-- httpd&#45;&gt;Lumberjack -->
<g id="edge12" class="edge"><title>httpd&#45;&gt;Lumberjack</title>
<path fill="none" stroke="black" d="M226.919,-123.969C234.695,-107.148 246.702,-81.1728 255.739,-61.6237"/>
<polygon fill="black" stroke="black" points="259.011,-62.8863 260.03,-52.3406 252.657,-59.9491 259.011,-62.8863"/>
</g>
<!-- CloudGazer&#45;&gt;Seraph -->
<g id="edge30" class="edge"><title>CloudGazer&#45;&gt;Seraph</title>
<path fill="none" stroke="black" d="M545.558,-549.978C533.412,-540.694 521.284,-528.869 514.046,-515 473.406,-437.128 481.159,-328.511 487.719,-278.365"/>
<polygon fill="black" stroke="black" points="543.75,-552.989 553.91,-555.993 547.841,-547.308 543.75,-552.989"/>
<polygon fill="black" stroke="black" points="491.207,-278.694 489.124,-268.306 484.274,-277.726 491.207,-278.694"/>
</g>
<!-- CloudGazer&#45;&gt;TheSecretary -->
<g id="edge31" class="edge"><title>CloudGazer&#45;&gt;TheSecretary</title>
<path fill="none" stroke="black" d="M551.278,-568.302C507.39,-561.129 427.883,-545.006 366.046,-515 352.803,-508.574 339.556,-499.242 328.578,-490.511"/>
<polygon fill="black" stroke="black" points="330.612,-487.652 320.663,-484.01 326.169,-493.061 330.612,-487.652"/>
</g>
<!-- main -->
<g id="node16" class="node"><title>main</title>
<polygon fill="#9999ff" stroke="black" points="804.046,-376 750.046,-376 750.046,-340 804.046,-340 804.046,-376"/>
<text text-anchor="middle" x="777.046" y="-355.5" font-family="Roboto" font-size="10.00">main</text>
</g>
<!-- monitor -->
<g id="node20" class="node"><title>monitor</title>
<polygon fill="#9999ff" stroke="black" points="805.046,-268 751.046,-268 751.046,-232 805.046,-232 805.046,-268"/>
<text text-anchor="middle" x="778.046" y="-247.5" font-family="Roboto" font-size="10.00">main</text>
</g>
<!-- main&#45;&gt;monitor -->
<g id="edge28" class="edge"><title>main&#45;&gt;monitor</title>
<path fill="none" stroke="black" d="M787.437,-339.969C791.253,-323.378 792.082,-297.883 789.781,-278.431"/>
<polygon fill="black" stroke="black" points="793.204,-277.669 788.18,-268.341 786.29,-278.766 793.204,-277.669"/>
</g>
<!-- MrChase -->
<g id="node17" class="node"><title>MrChase</title>
<polygon fill="#9999ff" stroke="black" points="808.546,-592 753.546,-592 753.546,-556 808.546,-556 808.546,-592"/>
<text text-anchor="middle" x="781.046" y="-571.5" font-family="Roboto" font-size="10.00">MrChase</text>
</g>
<!-- MrChase&#45;&gt;Seraph -->
<g id="edge42" class="edge"><title>MrChase&#45;&gt;Seraph</title>
<path fill="none" stroke="black" d="M743.758,-559.122C711.188,-546.466 666.997,-527.838 653.046,-515 584.529,-451.948 601.216,-410.443 551.046,-332 538.787,-312.832 523.656,-292.109 511.786,-276.422"/>
<polygon fill="black" stroke="black" points="742.857,-562.525 753.447,-562.844 745.368,-555.99 742.857,-562.525"/>
<polygon fill="black" stroke="black" points="514.413,-274.096 505.566,-268.267 508.848,-278.341 514.413,-274.096"/>
</g>
<!-- MrChase&#45;&gt;TheSecretary -->
<g id="edge16" class="edge"><title>MrChase&#45;&gt;TheSecretary</title>
<path fill="none" stroke="black" d="M753.161,-561.465C747.26,-559.374 741.012,-557.411 735.046,-556 574.47,-518.008 519.463,-575.757 366.046,-515 351.915,-509.403 338.169,-499.82 327.063,-490.681"/>
<polygon fill="black" stroke="black" points="329.342,-488.025 319.474,-484.168 324.783,-493.337 329.342,-488.025"/>
</g>
<!-- MrChase&#45;&gt;FileJuggler -->
<g id="edge41" class="edge"><title>MrChase&#45;&gt;FileJuggler</title>
<path fill="none" stroke="black" d="M743.941,-558.991C740.942,-557.949 737.95,-556.94 735.046,-556 670.515,-535.115 652.166,-537.118 588.046,-515 463.337,-471.981 320.55,-408.991 251.991,-377.855"/>
<polygon fill="black" stroke="black" points="742.85,-562.318 753.444,-562.382 745.202,-555.725 742.85,-562.318"/>
<polygon fill="black" stroke="black" points="253.371,-374.638 242.82,-373.679 250.47,-381.008 253.371,-374.638"/>
</g>
<!-- MrChase&#45;&gt;main -->
<g id="edge15" class="edge"><title>MrChase&#45;&gt;main</title>
<path fill="none" stroke="black" d="M781.048,-555.607C781.019,-531.458 780.847,-486.404 780.046,-448 779.614,-427.264 778.811,-403.819 778.144,-386.2"/>
<polygon fill="black" stroke="black" points="781.636,-385.915 777.752,-376.058 774.641,-386.186 781.636,-385.915"/>
</g>
<!-- MrChase&#45;&gt;BigBrother -->
<g id="edge43" class="edge"><title>MrChase&#45;&gt;BigBrother</title>
<path fill="none" stroke="black" d="M768.354,-555.969C755.588,-538.84 735.749,-512.221 721.095,-492.559"/>
<polygon fill="black" stroke="black" points="723.752,-490.267 714.97,-484.341 718.139,-494.45 723.752,-490.267"/>
</g>
<!-- SlaveDriver&#45;&gt;Seraph -->
<g id="edge39" class="edge"><title>SlaveDriver&#45;&gt;Seraph</title>
<path fill="none" stroke="black" d="M643.178,-555.895C624.136,-546.307 602.649,-532.682 588.046,-515 556.991,-477.398 515.869,-337.427 499.361,-277.98"/>
<polygon fill="black" stroke="black" points="641.76,-559.097 652.288,-560.278 644.794,-552.789 641.76,-559.097"/>
<polygon fill="black" stroke="black" points="502.693,-276.894 496.662,-268.183 495.944,-278.754 502.693,-276.894"/>
</g>
<!-- SlaveDriver&#45;&gt;TheSecretary -->
<g id="edge33" class="edge"><title>SlaveDriver&#45;&gt;TheSecretary</title>
<path fill="none" stroke="black" d="M652.363,-561.195C646.325,-559.275 640.034,-557.445 634.046,-556 516.911,-527.735 477.141,-561.663 366.046,-515 352.271,-509.214 338.771,-499.814 327.748,-490.86"/>
<polygon fill="black" stroke="black" points="329.733,-487.954 319.838,-484.167 325.211,-493.298 329.733,-487.954"/>
</g>
<!-- SlaveDriver&#45;&gt;FileJuggler -->
<g id="edge38" class="edge"><title>SlaveDriver&#45;&gt;FileJuggler</title>
<path fill="none" stroke="black" d="M642.644,-558.104C639.753,-557.325 636.868,-556.612 634.046,-556 549.531,-537.664 311.79,-572.334 247.046,-515 210.65,-482.77 207.183,-421.76 208.638,-386.342"/>
<polygon fill="black" stroke="black" points="641.835,-561.515 652.416,-560.966 643.802,-554.797 641.835,-561.515"/>
<polygon fill="black" stroke="black" points="212.14,-386.415 209.217,-376.231 205.151,-386.015 212.14,-386.415"/>
</g>
<!-- SlaveDriver&#45;&gt;main -->
<g id="edge14" class="edge"><title>SlaveDriver&#45;&gt;main</title>
<path fill="none" stroke="black" d="M711.48,-555.965C725.158,-545.744 740.87,-531.529 750.046,-515 772.701,-474.194 777.181,-418.887 777.63,-386.269"/>
<polygon fill="black" stroke="black" points="781.13,-386.136 777.648,-376.13 774.13,-386.124 781.13,-386.136"/>
</g>
<!-- SlaveDriver&#45;&gt;BigBrother -->
<g id="edge34" class="edge"><title>SlaveDriver&#45;&gt;BigBrother</title>
<path fill="none" stroke="black" d="M687.778,-555.969C690.439,-539.378 694.527,-513.883 697.647,-494.431"/>
<polygon fill="black" stroke="black" points="701.137,-494.769 699.265,-484.341 694.226,-493.66 701.137,-494.769"/>
</g>
<!-- BigBrother&#45;&gt;Seraph -->
<g id="edge37" class="edge"><title>BigBrother&#45;&gt;Seraph</title>
<path fill="none" stroke="black" d="M695.933,-437.976C688.155,-408.816 672.222,-362.476 644.046,-332 612.269,-297.628 562.516,-275.004 528.655,-262.614"/>
<polygon fill="black" stroke="black" points="692.593,-439.043 698.437,-447.88 699.379,-437.327 692.593,-439.043"/>
<polygon fill="black" stroke="black" points="529.72,-259.278 519.125,-259.242 527.385,-265.877 529.72,-259.278"/>
</g>
<!-- BigBrother&#45;&gt;TheSecretary -->
<g id="edge32" class="edge"><title>BigBrother&#45;&gt;TheSecretary</title>
<path fill="none" stroke="black" d="M671.215,-466C563.879,-466 456.544,-466 349.208,-466"/>
<polygon fill="black" stroke="black" points="349.156,-462.5 339.156,-466 349.156,-469.5 349.156,-462.5"/>
</g>
<!-- BigBrother&#45;&gt;main -->
<g id="edge13" class="edge"><title>BigBrother&#45;&gt;main</title>
<path fill="none" stroke="black" d="M714.096,-447.969C726.216,-430.84 745.05,-404.221 758.962,-384.559"/>
<polygon fill="black" stroke="black" points="761.858,-386.525 764.777,-376.341 756.144,-382.482 761.858,-386.525"/>
</g>
<!-- monitor&#45;&gt;main -->
<g id="edge29" class="edge"><title>monitor&#45;&gt;main</title>
<path fill="none" stroke="black" d="M767.585,-268.341C763.806,-285.042 763.015,-310.554 765.355,-329.931"/>
<polygon fill="black" stroke="black" points="761.926,-330.656 766.977,-339.969 768.837,-329.539 761.926,-330.656"/>
</g>
<!-- Slave1&#45;&gt;FileJuggler -->
<g id="edge22" class="edge"><title>Slave1&#45;&gt;FileJuggler</title>
<path fill="none" stroke="black" d="M284.589,-679.149C213.948,-674.789 65.316,-661.195 34.0463,-623 -15.2238,-562.818 -6.7692,-514.208 34.0463,-448 63.4558,-400.294 127.131,-377.261 169.54,-366.82"/>
<polygon fill="black" stroke="black" points="284.637,-682.657 294.825,-679.749 285.047,-675.669 284.637,-682.657"/>
<polygon fill="black" stroke="black" points="170.356,-370.224 179.301,-364.545 168.767,-363.406 170.356,-370.224"/>
</g>
<!-- Slave1&#45;&gt;SlaveDriver -->
<g id="edge20" class="edge"><title>Slave1&#45;&gt;SlaveDriver</title>
<path fill="none" stroke="black" d="M356.755,-659.289C359.502,-658.047 362.284,-656.929 365.046,-656 479.218,-617.613 524.995,-674.151 634.046,-623 645.626,-617.569 656.299,-608.497 664.857,-599.693"/>
<polygon fill="black" stroke="black" points="354.977,-656.265 347.622,-663.891 358.127,-662.517 354.977,-656.265"/>
<polygon fill="black" stroke="black" points="667.621,-601.859 671.802,-592.124 662.463,-597.126 667.621,-601.859"/>
</g>
<!-- Slave2&#45;&gt;FileJuggler -->
<g id="edge23" class="edge"><title>Slave2&#45;&gt;FileJuggler</title>
<path fill="none" stroke="black" d="M377.334,-659.301C374.587,-658.056 371.807,-656.934 369.046,-656 313.667,-637.266 146.705,-666.855 108.046,-623 56.614,-564.655 75.6871,-518.727 108.046,-448 120.95,-419.797 147.691,-397.121 170.693,-381.717"/>
<polygon fill="black" stroke="black" points="375.96,-662.528 386.465,-663.908 379.114,-656.278 375.96,-662.528"/>
<polygon fill="black" stroke="black" points="172.782,-384.535 179.288,-376.173 168.987,-378.652 172.782,-384.535"/>
</g>
<!-- Slave2&#45;&gt;SlaveDriver -->
<g id="edge21" class="edge"><title>Slave2&#45;&gt;SlaveDriver</title>
<path fill="none" stroke="black" d="M445.879,-659.101C448.259,-657.958 450.66,-656.909 453.046,-656 529.461,-626.892 561.058,-659.867 634.046,-623 645.294,-617.318 655.794,-608.37 664.308,-599.731"/>
<polygon fill="black" stroke="black" points="444.079,-656.094 436.89,-663.875 447.363,-662.276 444.079,-656.094"/>
<polygon fill="black" stroke="black" points="666.974,-602.004 671.247,-592.309 661.861,-597.223 666.974,-602.004"/>
</g>
<!-- Importer -->
<g id="node23" class="node"><title>Importer</title>
<polygon fill="#9999ff" stroke="black" points="529.046,-700 475.046,-700 475.046,-664 529.046,-664 529.046,-700"/>
<text text-anchor="middle" x="502.046" y="-679.5" font-family="Roboto" font-size="10.00">main</text>
</g>
<!-- Importer&#45;&gt;FileJuggler -->
<g id="edge25" class="edge"><title>Importer&#45;&gt;FileJuggler</title>
<path fill="none" stroke="black" d="M465.89,-659.904C463.577,-658.578 461.281,-657.267 459.046,-656 346.394,-592.117 269.833,-626.551 204.046,-515 180.559,-475.175 191.472,-419.178 201.375,-386.231"/>
<polygon fill="black" stroke="black" points="464.389,-663.079 474.8,-665.041 467.885,-657.014 464.389,-663.079"/>
<polygon fill="black" stroke="black" points="204.809,-386.985 204.51,-376.394 198.139,-384.859 204.809,-386.985"/>
</g>
<!-- Importer&#45;&gt;MrChase -->
<g id="edge24" class="edge"><title>Importer&#45;&gt;MrChase</title>
<path fill="none" stroke="black" d="M539.493,-674.307C596.504,-663.682 701.943,-642.188 735.046,-623 745.187,-617.122 754.52,-608.355 762.091,-599.915"/>
<polygon fill="black" stroke="black" points="538.639,-670.906 529.44,-676.162 539.909,-677.79 538.639,-670.906"/>
<polygon fill="black" stroke="black" points="764.981,-601.92 768.779,-592.029 759.642,-597.392 764.981,-601.92"/>
</g>
<!-- Rebuild -->
<g id="node24" class="node"><title>Rebuild</title>
<polygon fill="#9999ff" stroke="black" points="723.046,-700 669.046,-700 669.046,-664 723.046,-664 723.046,-700"/>
<text text-anchor="middle" x="696.046" y="-679.5" font-family="Roboto" font-size="10.00">main</text>
</g>
<!-- Rebuild&#45;&gt;MrChase -->
<g id="edge26" class="edge"><title>Rebuild&#45;&gt;MrChase</title>
<path fill="none" stroke="black" d="M716.047,-656.058C729.555,-639.213 747.323,-617.054 760.868,-600.163"/>
<polygon fill="black" stroke="black" points="713.228,-653.978 709.703,-663.969 718.69,-658.357 713.228,-653.978"/>
<polygon fill="black" stroke="black" points="763.616,-602.332 767.141,-592.341 758.155,-597.953 763.616,-602.332"/>
</g>
<!-- Remove -->
<g id="node25" class="node"><title>Remove</title>
<polygon fill="#9999ff" stroke="black" points="813.046,-700 759.046,-700 759.046,-664 813.046,-664 813.046,-700"/>
<text text-anchor="middle" x="786.046" y="-679.5" font-family="Roboto" font-size="10.00">main</text>
</g>
<!-- Remove&#45;&gt;MrChase -->
<g id="edge27" class="edge"><title>Remove&#45;&gt;MrChase</title>
<path fill="none" stroke="black" d="M784.769,-653.931C784.027,-638.187 783.093,-618.393 782.347,-602.566"/>
<polygon fill="black" stroke="black" points="781.276,-654.145 785.243,-663.969 788.268,-653.815 781.276,-654.145"/>
<polygon fill="black" stroke="black" points="785.832,-602.165 781.864,-592.341 778.839,-602.494 785.832,-602.165"/>
</g>
</g>
</svg>
