<?xml version="1.0" encoding="UTF-8" standalone="no"?>
<!DOCTYPE svg PUBLIC "-//W3C//DTD SVG 1.1//EN"
 "http://www.w3.org/Graphics/SVG/1.1/DTD/svg11.dtd">
<!-- Generated by graphviz version 2.38.0 (20140413.2041)
 -->
<!-- Title: piwheels Pages: 1 -->
<svg width="840pt" height="816pt"
 viewBox="0.00 0.00 839.84 816.00" xmlns="http://www.w3.org/2000/svg" xmlns:xlink="http://www.w3.org/1999/xlink">
<g id="graph0" class="graph" transform="scale(1 1) rotate(0) translate(4 812)">
<title>piwheels</title>
<polygon fill="white" stroke="none" points="-4,4 -4,-812 835.839,-812 835.839,4 -4,4"/>
<g id="clust1" class="cluster"><title>cluster_db_server</title>
<polygon fill="#cccccc" stroke="black" points="444.839,-8 444.839,-299 823.839,-299 823.839,-8 444.839,-8"/>
<text text-anchor="middle" x="634.339" y="-283.8" font-family="Roboto" font-size="14.00">piw&#45;master (db)</text>
</g>
<g id="clust2" class="cluster"><title>cluster_file_server</title>
<polygon fill="#cccccc" stroke="black" points="160.839,-8 160.839,-515 336.839,-515 336.839,-8 160.839,-8"/>
<text text-anchor="middle" x="248.839" y="-499.8" font-family="Roboto" font-size="14.00">piw&#45;master (fs)</text>
</g>
<g id="clust3" class="cluster"><title>cluster_master</title>
<polygon fill="#cccccc" stroke="black" points="366.839,-332 366.839,-623 573.839,-623 573.839,-332 366.839,-332"/>
<text text-anchor="middle" x="470.339" y="-607.8" font-family="Roboto" font-size="14.00">piw&#45;master (core)</text>
</g>
<g id="clust4" class="cluster"><title>cluster_monitor</title>
<polygon fill="#cccccc" stroke="black" points="344.839,-224 344.839,-299 436.839,-299 436.839,-224 344.839,-224"/>
<text text-anchor="middle" x="390.839" y="-283.8" font-family="Roboto" font-size="14.00">piw&#45;monitor</text>
</g>
<g id="clust5" class="cluster"><title>cluster_slave1</title>
<polygon fill="#cccccc" stroke="black" points="291.839,-656 291.839,-731 367.839,-731 367.839,-656 291.839,-656"/>
<text text-anchor="middle" x="329.839" y="-715.8" font-family="Roboto" font-size="14.00">piw&#45;slave</text>
</g>
<g id="clust6" class="cluster"><title>cluster_slave2</title>
<polygon fill="#cccccc" stroke="black" points="381.839,-656 381.839,-731 457.839,-731 457.839,-656 381.839,-656"/>
<text text-anchor="middle" x="419.839" y="-715.8" font-family="Roboto" font-size="14.00">piw&#45;slave</text>
</g>
<g id="clust7" class="cluster"><title>cluster_import</title>
<polygon fill="#cccccc" stroke="black" points="201.839,-548 201.839,-623 286.839,-623 286.839,-548 201.839,-548"/>
<text text-anchor="middle" x="244.339" y="-607.8" font-family="Roboto" font-size="14.00">piw&#45;import</text>
</g>
<!-- PyPI -->
<g id="node1" class="node"><title>PyPI</title>
<polygon fill="#9999ff" stroke="black" points="422.522,-772.049 424.298,-772.148 426.055,-772.295 427.788,-772.491 429.487,-772.735 431.147,-773.027 432.762,-773.364 434.324,-773.748 435.828,-774.176 437.268,-774.647 438.639,-775.161 439.937,-775.715 441.156,-776.308 442.294,-776.939 443.346,-777.605 444.311,-778.306 445.185,-779.039 445.966,-779.801 446.654,-780.592 447.247,-781.408 447.745,-782.248 448.148,-783.109 448.456,-783.989 448.672,-784.886 448.795,-785.797 448.828,-786.719 448.773,-787.65 448.633,-788.587 448.41,-789.529 448.108,-790.471 447.729,-791.413 447.278,-792.35 446.757,-793.281 446.172,-794.203 445.524,-795.114 444.82,-796.011 444.062,-796.891 443.254,-797.752 442.4,-798.592 441.505,-799.408 440.571,-800.199 439.603,-800.961 438.603,-801.694 437.576,-802.395 436.523,-803.061 435.449,-803.692 434.355,-804.285 433.244,-804.839 432.119,-805.353 430.981,-805.824 429.833,-806.252 428.676,-806.636 427.511,-806.973 426.34,-807.265 425.164,-807.509 423.985,-807.705 422.802,-807.852 421.618,-807.951 420.432,-808 419.246,-808 418.061,-807.951 416.876,-807.852 415.694,-807.705 414.514,-807.509 413.338,-807.265 412.167,-806.973 411.003,-806.636 409.845,-806.252 408.697,-805.824 407.559,-805.353 406.434,-804.839 405.323,-804.285 404.229,-803.692 403.155,-803.061 402.102,-802.395 401.075,-801.694 400.075,-800.961 399.107,-800.199 398.173,-799.408 397.278,-798.592 396.424,-797.752 395.617,-796.891 394.858,-796.011 394.154,-795.114 393.507,-794.203 392.921,-793.281 392.4,-792.35 391.949,-791.413 391.57,-790.471 391.268,-789.529 391.045,-788.587 390.905,-787.65 390.85,-786.719 390.883,-785.797 391.007,-784.886 391.222,-783.989 391.531,-783.109 391.934,-782.248 392.432,-781.408 393.025,-780.592 393.712,-779.801 394.494,-779.039 395.367,-778.306 396.332,-777.605 397.384,-776.939 398.522,-776.308 399.741,-775.715 401.039,-775.161 402.41,-774.647 403.851,-774.176 405.354,-773.748 406.917,-773.364 408.531,-773.027 410.191,-772.735 411.891,-772.491 413.623,-772.295 415.38,-772.148 417.157,-772.049 418.944,-772 420.735,-772 422.522,-772.049"/>
<text text-anchor="middle" x="419.839" y="-787.5" font-family="Roboto" font-size="10.00">PyPI</text>
</g>
<!-- CloudGazer -->
<g id="node15" class="node"><title>CloudGazer</title>
<polygon fill="#9999ff" stroke="black" points="553.339,-592 488.339,-592 488.339,-556 553.339,-556 553.339,-592"/>
<text text-anchor="middle" x="520.839" y="-571.5" font-family="Roboto" font-size="10.00">CloudGazer</text>
</g>
<!-- PyPI&#45;&gt;CloudGazer -->
<g id="edge17" class="edge"><title>PyPI&#45;&gt;CloudGazer</title>
<path fill="none" stroke="black" d="M435.054,-773.357C445.174,-762.267 458.153,-746.634 466.839,-731 490.35,-688.684 506.344,-634.297 514.505,-602.189"/>
<polygon fill="black" stroke="black" points="517.971,-602.751 516.972,-592.204 511.176,-601.072 517.971,-602.751"/>
</g>
<!-- Slave1 -->
<g id="node21" class="node"><title>Slave1</title>
<polygon fill="#9999ff" stroke="black" points="356.839,-700 302.839,-700 302.839,-664 356.839,-664 356.839,-700"/>
<text text-anchor="middle" x="329.839" y="-679.5" font-family="Roboto" font-size="10.00">main</text>
</g>
<!-- PyPI&#45;&gt;Slave1 -->
<g id="edge18" class="edge"><title>PyPI&#45;&gt;Slave1</title>
<path fill="none" stroke="black" d="M406.559,-773.359C391.948,-756.15 368.258,-728.249 351.064,-707.998"/>
<polygon fill="black" stroke="black" points="353.508,-705.469 344.368,-700.112 348.172,-710 353.508,-705.469"/>
</g>
<!-- Slave2 -->
<g id="node22" class="node"><title>Slave2</title>
<polygon fill="#9999ff" stroke="black" points="446.839,-700 392.839,-700 392.839,-664 446.839,-664 446.839,-700"/>
<text text-anchor="middle" x="419.839" y="-679.5" font-family="Roboto" font-size="10.00">main</text>
</g>
<!-- PyPI&#45;&gt;Slave2 -->
<g id="edge19" class="edge"><title>PyPI&#45;&gt;Slave2</title>
<path fill="none" stroke="black" d="M419.839,-771.969C419.839,-755.378 419.839,-729.883 419.839,-710.431"/>
<polygon fill="black" stroke="black" points="423.339,-710.341 419.839,-700.341 416.339,-710.341 423.339,-710.341"/>
</g>
<!-- Users -->
<g id="node2" class="node"><title>Users</title>
<polygon fill="#9999ff" stroke="black" points="126.522,-16.0493 128.298,-16.1479 130.055,-16.2953 131.788,-16.4913 133.487,-16.7353 135.147,-17.0266 136.762,-17.3645 138.324,-17.7479 139.828,-18.1759 141.268,-18.6472 142.639,-19.1606 143.937,-19.7147 145.156,-20.308 146.294,-20.9388 147.346,-21.6054 148.311,-22.3059 149.185,-23.0385 149.966,-23.8012 150.654,-24.5918 151.247,-25.4082 151.745,-26.2481 152.148,-27.1093 152.456,-27.9894 152.672,-28.886 152.795,-29.7965 152.828,-30.7186 152.773,-31.6497 152.633,-32.5873 152.41,-33.5287 152.108,-34.4713 151.729,-35.4127 151.278,-36.3503 150.757,-37.2814 150.172,-38.2035 149.524,-39.114 148.82,-40.0106 148.062,-40.8907 147.254,-41.7519 146.4,-42.5918 145.505,-43.4082 144.571,-44.1988 143.603,-44.9615 142.603,-45.6941 141.576,-46.3946 140.523,-47.0612 139.449,-47.692 138.355,-48.2853 137.244,-48.8394 136.119,-49.3528 134.981,-49.8241 133.833,-50.2521 132.676,-50.6355 131.511,-50.9734 130.34,-51.2647 129.164,-51.5087 127.985,-51.7047 126.802,-51.8521 125.618,-51.9507 124.432,-52 123.246,-52 122.061,-51.9507 120.876,-51.8521 119.694,-51.7047 118.514,-51.5087 117.338,-51.2647 116.167,-50.9734 115.003,-50.6355 113.845,-50.2521 112.697,-49.8241 111.559,-49.3528 110.434,-48.8394 109.323,-48.2853 108.229,-47.692 107.155,-47.0612 106.102,-46.3946 105.075,-45.6941 104.075,-44.9615 103.107,-44.1988 102.173,-43.4082 101.278,-42.5918 100.424,-41.7519 99.6166,-40.8907 98.8584,-40.0106 98.1538,-39.114 97.5067,-38.2035 96.9209,-37.2814 96.4005,-36.3503 95.9491,-35.4127 95.5704,-34.4713 95.268,-33.5287 95.0451,-32.5873 94.9049,-31.6497 94.8501,-30.7186 94.8833,-29.7965 95.0066,-28.886 95.2219,-27.9894 95.5306,-27.1093 95.9336,-26.2481 96.4315,-25.4082 97.0245,-24.5918 97.7122,-23.8012 98.4936,-23.0385 99.3674,-22.3059 100.332,-21.6054 101.384,-20.9388 102.522,-20.308 103.741,-19.7147 105.039,-19.1606 106.41,-18.6472 107.851,-18.1759 109.354,-17.7479 110.917,-17.3645 112.531,-17.0266 114.191,-16.7353 115.891,-16.4913 117.623,-16.2953 119.38,-16.1479 121.157,-16.0493 122.944,-16 124.735,-16 126.522,-16.0493"/>
<text text-anchor="middle" x="123.839" y="-31.5" font-family="Roboto" font-size="10.00">Users</text>
</g>
<!-- TheOracle1 -->
<g id="node3" class="node"><title>TheOracle1</title>
<polygon fill="#9999ff" stroke="black" points="514.339,-160 453.339,-160 453.339,-124 514.339,-124 514.339,-160"/>
<text text-anchor="middle" x="483.839" y="-139.5" font-family="Roboto" font-size="10.00">TheOracle</text>
</g>
<!-- db -->
<g id="node8" class="node"><title>db</title>
<polygon fill="#9999ff" stroke="black" points="656.839,-52 653.839,-56 632.839,-56 629.839,-52 600.839,-52 600.839,-16 656.839,-16 656.839,-52"/>
<text text-anchor="middle" x="628.839" y="-37" font-family="Roboto" font-size="10.00">piwheels</text>
<text text-anchor="middle" x="628.839" y="-26" font-family="Roboto" font-size="10.00">database</text>
</g>
<!-- TheOracle1&#45;&gt;db -->
<g id="edge4" class="edge"><title>TheOracle1&#45;&gt;db</title>
<path fill="none" stroke="black" d="M515.474,-117.874C539.621,-100.221 572.749,-76.0036 596.957,-58.3068"/>
<polygon fill="black" stroke="black" points="513.143,-115.242 507.136,-123.969 517.274,-120.893 513.143,-115.242"/>
<polygon fill="black" stroke="black" points="599.111,-61.0677 605.118,-52.3406 594.98,-55.4167 599.111,-61.0677"/>
</g>
<!-- TheOracle2 -->
<g id="node4" class="node"><title>TheOracle2</title>
<polygon fill="#9999ff" stroke="black" points="611.339,-160 550.339,-160 550.339,-124 611.339,-124 611.339,-160"/>
<text text-anchor="middle" x="580.839" y="-139.5" font-family="Roboto" font-size="10.00">TheOracle</text>
</g>
<!-- TheOracle2&#45;&gt;db -->
<g id="edge5" class="edge"><title>TheOracle2&#45;&gt;db</title>
<path fill="none" stroke="black" d="M592.733,-114.735C600.034,-98.6111 609.36,-78.0155 616.705,-61.7954"/>
<polygon fill="black" stroke="black" points="589.488,-113.416 588.551,-123.969 595.865,-116.304 589.488,-113.416"/>
<polygon fill="black" stroke="black" points="620.05,-62.894 620.987,-52.3406 613.673,-60.0064 620.05,-62.894"/>
</g>
<!-- TheOracle3 -->
<g id="node5" class="node"><title>TheOracle3</title>
<polygon fill="#9999ff" stroke="black" points="708.339,-160 647.339,-160 647.339,-124 708.339,-124 708.339,-160"/>
<text text-anchor="middle" x="677.839" y="-139.5" font-family="Roboto" font-size="10.00">TheOracle</text>
</g>
<!-- TheOracle3&#45;&gt;db -->
<g id="edge6" class="edge"><title>TheOracle3&#45;&gt;db</title>
<path fill="none" stroke="black" d="M665.698,-114.735C658.244,-98.6111 648.724,-78.0155 641.226,-61.7954"/>
<polygon fill="black" stroke="black" points="662.593,-116.361 669.966,-123.969 668.947,-113.424 662.593,-116.361"/>
<polygon fill="black" stroke="black" points="644.228,-59.9491 636.855,-52.3406 637.874,-62.8863 644.228,-59.9491"/>
</g>
<!-- TheArchitect -->
<g id="node6" class="node"><title>TheArchitect</title>
<polygon fill="#9999ff" stroke="black" points="815.339,-160 744.339,-160 744.339,-124 815.339,-124 815.339,-160"/>
<text text-anchor="middle" x="779.839" y="-139.5" font-family="Roboto" font-size="10.00">TheArchitect</text>
</g>
<!-- TheArchitect&#45;&gt;db -->
<g id="edge7" class="edge"><title>TheArchitect&#45;&gt;db</title>
<path fill="none" stroke="black" d="M747.26,-118.13C719.129,-98.3823 679.095,-70.2789 653.541,-52.3406"/>
<polygon fill="black" stroke="black" points="745.383,-121.088 755.578,-123.969 749.405,-115.359 745.383,-121.088"/>
</g>
<!-- SlaveDriver -->
<g id="node18" class="node"><title>SlaveDriver</title>
<polygon fill="#9999ff" stroke="black" points="452.339,-592 387.339,-592 387.339,-556 452.339,-556 452.339,-592"/>
<text text-anchor="middle" x="419.839" y="-571.5" font-family="Roboto" font-size="10.00">SlaveDriver</text>
</g>
<!-- TheArchitect&#45;&gt;SlaveDriver -->
<g id="edge38" class="edge"><title>TheArchitect&#45;&gt;SlaveDriver</title>
<path fill="none" stroke="black" d="M776.934,-160.244C765.993,-219.602 721.626,-417.19 601.839,-515 554.998,-553.247 526.555,-527.019 469.839,-548 466.79,-549.128 463.682,-550.389 460.584,-551.729"/>
<polygon fill="black" stroke="black" points="459.027,-548.592 451.385,-555.93 461.935,-554.959 459.027,-548.592"/>
</g>
<!-- Seraph -->
<g id="node7" class="node"><title>Seraph</title>
<polygon fill="#9999ff" stroke="black" points="584.839,-268 530.839,-268 530.839,-232 584.839,-232 584.839,-268"/>
<text text-anchor="middle" x="557.839" y="-247.5" font-family="Roboto" font-size="10.00">Seraph</text>
</g>
<!-- Seraph&#45;&gt;TheOracle1 -->
<g id="edge1" class="edge"><title>Seraph&#45;&gt;TheOracle1</title>
<path fill="none" stroke="black" d="M540.059,-223.531C528.435,-206.881 513.308,-185.212 501.674,-168.547"/>
<polygon fill="black" stroke="black" points="537.356,-225.773 545.95,-231.969 543.095,-221.766 537.356,-225.773"/>
<polygon fill="black" stroke="black" points="504.539,-166.537 495.945,-160.341 498.799,-170.544 504.539,-166.537"/>
</g>
<!-- Seraph&#45;&gt;TheOracle2 -->
<g id="edge2" class="edge"><title>Seraph&#45;&gt;TheOracle2</title>
<path fill="none" stroke="black" d="M563.713,-221.931C567.129,-206.187 571.424,-186.393 574.858,-170.566"/>
<polygon fill="black" stroke="black" points="560.235,-221.454 561.534,-231.969 567.075,-222.939 560.235,-221.454"/>
<polygon fill="black" stroke="black" points="578.376,-170.855 577.077,-160.341 571.536,-169.371 578.376,-170.855"/>
</g>
<!-- Seraph&#45;&gt;TheOracle3 -->
<g id="edge3" class="edge"><title>Seraph&#45;&gt;TheOracle3</title>
<path fill="none" stroke="black" d="M584.895,-225.101C604.481,-207.8 630.855,-184.503 650.504,-167.146"/>
<polygon fill="black" stroke="black" points="582.297,-222.726 577.119,-231.969 586.931,-227.972 582.297,-222.726"/>
<polygon fill="black" stroke="black" points="653.031,-169.584 658.208,-160.341 648.396,-164.338 653.031,-169.584"/>
</g>
<!-- TheSecretary -->
<g id="node9" class="node"><title>TheSecretary</title>
<polygon fill="#9999ff" stroke="black" points="264.839,-484 190.839,-484 190.839,-448 264.839,-448 264.839,-484"/>
<text text-anchor="middle" x="227.839" y="-463.5" font-family="Roboto" font-size="10.00">TheSecretary</text>
</g>
<!-- TheScribe -->
<g id="node10" class="node"><title>TheScribe</title>
<polygon fill="#9999ff" stroke="black" points="328.839,-376 268.839,-376 268.839,-340 328.839,-340 328.839,-376"/>
<text text-anchor="middle" x="298.839" y="-355.5" font-family="Roboto" font-size="10.00">TheScribe</text>
</g>
<!-- TheSecretary&#45;&gt;TheScribe -->
<g id="edge8" class="edge"><title>TheSecretary&#45;&gt;TheScribe</title>
<path fill="none" stroke="black" d="M239.246,-447.969C250.668,-430.917 268.39,-404.459 281.542,-384.824"/>
<polygon fill="black" stroke="black" points="284.567,-386.597 287.224,-376.341 278.751,-382.701 284.567,-386.597"/>
</g>
<!-- TheScribe&#45;&gt;Seraph -->
<g id="edge34" class="edge"><title>TheScribe&#45;&gt;Seraph</title>
<path fill="none" stroke="black" d="M338.371,-339.98C344.857,-337.265 351.522,-334.522 357.839,-332 396.633,-316.515 407.077,-314.565 445.839,-299 471.319,-288.769 499.752,-276.574 521.594,-267.036"/>
<polygon fill="black" stroke="black" points="336.91,-336.797 329.056,-343.908 339.631,-343.247 336.91,-336.797"/>
<polygon fill="black" stroke="black" points="523.072,-270.21 530.827,-262.991 520.263,-263.798 523.072,-270.21"/>
</g>
<!-- fs -->
<g id="node13" class="node"><title>fs</title>
<polygon fill="#9999ff" stroke="black" points="241.339,-268 238.339,-272 217.339,-272 214.339,-268 180.339,-268 180.339,-232 241.339,-232 241.339,-268"/>
<text text-anchor="middle" x="210.839" y="-253" font-family="Roboto" font-size="10.00">www</text>
<text text-anchor="middle" x="210.839" y="-242" font-family="Roboto" font-size="10.00">filesystem</text>
</g>
<!-- TheScribe&#45;&gt;fs -->
<g id="edge9" class="edge"><title>TheScribe&#45;&gt;fs</title>
<path fill="none" stroke="black" d="M284.7,-339.969C270.416,-322.764 248.183,-295.982 231.839,-276.295"/>
<polygon fill="black" stroke="black" points="234.316,-273.799 225.235,-268.341 228.93,-278.27 234.316,-273.799"/>
</g>
<!-- FileJuggler -->
<g id="node11" class="node"><title>FileJuggler</title>
<polygon fill="#9999ff" stroke="black" points="232.339,-376 169.339,-376 169.339,-340 232.339,-340 232.339,-376"/>
<text text-anchor="middle" x="200.839" y="-355.5" font-family="Roboto" font-size="10.00">FileJuggler</text>
</g>
<!-- FileJuggler&#45;&gt;fs -->
<g id="edge10" class="edge"><title>FileJuggler&#45;&gt;fs</title>
<path fill="none" stroke="black" d="M203.393,-329.931C204.878,-314.187 206.745,-294.393 208.239,-278.566"/>
<polygon fill="black" stroke="black" points="199.901,-329.685 202.446,-339.969 206.87,-330.342 199.901,-329.685"/>
<polygon fill="black" stroke="black" points="211.748,-278.625 209.203,-268.341 204.779,-277.968 211.748,-278.625"/>
</g>
<!-- BigBrother -->
<g id="node19" class="node"><title>BigBrother</title>
<polygon fill="#9999ff" stroke="black" points="527.339,-484 466.339,-484 466.339,-448 527.339,-448 527.339,-484"/>
<text text-anchor="middle" x="496.839" y="-463.5" font-family="Roboto" font-size="10.00">BigBrother</text>
</g>
<!-- FileJuggler&#45;&gt;BigBrother -->
<g id="edge33" class="edge"><title>FileJuggler&#45;&gt;BigBrother</title>
<path fill="none" stroke="black" d="M232.573,-370.364C286.845,-389.799 397.371,-429.38 456.838,-450.675"/>
<polygon fill="black" stroke="black" points="455.682,-453.979 466.277,-454.055 458.042,-447.389 455.682,-453.979"/>
</g>
<!-- Lumberjack -->
<g id="node12" class="node"><title>Lumberjack</title>
<polygon fill="#9999ff" stroke="black" points="291.339,-52 224.339,-52 224.339,-16 291.339,-16 291.339,-52"/>
<text text-anchor="middle" x="257.839" y="-31.5" font-family="Roboto" font-size="10.00">Lumberjack</text>
</g>
<!-- Lumberjack&#45;&gt;Seraph -->
<g id="edge41" class="edge"><title>Lumberjack&#45;&gt;Seraph</title>
<path fill="none" stroke="black" d="M290.378,-58.2112C348.088,-99.3774 467.703,-184.703 525.366,-225.836"/>
<polygon fill="black" stroke="black" points="292.17,-55.1904 281.997,-52.2325 288.105,-60.8891 292.17,-55.1904"/>
<polygon fill="black" stroke="black" points="523.622,-228.891 533.796,-231.849 527.687,-223.193 523.622,-228.891"/>
</g>
<!-- httpd -->
<g id="node14" class="node"><title>httpd</title>
<polygon fill="#9999ff" stroke="black" points="237.839,-160 183.839,-160 183.839,-124 237.839,-124 237.839,-160"/>
<text text-anchor="middle" x="210.839" y="-139.5" font-family="Roboto" font-size="10.00">httpd</text>
</g>
<!-- fs&#45;&gt;httpd -->
<g id="edge11" class="edge"><title>fs&#45;&gt;httpd</title>
<path fill="none" stroke="black" d="M210.839,-231.969C210.839,-215.378 210.839,-189.883 210.839,-170.431"/>
<polygon fill="black" stroke="black" points="214.339,-170.341 210.839,-160.341 207.339,-170.341 214.339,-170.341"/>
</g>
<!-- httpd&#45;&gt;Users -->
<g id="edge42" class="edge"><title>httpd&#45;&gt;Users</title>
<path fill="none" stroke="black" d="M196.861,-123.969C182.067,-105.944 158.647,-77.4096 142.333,-57.5326"/>
<polygon fill="black" stroke="black" points="144.872,-55.1091 135.822,-49.5998 139.461,-59.5501 144.872,-55.1091"/>
</g>
<!-- httpd&#45;&gt;Lumberjack -->
<g id="edge12" class="edge"><title>httpd&#45;&gt;Lumberjack</title>
<path fill="none" stroke="black" d="M218.39,-123.969C225.849,-107.148 237.366,-81.1728 246.034,-61.6237"/>
<polygon fill="black" stroke="black" points="249.296,-62.901 250.15,-52.3406 242.897,-60.0636 249.296,-62.901"/>
</g>
<!-- CloudGazer&#45;&gt;Seraph -->
<g id="edge28" class="edge"><title>CloudGazer&#45;&gt;Seraph</title>
<path fill="none" stroke="black" d="M563.631,-567.758C596.071,-561.292 638.579,-546.908 659.839,-515 704.937,-447.315 695.204,-405.243 659.839,-332 646.211,-303.776 617.441,-282.37 593.92,-268.673"/>
<polygon fill="black" stroke="black" points="562.71,-564.368 553.492,-569.592 563.955,-571.256 562.71,-564.368"/>
<polygon fill="black" stroke="black" points="595.316,-265.444 584.878,-263.628 591.905,-271.557 595.316,-265.444"/>
</g>
<!-- CloudGazer&#45;&gt;TheSecretary -->
<g id="edge29" class="edge"><title>CloudGazer&#45;&gt;TheSecretary</title>
<path fill="none" stroke="black" d="M488.283,-556.029C482.232,-553.165 475.904,-550.36 469.839,-548 421.479,-529.179 407.096,-531.33 357.839,-515 329.917,-505.743 299.012,-494.379 274.343,-485.032"/>
<polygon fill="black" stroke="black" points="275.461,-481.713 264.87,-481.427 272.97,-488.255 275.461,-481.713"/>
</g>
<!-- main -->
<g id="node16" class="node"><title>main</title>
<polygon fill="#9999ff" stroke="black" points="428.839,-376 374.839,-376 374.839,-340 428.839,-340 428.839,-376"/>
<text text-anchor="middle" x="401.839" y="-355.5" font-family="Roboto" font-size="10.00">main</text>
</g>
<!-- monitor -->
<g id="node20" class="node"><title>monitor</title>
<polygon fill="#9999ff" stroke="black" points="428.839,-268 374.839,-268 374.839,-232 428.839,-232 428.839,-268"/>
<text text-anchor="middle" x="401.839" y="-247.5" font-family="Roboto" font-size="10.00">main</text>
</g>
<!-- main&#45;&gt;monitor -->
<g id="edge26" class="edge"><title>main&#45;&gt;monitor</title>
<path fill="none" stroke="black" d="M412.069,-339.969C415.729,-323.378 416.317,-297.883 413.833,-278.431"/>
<polygon fill="black" stroke="black" points="417.246,-277.622 412.137,-268.341 410.343,-278.782 417.246,-277.622"/>
</g>
<!-- MrChase -->
<g id="node17" class="node"><title>MrChase</title>
<polygon fill="#9999ff" stroke="black" points="430.339,-484 375.339,-484 375.339,-448 430.339,-448 430.339,-484"/>
<text text-anchor="middle" x="402.839" y="-463.5" font-family="Roboto" font-size="10.00">MrChase</text>
</g>
<!-- MrChase&#45;&gt;Seraph -->
<g id="edge40" class="edge"><title>MrChase&#45;&gt;Seraph</title>
<path fill="none" stroke="black" d="M421.186,-439.67C450.995,-398.514 509.61,-317.587 539.448,-276.391"/>
<polygon fill="black" stroke="black" points="418.293,-437.697 415.261,-447.849 423.962,-441.804 418.293,-437.697"/>
<polygon fill="black" stroke="black" points="542.326,-278.384 545.358,-268.232 536.657,-274.278 542.326,-278.384"/>
</g>
<!-- MrChase&#45;&gt;TheSecretary -->
<g id="edge16" class="edge"><title>MrChase&#45;&gt;TheSecretary</title>
<path fill="none" stroke="black" d="M375.129,-466C341.889,-466 308.65,-466 275.411,-466"/>
<polygon fill="black" stroke="black" points="275.095,-462.5 265.095,-466 275.095,-469.5 275.095,-462.5"/>
</g>
<!-- MrChase&#45;&gt;FileJuggler -->
<g id="edge39" class="edge"><title>MrChase&#45;&gt;FileJuggler</title>
<path fill="none" stroke="black" d="M365.936,-445.635C330.705,-427.147 277.741,-399.355 241.356,-380.262"/>
<polygon fill="black" stroke="black" points="364.694,-448.936 375.175,-450.483 367.947,-442.738 364.694,-448.936"/>
<polygon fill="black" stroke="black" points="242.965,-377.153 232.484,-375.606 239.713,-383.352 242.965,-377.153"/>
</g>
<!-- MrChase&#45;&gt;main -->
<g id="edge15" class="edge"><title>MrChase&#45;&gt;main</title>
<path fill="none" stroke="black" d="M402.678,-447.969C402.522,-431.378 402.281,-405.883 402.098,-386.431"/>
<polygon fill="black" stroke="black" points="405.597,-386.307 402.003,-376.341 398.597,-386.373 405.597,-386.307"/>
</g>
<!-- SlaveDriver&#45;&gt;Seraph -->
<g id="edge37" class="edge"><title>SlaveDriver&#45;&gt;Seraph</title>
<path fill="none" stroke="black" d="M461.685,-551.637C464.429,-550.372 467.164,-549.149 469.839,-548 509.367,-531.018 536.142,-550.227 560.839,-515 611.673,-442.493 584.075,-329.074 567.472,-277.783"/>
<polygon fill="black" stroke="black" points="459.931,-548.595 452.396,-556.044 462.931,-554.919 459.931,-548.595"/>
<polygon fill="black" stroke="black" points="570.724,-276.47 564.227,-268.101 564.087,-278.695 570.724,-276.47"/>
</g>
<!-- SlaveDriver&#45;&gt;TheSecretary -->
<g id="edge31" class="edge"><title>SlaveDriver&#45;&gt;TheSecretary</title>
<path fill="none" stroke="black" d="M387.307,-560.562C360.837,-549.904 322.911,-533.393 291.839,-515 279.768,-507.854 267.259,-498.876 256.538,-490.623"/>
<polygon fill="black" stroke="black" points="258.393,-487.629 248.365,-484.208 254.071,-493.135 258.393,-487.629"/>
</g>
<!-- SlaveDriver&#45;&gt;FileJuggler -->
<g id="edge36" class="edge"><title>SlaveDriver&#45;&gt;FileJuggler</title>
<path fill="none" stroke="black" d="M393.407,-549.112C382.051,-538.735 368.693,-526.374 356.839,-515 309.196,-469.285 254.978,-414.398 224.644,-383.422"/>
<polygon fill="black" stroke="black" points="391.156,-551.796 400.905,-555.943 395.87,-546.621 391.156,-551.796"/>
<polygon fill="black" stroke="black" points="226.96,-380.784 217.465,-376.082 221.955,-385.679 226.96,-380.784"/>
</g>
<!-- SlaveDriver&#45;&gt;main -->
<g id="edge14" class="edge"><title>SlaveDriver&#45;&gt;main</title>
<path fill="none" stroke="black" d="M452.539,-556.362C458.281,-553.523 464.217,-550.64 469.839,-548 502.802,-532.519 524.938,-545.499 544.839,-515 561.112,-490.062 559.299,-474.031 544.839,-448 522.351,-407.517 472.961,-383.061 438.56,-370.296"/>
<polygon fill="black" stroke="black" points="439.445,-366.897 428.85,-366.854 437.106,-373.494 439.445,-366.897"/>
</g>
<!-- SlaveDriver&#45;&gt;BigBrother -->
<g id="edge32" class="edge"><title>SlaveDriver&#45;&gt;BigBrother</title>
<path fill="none" stroke="black" d="M432.21,-555.969C444.653,-538.84 463.99,-512.221 478.273,-492.559"/>
<polygon fill="black" stroke="black" points="481.197,-494.488 484.243,-484.341 475.534,-490.374 481.197,-494.488"/>
</g>
<!-- BigBrother&#45;&gt;Seraph -->
<g id="edge35" class="edge"><title>BigBrother&#45;&gt;Seraph</title>
<path fill="none" stroke="black" d="M504.537,-437.996C516.243,-396.927 538.396,-319.211 550.117,-278.091"/>
<polygon fill="black" stroke="black" points="501.103,-437.273 501.728,-447.849 507.835,-439.192 501.103,-437.273"/>
<polygon fill="black" stroke="black" points="553.552,-278.809 552.927,-268.232 546.82,-276.89 553.552,-278.809"/>
</g>
<!-- BigBrother&#45;&gt;TheSecretary -->
<g id="edge30" class="edge"><title>BigBrother&#45;&gt;TheSecretary</title>
<path fill="none" stroke="black" d="M484.755,-484.273C472.943,-500.276 453.338,-522.359 429.839,-531.5 370.62,-554.535 299.579,-516.864 259.477,-489.787"/>
<polygon fill="black" stroke="black" points="261.378,-486.846 251.166,-484.026 257.39,-492.599 261.378,-486.846"/>
</g>
<!-- BigBrother&#45;&gt;main -->
<g id="edge13" class="edge"><title>BigBrother&#45;&gt;main</title>
<path fill="none" stroke="black" d="M481.576,-447.969C466.087,-430.687 441.939,-403.743 424.273,-384.032"/>
<polygon fill="black" stroke="black" points="426.661,-381.452 417.38,-376.341 421.448,-386.123 426.661,-381.452"/>
</g>
<!-- monitor&#45;&gt;main -->
<g id="edge27" class="edge"><title>monitor&#45;&gt;main</title>
<path fill="none" stroke="black" d="M391.542,-268.341C387.92,-285.042 387.37,-310.554 389.892,-329.931"/>
<polygon fill="black" stroke="black" points="386.473,-330.703 391.609,-339.969 393.373,-329.522 386.473,-330.703"/>
</g>
<!-- Slave1&#45;&gt;FileJuggler -->
<g id="edge22" class="edge"><title>Slave1&#45;&gt;FileJuggler</title>
<path fill="none" stroke="black" d="M292.332,-679.37C220.154,-675.364 66.192,-662.308 33.8391,-623 -15.5884,-562.947 -6.18761,-514.688 33.8391,-448 60.8815,-402.945 119.322,-379.448 159.371,-368.158"/>
<polygon fill="black" stroke="black" points="292.193,-682.868 302.363,-679.898 292.561,-675.877 292.193,-682.868"/>
<polygon fill="black" stroke="black" points="160.372,-371.513 169.126,-365.545 158.561,-364.751 160.372,-371.513"/>
</g>
<!-- Slave1&#45;&gt;SlaveDriver -->
<g id="edge20" class="edge"><title>Slave1&#45;&gt;SlaveDriver</title>
<path fill="none" stroke="black" d="M350.794,-656.32C365.113,-639.455 384.03,-617.175 398.443,-600.2"/>
<polygon fill="black" stroke="black" points="348.103,-654.081 344.299,-663.969 353.44,-658.612 348.103,-654.081"/>
<polygon fill="black" stroke="black" points="401.312,-602.229 405.116,-592.341 395.976,-597.698 401.312,-602.229"/>
</g>
<!-- Slave2&#45;&gt;FileJuggler -->
<g id="edge23" class="edge"><title>Slave2&#45;&gt;FileJuggler</title>
<path fill="none" stroke="black" d="M384.576,-659.231C382.004,-658.039 379.41,-656.944 376.839,-656 298.852,-627.352 255.895,-677.099 192.839,-623 132.505,-571.235 137.401,-525.329 155.839,-448 161.226,-425.405 173.326,-402.05 183.622,-384.937"/>
<polygon fill="black" stroke="black" points="383.213,-662.464 393.712,-663.886 386.391,-656.228 383.213,-662.464"/>
<polygon fill="black" stroke="black" points="186.798,-386.457 189.103,-376.116 180.853,-382.763 186.798,-386.457"/>
</g>
<!-- Slave2&#45;&gt;SlaveDriver -->
<g id="edge21" class="edge"><title>Slave2&#45;&gt;SlaveDriver</title>
<path fill="none" stroke="black" d="M419.839,-653.931C419.839,-638.187 419.839,-618.393 419.839,-602.566"/>
<polygon fill="black" stroke="black" points="416.339,-653.969 419.839,-663.969 423.339,-653.969 416.339,-653.969"/>
<polygon fill="black" stroke="black" points="423.339,-602.341 419.839,-592.341 416.339,-602.341 423.339,-602.341"/>
</g>
<!-- Importer -->
<g id="node23" class="node"><title>Importer</title>
<polygon fill="#9999ff" stroke="black" points="271.839,-592 217.839,-592 217.839,-556 271.839,-556 271.839,-592"/>
<text text-anchor="middle" x="244.839" y="-571.5" font-family="Roboto" font-size="10.00">main</text>
</g>
<!-- Importer&#45;&gt;FileJuggler -->
<g id="edge25" class="edge"><title>Importer&#45;&gt;FileJuggler</title>
<path fill="none" stroke="black" d="M209.1,-553.716C195.08,-544.103 180.528,-531.067 172.839,-515 152.602,-472.712 171.704,-417.615 186.745,-385.489"/>
<polygon fill="black" stroke="black" points="207.393,-556.78 217.694,-559.257 211.186,-550.897 207.393,-556.78"/>
<polygon fill="black" stroke="black" points="189.992,-386.818 191.235,-376.296 183.702,-383.746 189.992,-386.818"/>
</g>
<!-- Importer&#45;&gt;MrChase -->
<g id="edge24" class="edge"><title>Importer&#45;&gt;MrChase</title>
<path fill="none" stroke="black" d="M281.172,-554.188C300.835,-543.504 325.245,-529.412 345.839,-515 356.356,-507.64 367.283,-498.775 376.722,-490.677"/>
<polygon fill="black" stroke="black" points="279.375,-551.18 272.221,-558.995 282.687,-557.347 279.375,-551.18"/>
<polygon fill="black" stroke="black" points="379.023,-493.315 384.26,-484.105 374.422,-488.039 379.023,-493.315"/>
</g>
</g>
</svg>
