<?xml version="1.0" encoding="UTF-8" standalone="no"?>
<!DOCTYPE svg PUBLIC "-//W3C//DTD SVG 1.1//EN"
 "http://www.w3.org/Graphics/SVG/1.1/DTD/svg11.dtd">
<!-- Generated by graphviz version 2.38.0 (20140413.2041)
 -->
<!-- Title: piwheels Pages: 1 -->
<svg width="1055pt" height="816pt"
 viewBox="0.00 0.00 1055.00 816.00" xmlns="http://www.w3.org/2000/svg" xmlns:xlink="http://www.w3.org/1999/xlink">
<g id="graph0" class="graph" transform="scale(1 1) rotate(0) translate(4 812)">
<title>piwheels</title>
<polygon fill="white" stroke="none" points="-4,4 -4,-812 1051,-812 1051,4 -4,4"/>
<g id="clust1" class="cluster"><title>cluster_db_server</title>
<polygon fill="#cccccc" stroke="black" points="560,-8 560,-299 939,-299 939,-8 560,-8"/>
<text text-anchor="middle" x="749.5" y="-283.8" font-family="Roboto" font-size="14.00">piw&#45;master (db)</text>
</g>
<g id="clust2" class="cluster"><title>cluster_file_server</title>
<polygon fill="#cccccc" stroke="black" points="310,-8 310,-515 486,-515 486,-8 310,-8"/>
<text text-anchor="middle" x="398" y="-499.8" font-family="Roboto" font-size="14.00">piw&#45;master (fs)</text>
</g>
<g id="clust3" class="cluster"><title>cluster_master</title>
<polygon fill="#cccccc" stroke="black" points="682,-332 682,-623 956,-623 956,-332 682,-332"/>
<text text-anchor="middle" x="819" y="-607.8" font-family="Roboto" font-size="14.00">piw&#45;master (core)</text>
</g>
<g id="clust4" class="cluster"><title>cluster_monitor</title>
<polygon fill="#cccccc" stroke="black" points="947,-224 947,-299 1039,-299 1039,-224 947,-224"/>
<text text-anchor="middle" x="993" y="-283.8" font-family="Roboto" font-size="14.00">piw&#45;monitor</text>
</g>
<g id="clust5" class="cluster"><title>cluster_slave1</title>
<polygon fill="#cccccc" stroke="black" points="430,-656 430,-731 506,-731 506,-656 430,-656"/>
<text text-anchor="middle" x="468" y="-715.8" font-family="Roboto" font-size="14.00">piw&#45;slave</text>
</g>
<g id="clust6" class="cluster"><title>cluster_slave2</title>
<polygon fill="#cccccc" stroke="black" points="250,-656 250,-731 326,-731 326,-656 250,-656"/>
<text text-anchor="middle" x="288" y="-715.8" font-family="Roboto" font-size="14.00">piw&#45;slave</text>
</g>
<g id="clust7" class="cluster"><title>cluster_slave3</title>
<polygon fill="#cccccc" stroke="black" points="517,-656 517,-731 593,-731 593,-656 517,-656"/>
<text text-anchor="middle" x="555" y="-715.8" font-family="Roboto" font-size="14.00">piw&#45;slave</text>
</g>
<g id="clust8" class="cluster"><title>cluster_slave4</title>
<polygon fill="#cccccc" stroke="black" points="340,-656 340,-731 416,-731 416,-656 340,-656"/>
<text text-anchor="middle" x="378" y="-715.8" font-family="Roboto" font-size="14.00">piw&#45;slave</text>
</g>
<g id="clust9" class="cluster"><title>cluster_import</title>
<polygon fill="#cccccc" stroke="black" points="8,-656 8,-731 93,-731 93,-656 8,-656"/>
<text text-anchor="middle" x="50.5" y="-715.8" font-family="Roboto" font-size="14.00">piw&#45;import</text>
</g>
<g id="clust10" class="cluster"><title>cluster_rebuild</title>
<polygon fill="#cccccc" stroke="black" points="607,-656 607,-731 693,-731 693,-656 607,-656"/>
<text text-anchor="middle" x="650" y="-715.8" font-family="Roboto" font-size="14.00">piw&#45;rebuild</text>
</g>
<g id="clust11" class="cluster"><title>cluster_remove</title>
<polygon fill="#cccccc" stroke="black" points="774,-656 774,-731 864,-731 864,-656 774,-656"/>
<text text-anchor="middle" x="819" y="-715.8" font-family="Roboto" font-size="14.00">piw&#45;remove</text>
</g>
<g id="clust12" class="cluster"><title>cluster_logger</title>
<polygon fill="#cccccc" stroke="black" points="219,-116 219,-191 302,-191 302,-116 219,-116"/>
<text text-anchor="middle" x="260.5" y="-175.8" font-family="Roboto" font-size="14.00">piw&#45;logger</text>
</g>
<!-- PyPI -->
<g id="node1" class="node"><title>PyPI</title>
<polygon fill="#9999ff" stroke="black" points="470.683,-772.049 472.459,-772.148 474.216,-772.295 475.948,-772.491 477.648,-772.735 479.308,-773.027 480.923,-773.364 482.485,-773.748 483.989,-774.176 485.429,-774.647 486.8,-775.161 488.098,-775.715 489.317,-776.308 490.455,-776.939 491.507,-777.605 492.472,-778.306 493.346,-779.039 494.127,-779.801 494.815,-780.592 495.408,-781.408 495.906,-782.248 496.309,-783.109 496.617,-783.989 496.832,-784.886 496.956,-785.797 496.989,-786.719 496.934,-787.65 496.794,-788.587 496.571,-789.529 496.269,-790.471 495.89,-791.413 495.439,-792.35 494.918,-793.281 494.332,-794.203 493.685,-795.114 492.981,-796.011 492.223,-796.891 491.415,-797.752 490.561,-798.592 489.666,-799.408 488.732,-800.199 487.764,-800.961 486.764,-801.694 485.737,-802.395 484.684,-803.061 483.61,-803.692 482.516,-804.285 481.405,-804.839 480.28,-805.353 479.142,-805.824 477.994,-806.252 476.837,-806.636 475.672,-806.973 474.501,-807.265 473.325,-807.509 472.145,-807.705 470.963,-807.852 469.779,-807.951 468.593,-808 467.407,-808 466.221,-807.951 465.037,-807.852 463.855,-807.705 462.675,-807.509 461.499,-807.265 460.328,-806.973 459.163,-806.636 458.006,-806.252 456.858,-805.824 455.72,-805.353 454.595,-804.839 453.484,-804.285 452.39,-803.692 451.316,-803.061 450.263,-802.395 449.236,-801.694 448.236,-800.961 447.268,-800.199 446.334,-799.408 445.439,-798.592 444.585,-797.752 443.777,-796.891 443.019,-796.011 442.315,-795.114 441.668,-794.203 441.082,-793.281 440.561,-792.35 440.11,-791.413 439.731,-790.471 439.429,-789.529 439.206,-788.587 439.066,-787.65 439.011,-786.719 439.044,-785.797 439.168,-784.886 439.383,-783.989 439.691,-783.109 440.094,-782.248 440.592,-781.408 441.185,-780.592 441.873,-779.801 442.654,-779.039 443.528,-778.306 444.493,-777.605 445.545,-776.939 446.683,-776.308 447.902,-775.715 449.2,-775.161 450.571,-774.647 452.011,-774.176 453.515,-773.748 455.077,-773.364 456.692,-773.027 458.352,-772.735 460.052,-772.491 461.784,-772.295 463.541,-772.148 465.317,-772.049 467.105,-772 468.895,-772 470.683,-772.049"/>
<text text-anchor="middle" x="468" y="-787.5" font-family="Roboto" font-size="10.00">PyPI</text>
</g>
<!-- CloudGazer -->
<g id="node15" class="node"><title>CloudGazer</title>
<polygon fill="#9999ff" stroke="black" points="755.5,-592 690.5,-592 690.5,-556 755.5,-556 755.5,-592"/>
<text text-anchor="middle" x="723" y="-571.5" font-family="Roboto" font-size="10.00">CloudGazer</text>
</g>
<!-- PyPI&#45;&gt;CloudGazer -->
<g id="edge17" class="edge"><title>PyPI&#45;&gt;CloudGazer</title>
<path fill="none" stroke="black" d="M493.383,-796C557.882,-796 723,-796 723,-796 723,-796 723,-602.167 723,-602.167"/>
<polygon fill="black" stroke="black" points="726.5,-602.167 723,-592.167 719.5,-602.167 726.5,-602.167"/>
</g>
<!-- Slave1 -->
<g id="node21" class="node"><title>Slave1</title>
<polygon fill="#9999ff" stroke="black" points="495,-700 441,-700 441,-664 495,-664 495,-700"/>
<text text-anchor="middle" x="468" y="-679.5" font-family="Roboto" font-size="10.00">main</text>
</g>
<!-- PyPI&#45;&gt;Slave1 -->
<g id="edge18" class="edge"><title>PyPI&#45;&gt;Slave1</title>
<path fill="none" stroke="black" d="M468,-771.679C468,-771.679 468,-710.05 468,-710.05"/>
<polygon fill="black" stroke="black" points="471.5,-710.05 468,-700.05 464.5,-710.05 471.5,-710.05"/>
</g>
<!-- Slave2 -->
<g id="node22" class="node"><title>Slave2</title>
<polygon fill="#9999ff" stroke="black" points="315,-700 261,-700 261,-664 315,-664 315,-700"/>
<text text-anchor="middle" x="288" y="-679.5" font-family="Roboto" font-size="10.00">main</text>
</g>
<!-- PyPI&#45;&gt;Slave2 -->
<g id="edge19" class="edge"><title>PyPI&#45;&gt;Slave2</title>
<path fill="none" stroke="black" d="M442.972,-796C393.513,-796 288,-796 288,-796 288,-796 288,-710.064 288,-710.064"/>
<polygon fill="black" stroke="black" points="291.5,-710.064 288,-700.064 284.5,-710.064 291.5,-710.064"/>
</g>
<!-- Slave3 -->
<g id="node23" class="node"><title>Slave3</title>
<polygon fill="#9999ff" stroke="black" points="585,-700 531,-700 531,-664 585,-664 585,-700"/>
<text text-anchor="middle" x="558" y="-679.5" font-family="Roboto" font-size="10.00">main</text>
</g>
<!-- PyPI&#45;&gt;Slave3 -->
<g id="edge20" class="edge"><title>PyPI&#45;&gt;Slave3</title>
<path fill="none" stroke="black" d="M496.972,-784C523.282,-784 558,-784 558,-784 558,-784 558,-710.236 558,-710.236"/>
<polygon fill="black" stroke="black" points="561.5,-710.236 558,-700.236 554.5,-710.236 561.5,-710.236"/>
</g>
<!-- Slave4 -->
<g id="node24" class="node"><title>Slave4</title>
<polygon fill="#9999ff" stroke="black" points="405,-700 351,-700 351,-664 405,-664 405,-700"/>
<text text-anchor="middle" x="378" y="-679.5" font-family="Roboto" font-size="10.00">main</text>
</g>
<!-- PyPI&#45;&gt;Slave4 -->
<g id="edge21" class="edge"><title>PyPI&#45;&gt;Slave4</title>
<path fill="none" stroke="black" d="M439.028,-784C412.718,-784 378,-784 378,-784 378,-784 378,-710.236 378,-710.236"/>
<polygon fill="black" stroke="black" points="381.5,-710.236 378,-700.236 374.5,-710.236 381.5,-710.236"/>
</g>
<!-- Users -->
<g id="node2" class="node"><title>Users</title>
<polygon fill="#9999ff" stroke="black" points="525.683,-16.0493 527.459,-16.1479 529.216,-16.2953 530.948,-16.4913 532.648,-16.7353 534.308,-17.0266 535.923,-17.3645 537.485,-17.7479 538.989,-18.1759 540.429,-18.6472 541.8,-19.1606 543.098,-19.7147 544.317,-20.308 545.455,-20.9388 546.507,-21.6054 547.472,-22.3059 548.346,-23.0385 549.127,-23.8012 549.815,-24.5918 550.408,-25.4082 550.906,-26.2481 551.309,-27.1093 551.617,-27.9894 551.832,-28.886 551.956,-29.7965 551.989,-30.7186 551.934,-31.6497 551.794,-32.5873 551.571,-33.5287 551.269,-34.4713 550.89,-35.4127 550.439,-36.3503 549.918,-37.2814 549.332,-38.2035 548.685,-39.114 547.981,-40.0106 547.223,-40.8907 546.415,-41.7519 545.561,-42.5918 544.666,-43.4082 543.732,-44.1988 542.764,-44.9615 541.764,-45.6941 540.737,-46.3946 539.684,-47.0612 538.61,-47.692 537.516,-48.2853 536.405,-48.8394 535.28,-49.3528 534.142,-49.8241 532.994,-50.2521 531.837,-50.6355 530.672,-50.9734 529.501,-51.2647 528.325,-51.5087 527.145,-51.7047 525.963,-51.8521 524.779,-51.9507 523.593,-52 522.407,-52 521.221,-51.9507 520.037,-51.8521 518.855,-51.7047 517.675,-51.5087 516.499,-51.2647 515.328,-50.9734 514.163,-50.6355 513.006,-50.2521 511.858,-49.8241 510.72,-49.3528 509.595,-48.8394 508.484,-48.2853 507.39,-47.692 506.316,-47.0612 505.263,-46.3946 504.236,-45.6941 503.236,-44.9615 502.268,-44.1988 501.334,-43.4082 500.439,-42.5918 499.585,-41.7519 498.777,-40.8907 498.019,-40.0106 497.315,-39.114 496.668,-38.2035 496.082,-37.2814 495.561,-36.3503 495.11,-35.4127 494.731,-34.4713 494.429,-33.5287 494.206,-32.5873 494.066,-31.6497 494.011,-30.7186 494.044,-29.7965 494.168,-28.886 494.383,-27.9894 494.691,-27.1093 495.094,-26.2481 495.592,-25.4082 496.185,-24.5918 496.873,-23.8012 497.654,-23.0385 498.528,-22.3059 499.493,-21.6054 500.545,-20.9388 501.683,-20.308 502.902,-19.7147 504.2,-19.1606 505.571,-18.6472 507.011,-18.1759 508.515,-17.7479 510.077,-17.3645 511.692,-17.0266 513.352,-16.7353 515.052,-16.4913 516.784,-16.2953 518.541,-16.1479 520.317,-16.0493 522.105,-16 523.895,-16 525.683,-16.0493"/>
<text text-anchor="middle" x="523" y="-31.5" font-family="Roboto" font-size="10.00">Users</text>
</g>
<!-- TheOracle1 -->
<g id="node3" class="node"><title>TheOracle1</title>
<polygon fill="#9999ff" stroke="black" points="726.5,-160 665.5,-160 665.5,-124 726.5,-124 726.5,-160"/>
<text text-anchor="middle" x="696" y="-139.5" font-family="Roboto" font-size="10.00">TheOracle</text>
</g>
<!-- db -->
<g id="node8" class="node"><title>db</title>
<polygon fill="#9999ff" stroke="black" points="772,-52 769,-56 748,-56 745,-52 716,-52 716,-16 772,-16 772,-52"/>
<text text-anchor="middle" x="744" y="-37" font-family="Roboto" font-size="10.00">piwheels</text>
<text text-anchor="middle" x="744" y="-26" font-family="Roboto" font-size="10.00">database</text>
</g>
<!-- TheOracle1&#45;&gt;db -->
<g id="edge4" class="edge"><title>TheOracle1&#45;&gt;db</title>
<path fill="none" stroke="black" d="M721.25,-113.679C721.25,-113.679 721.25,-62.0502 721.25,-62.0502"/>
<polygon fill="black" stroke="black" points="724.75,-62.0502 721.25,-52.0502 717.75,-62.0502 724.75,-62.0502"/>
<polygon fill="black" stroke="black" points="717.75,-113.679 721.25,-123.679 724.75,-113.679 717.75,-113.679"/>
</g>
<!-- TheOracle2 -->
<g id="node4" class="node"><title>TheOracle2</title>
<polygon fill="#9999ff" stroke="black" points="823.5,-160 762.5,-160 762.5,-124 823.5,-124 823.5,-160"/>
<text text-anchor="middle" x="793" y="-139.5" font-family="Roboto" font-size="10.00">TheOracle</text>
</g>
<!-- TheOracle2&#45;&gt;db -->
<g id="edge5" class="edge"><title>TheOracle2&#45;&gt;db</title>
<path fill="none" stroke="black" d="M767.25,-113.679C767.25,-113.679 767.25,-62.0502 767.25,-62.0502"/>
<polygon fill="black" stroke="black" points="770.75,-62.0502 767.25,-52.0502 763.75,-62.0502 770.75,-62.0502"/>
<polygon fill="black" stroke="black" points="763.75,-113.679 767.25,-123.679 770.75,-113.679 763.75,-113.679"/>
</g>
<!-- TheOracle3 -->
<g id="node5" class="node"><title>TheOracle3</title>
<polygon fill="#9999ff" stroke="black" points="629.5,-160 568.5,-160 568.5,-124 629.5,-124 629.5,-160"/>
<text text-anchor="middle" x="599" y="-139.5" font-family="Roboto" font-size="10.00">TheOracle</text>
</g>
<!-- TheOracle3&#45;&gt;db -->
<g id="edge6" class="edge"><title>TheOracle3&#45;&gt;db</title>
<path fill="none" stroke="black" d="M599,-113.679C599,-113.679 599,-34 599,-34 599,-34 705.698,-34 705.698,-34"/>
<polygon fill="black" stroke="black" points="595.5,-113.679 599,-123.679 602.5,-113.679 595.5,-113.679"/>
<polygon fill="black" stroke="black" points="705.698,-37.5001 715.698,-34 705.698,-30.5001 705.698,-37.5001"/>
</g>
<!-- TheArchitect -->
<g id="node6" class="node"><title>TheArchitect</title>
<polygon fill="#9999ff" stroke="black" points="930.5,-160 859.5,-160 859.5,-124 930.5,-124 930.5,-160"/>
<text text-anchor="middle" x="895" y="-139.5" font-family="Roboto" font-size="10.00">TheArchitect</text>
</g>
<!-- TheArchitect&#45;&gt;db -->
<g id="edge7" class="edge"><title>TheArchitect&#45;&gt;db</title>
<path fill="none" stroke="black" d="M895,-113.679C895,-113.679 895,-34 895,-34 895,-34 815.716,-34 772.048,-34"/>
<polygon fill="black" stroke="black" points="891.5,-113.679 895,-123.679 898.5,-113.679 891.5,-113.679"/>
</g>
<!-- SlaveDriver -->
<g id="node18" class="node"><title>SlaveDriver</title>
<polygon fill="#9999ff" stroke="black" points="947.5,-592 882.5,-592 882.5,-556 947.5,-556 947.5,-592"/>
<text text-anchor="middle" x="915" y="-571.5" font-family="Roboto" font-size="10.00">SlaveDriver</text>
</g>
<!-- TheArchitect&#45;&gt;SlaveDriver -->
<g id="edge48" class="edge"><title>TheArchitect&#45;&gt;SlaveDriver</title>
<path fill="none" stroke="black" d="M890.417,-160.013C890.417,-160.013 890.417,-545.911 890.417,-545.911"/>
<polygon fill="black" stroke="black" points="886.917,-545.911 890.417,-555.911 893.917,-545.911 886.917,-545.911"/>
</g>
<!-- Seraph -->
<g id="node7" class="node"><title>Seraph</title>
<polygon fill="#9999ff" stroke="black" points="671,-268 617,-268 617,-232 671,-232 671,-268"/>
<text text-anchor="middle" x="644" y="-247.5" font-family="Roboto" font-size="10.00">Seraph</text>
</g>
<!-- Seraph&#45;&gt;TheOracle1 -->
<g id="edge1" class="edge"><title>Seraph&#45;&gt;TheOracle1</title>
<path fill="none" stroke="black" d="M681.333,-236C681.333,-236 682.75,-236 682.75,-236 682.75,-236 682.75,-170.124 682.75,-170.124"/>
<polygon fill="black" stroke="black" points="681.333,-232.5 671.333,-236 681.333,-239.5 681.333,-232.5"/>
<polygon fill="black" stroke="black" points="686.25,-170.124 682.75,-160.124 679.25,-170.124 686.25,-170.124"/>
</g>
<!-- Seraph&#45;&gt;TheOracle2 -->
<g id="edge2" class="edge"><title>Seraph&#45;&gt;TheOracle2</title>
<path fill="none" stroke="black" d="M681.235,-248C681.235,-248 777,-248 777,-248 777,-248 777,-170.464 777,-170.464"/>
<polygon fill="black" stroke="black" points="681.236,-244.5 671.235,-248 681.235,-251.5 681.236,-244.5"/>
<polygon fill="black" stroke="black" points="780.5,-170.464 777,-160.464 773.5,-170.464 780.5,-170.464"/>
</g>
<!-- Seraph&#45;&gt;TheOracle3 -->
<g id="edge3" class="edge"><title>Seraph&#45;&gt;TheOracle3</title>
<path fill="none" stroke="black" d="M623.25,-221.679C623.25,-221.679 623.25,-170.05 623.25,-170.05"/>
<polygon fill="black" stroke="black" points="626.75,-170.05 623.25,-160.05 619.75,-170.05 626.75,-170.05"/>
<polygon fill="black" stroke="black" points="619.75,-221.679 623.25,-231.679 626.75,-221.679 619.75,-221.679"/>
</g>
<!-- TheSecretary -->
<g id="node9" class="node"><title>TheSecretary</title>
<polygon fill="#9999ff" stroke="black" points="478,-484 404,-484 404,-448 478,-448 478,-484"/>
<text text-anchor="middle" x="441" y="-463.5" font-family="Roboto" font-size="10.00">TheSecretary</text>
</g>
<!-- TheSecretary&#45;&gt;Seraph -->
<g id="edge43" class="edge"><title>TheSecretary&#45;&gt;Seraph</title>
<path fill="none" stroke="black" d="M488.124,-457C488.124,-457 646,-457 646,-457 646,-457 646,-278.008 646,-278.008"/>
<polygon fill="black" stroke="black" points="488.124,-453.5 478.124,-457 488.124,-460.5 488.124,-453.5"/>
<polygon fill="black" stroke="black" points="649.5,-278.008 646,-268.008 642.5,-278.008 649.5,-278.008"/>
</g>
<!-- TheScribe -->
<g id="node10" class="node"><title>TheScribe</title>
<polygon fill="#9999ff" stroke="black" points="478,-376 418,-376 418,-340 478,-340 478,-376"/>
<text text-anchor="middle" x="448" y="-355.5" font-family="Roboto" font-size="10.00">TheScribe</text>
</g>
<!-- TheSecretary&#45;&gt;TheScribe -->
<g id="edge8" class="edge"><title>TheSecretary&#45;&gt;TheScribe</title>
<path fill="none" stroke="black" d="M448,-447.679C448,-447.679 448,-386.05 448,-386.05"/>
<polygon fill="black" stroke="black" points="451.5,-386.05 448,-376.05 444.5,-386.05 451.5,-386.05"/>
</g>
<!-- TheScribe&#45;&gt;Seraph -->
<g id="edge44" class="edge"><title>TheScribe&#45;&gt;Seraph</title>
<path fill="none" stroke="black" d="M462.833,-329.764C462.833,-329.764 462.833,-256 462.833,-256 462.833,-256 606.878,-256 606.878,-256"/>
<polygon fill="black" stroke="black" points="459.333,-329.764 462.833,-339.764 466.333,-329.764 459.333,-329.764"/>
<polygon fill="black" stroke="black" points="606.878,-259.5 616.878,-256 606.877,-252.5 606.878,-259.5"/>
</g>
<!-- fs -->
<g id="node13" class="node"><title>fs</title>
<polygon fill="#9999ff" stroke="black" points="432.5,-268 429.5,-272 408.5,-272 405.5,-268 371.5,-268 371.5,-232 432.5,-232 432.5,-268"/>
<text text-anchor="middle" x="402" y="-253" font-family="Roboto" font-size="10.00">www</text>
<text text-anchor="middle" x="402" y="-242" font-family="Roboto" font-size="10.00">filesystem</text>
</g>
<!-- TheScribe&#45;&gt;fs -->
<g id="edge9" class="edge"><title>TheScribe&#45;&gt;fs</title>
<path fill="none" stroke="black" d="M425.25,-339.679C425.25,-339.679 425.25,-278.05 425.25,-278.05"/>
<polygon fill="black" stroke="black" points="428.75,-278.05 425.25,-268.05 421.75,-278.05 428.75,-278.05"/>
</g>
<!-- FileJuggler -->
<g id="node11" class="node"><title>FileJuggler</title>
<polygon fill="#9999ff" stroke="black" points="381.5,-376 318.5,-376 318.5,-340 381.5,-340 381.5,-376"/>
<text text-anchor="middle" x="350" y="-355.5" font-family="Roboto" font-size="10.00">FileJuggler</text>
</g>
<!-- FileJuggler&#45;&gt;fs -->
<g id="edge10" class="edge"><title>FileJuggler&#45;&gt;fs</title>
<path fill="none" stroke="black" d="M376.5,-329.679C376.5,-329.679 376.5,-278.05 376.5,-278.05"/>
<polygon fill="black" stroke="black" points="380,-278.05 376.5,-268.05 373,-278.05 380,-278.05"/>
<polygon fill="black" stroke="black" points="373,-329.679 376.5,-339.679 380,-329.679 373,-329.679"/>
</g>
<!-- BigBrother -->
<g id="node19" class="node"><title>BigBrother</title>
<polygon fill="#9999ff" stroke="black" points="871.5,-484 810.5,-484 810.5,-448 871.5,-448 871.5,-484"/>
<text text-anchor="middle" x="841" y="-463.5" font-family="Roboto" font-size="10.00">BigBrother</text>
</g>
<!-- FileJuggler&#45;&gt;BigBrother -->
<g id="edge42" class="edge"><title>FileJuggler&#45;&gt;BigBrother</title>
<path fill="none" stroke="black" d="M355.357,-376.035C355.357,-395.576 355.357,-424 355.357,-424 355.357,-424 814.833,-424 814.833,-424 814.833,-424 814.833,-437.944 814.833,-437.944"/>
<polygon fill="black" stroke="black" points="811.333,-437.944 814.833,-447.944 818.333,-437.945 811.333,-437.944"/>
</g>
<!-- Lumberjack -->
<g id="node12" class="node"><title>Lumberjack</title>
<polygon fill="#9999ff" stroke="black" points="385.5,-52 318.5,-52 318.5,-16 385.5,-16 385.5,-52"/>
<text text-anchor="middle" x="352" y="-31.5" font-family="Roboto" font-size="10.00">Lumberjack</text>
</g>
<!-- Lumberjack&#45;&gt;Seraph -->
<g id="edge52" class="edge"><title>Lumberjack&#45;&gt;Seraph</title>
<path fill="none" stroke="black" d="M395.728,-34C395.728,-34 447.667,-34 447.667,-34 447.667,-34 447.667,-244 447.667,-244 447.667,-244 606.701,-244 606.701,-244"/>
<polygon fill="black" stroke="black" points="395.729,-30.5001 385.728,-34 395.728,-37.5001 395.729,-30.5001"/>
<polygon fill="black" stroke="black" points="606.701,-247.5 616.701,-244 606.701,-240.5 606.701,-247.5"/>
</g>
<!-- httpd -->
<g id="node14" class="node"><title>httpd</title>
<polygon fill="#9999ff" stroke="black" points="429,-160 375,-160 375,-124 429,-124 429,-160"/>
<text text-anchor="middle" x="402" y="-139.5" font-family="Roboto" font-size="10.00">httpd</text>
</g>
<!-- fs&#45;&gt;httpd -->
<g id="edge11" class="edge"><title>fs&#45;&gt;httpd</title>
<path fill="none" stroke="black" d="M402,-231.679C402,-231.679 402,-170.05 402,-170.05"/>
<polygon fill="black" stroke="black" points="405.5,-170.05 402,-160.05 398.5,-170.05 405.5,-170.05"/>
</g>
<!-- httpd&#45;&gt;Users -->
<g id="edge53" class="edge"><title>httpd&#45;&gt;Users</title>
<path fill="none" stroke="black" d="M429.081,-142C462.19,-142 513.872,-142 513.872,-142 513.872,-142 513.872,-60.875 513.872,-60.875"/>
<polygon fill="black" stroke="black" points="517.372,-60.875 513.872,-50.875 510.372,-60.875 517.372,-60.875"/>
</g>
<!-- httpd&#45;&gt;Lumberjack -->
<g id="edge12" class="edge"><title>httpd&#45;&gt;Lumberjack</title>
<path fill="none" stroke="black" d="M380.25,-123.679C380.25,-123.679 380.25,-62.0502 380.25,-62.0502"/>
<polygon fill="black" stroke="black" points="383.75,-62.0501 380.25,-52.0502 376.75,-62.0502 383.75,-62.0501"/>
</g>
<!-- CloudGazer&#45;&gt;Seraph -->
<g id="edge37" class="edge"><title>CloudGazer&#45;&gt;Seraph</title>
<path fill="none" stroke="black" d="M708.5,-545.993C708.5,-545.993 708.5,-264 708.5,-264 708.5,-264 681.354,-264 681.354,-264"/>
<polygon fill="black" stroke="black" points="705,-545.993 708.5,-555.993 712,-545.993 705,-545.993"/>
<polygon fill="black" stroke="black" points="681.354,-260.5 671.354,-264 681.354,-267.5 681.354,-260.5"/>
</g>
<!-- CloudGazer&#45;&gt;TheSecretary -->
<g id="edge38" class="edge"><title>CloudGazer&#45;&gt;TheSecretary</title>
<path fill="none" stroke="black" d="M690.425,-574C619.926,-574 459.5,-574 459.5,-574 459.5,-574 459.5,-494.321 459.5,-494.321"/>
<polygon fill="black" stroke="black" points="463,-494.321 459.5,-484.321 456,-494.321 463,-494.321"/>
</g>
<!-- main -->
<g id="node16" class="node"><title>main</title>
<polygon fill="#9999ff" stroke="black" points="946,-376 892,-376 892,-340 946,-340 946,-376"/>
<text text-anchor="middle" x="919" y="-355.5" font-family="Roboto" font-size="10.00">main</text>
</g>
<!-- monitor -->
<g id="node20" class="node"><title>monitor</title>
<polygon fill="#9999ff" stroke="black" points="1009,-268 955,-268 955,-232 1009,-232 1009,-268"/>
<text text-anchor="middle" x="982" y="-247.5" font-family="Roboto" font-size="10.00">main</text>
</g>
<!-- main&#45;&gt;monitor -->
<g id="edge35" class="edge"><title>main&#45;&gt;monitor</title>
<path fill="none" stroke="black" d="M940.833,-339.936C940.833,-307.791 940.833,-244 940.833,-244 940.833,-244 944.77,-244 944.77,-244"/>
<polygon fill="black" stroke="black" points="944.771,-247.5 954.77,-244 944.77,-240.5 944.771,-247.5"/>
</g>
<!-- MrChase -->
<g id="node17" class="node"><title>MrChase</title>
<polygon fill="#9999ff" stroke="black" points="846.5,-592 791.5,-592 791.5,-556 846.5,-556 846.5,-592"/>
<text text-anchor="middle" x="819" y="-571.5" font-family="Roboto" font-size="10.00">MrChase</text>
</g>
<!-- MrChase&#45;&gt;Seraph -->
<g id="edge50" class="edge"><title>MrChase&#45;&gt;Seraph</title>
<path fill="none" stroke="black" d="M802.9,-545.761C802.9,-545.761 802.9,-260 802.9,-260 802.9,-260 681.316,-260 681.316,-260"/>
<polygon fill="black" stroke="black" points="799.4,-545.761 802.9,-555.761 806.4,-545.761 799.4,-545.761"/>
<polygon fill="black" stroke="black" points="681.316,-256.5 671.316,-260 681.316,-263.5 681.316,-256.5"/>
</g>
<!-- MrChase&#45;&gt;TheSecretary -->
<g id="edge16" class="edge"><title>MrChase&#45;&gt;TheSecretary</title>
<path fill="none" stroke="black" d="M799.1,-555.842C799.1,-527.261 799.1,-475 799.1,-475 799.1,-475 488.31,-475 488.31,-475"/>
<polygon fill="black" stroke="black" points="488.31,-471.5 478.31,-475 488.31,-478.5 488.31,-471.5"/>
</g>
<!-- MrChase&#45;&gt;FileJuggler -->
<g id="edge49" class="edge"><title>MrChase&#45;&gt;FileJuggler</title>
<path fill="none" stroke="black" d="M795.3,-545.944C795.3,-545.944 795.3,-532 795.3,-532 795.3,-532 372.786,-532 372.786,-532 372.786,-532 372.786,-386.292 372.786,-386.292"/>
<polygon fill="black" stroke="black" points="791.8,-545.944 795.3,-555.944 798.8,-545.945 791.8,-545.944"/>
<polygon fill="black" stroke="black" points="376.286,-386.292 372.786,-376.292 369.286,-386.292 376.286,-386.292"/>
</g>
<!-- MrChase&#45;&gt;main -->
<g id="edge15" class="edge"><title>MrChase&#45;&gt;main</title>
<path fill="none" stroke="black" d="M806.7,-555.833C806.7,-502.813 806.7,-352 806.7,-352 806.7,-352 881.815,-352 881.815,-352"/>
<polygon fill="black" stroke="black" points="881.815,-355.5 891.815,-352 881.815,-348.5 881.815,-355.5"/>
</g>
<!-- MrChase&#45;&gt;BigBrother -->
<g id="edge51" class="edge"><title>MrChase&#45;&gt;BigBrother</title>
<path fill="none" stroke="black" d="M828.5,-555.679C828.5,-555.679 828.5,-494.05 828.5,-494.05"/>
<polygon fill="black" stroke="black" points="832,-494.05 828.5,-484.05 825,-494.05 832,-494.05"/>
</g>
<!-- SlaveDriver&#45;&gt;Seraph -->
<g id="edge47" class="edge"><title>SlaveDriver&#45;&gt;Seraph</title>
<path fill="none" stroke="black" d="M888.833,-545.765C888.833,-545.765 888.833,-252 888.833,-252 888.833,-252 681.137,-252 681.137,-252"/>
<polygon fill="black" stroke="black" points="885.333,-545.765 888.833,-555.765 892.333,-545.765 885.333,-545.765"/>
<polygon fill="black" stroke="black" points="681.137,-248.5 671.137,-252 681.137,-255.5 681.137,-248.5"/>
</g>
<!-- SlaveDriver&#45;&gt;TheSecretary -->
<g id="edge40" class="edge"><title>SlaveDriver&#45;&gt;TheSecretary</title>
<path fill="none" stroke="black" d="M884.083,-555.965C884.083,-536.424 884.083,-508 884.083,-508 884.083,-508 468.75,-508 468.75,-508 468.75,-508 468.75,-494.056 468.75,-494.056"/>
<polygon fill="black" stroke="black" points="472.25,-494.055 468.75,-484.056 465.25,-494.056 472.25,-494.055"/>
</g>
<!-- SlaveDriver&#45;&gt;FileJuggler -->
<g id="edge46" class="edge"><title>SlaveDriver&#45;&gt;FileJuggler</title>
<path fill="none" stroke="black" d="M887.25,-545.708C887.25,-545.708 887.25,-400 887.25,-400 887.25,-400 377.143,-400 377.143,-400 377.143,-400 377.143,-386.056 377.143,-386.056"/>
<polygon fill="black" stroke="black" points="883.75,-545.708 887.25,-555.708 890.75,-545.708 883.75,-545.708"/>
<polygon fill="black" stroke="black" points="380.643,-386.055 377.143,-376.056 373.643,-386.056 380.643,-386.055"/>
</g>
<!-- SlaveDriver&#45;&gt;main -->
<g id="edge14" class="edge"><title>SlaveDriver&#45;&gt;main</title>
<path fill="none" stroke="black" d="M919,-555.955C919,-555.955 919,-386.145 919,-386.145"/>
<polygon fill="black" stroke="black" points="922.5,-386.145 919,-376.145 915.5,-386.145 922.5,-386.145"/>
</g>
<!-- SlaveDriver&#45;&gt;BigBrother -->
<g id="edge41" class="edge"><title>SlaveDriver&#45;&gt;BigBrother</title>
<path fill="none" stroke="black" d="M885.667,-555.679C885.667,-524.866 885.667,-466 885.667,-466 885.667,-466 881.534,-466 881.534,-466"/>
<polygon fill="black" stroke="black" points="881.534,-462.5 871.534,-466 881.534,-469.5 881.534,-462.5"/>
</g>
<!-- BigBrother&#45;&gt;Seraph -->
<g id="edge45" class="edge"><title>BigBrother&#45;&gt;Seraph</title>
<path fill="none" stroke="black" d="M819.167,-437.731C819.167,-437.731 819.167,-256 819.167,-256 819.167,-256 681.37,-256 681.37,-256"/>
<polygon fill="black" stroke="black" points="815.667,-437.731 819.167,-447.731 822.667,-437.731 815.667,-437.731"/>
<polygon fill="black" stroke="black" points="681.37,-252.5 671.37,-256 681.37,-259.5 681.37,-252.5"/>
</g>
<!-- BigBrother&#45;&gt;TheSecretary -->
<g id="edge39" class="edge"><title>BigBrother&#45;&gt;TheSecretary</title>
<path fill="none" stroke="black" d="M810.277,-466C810.277,-466 488.121,-466 488.121,-466"/>
<polygon fill="black" stroke="black" points="488.121,-462.5 478.121,-466 488.121,-469.5 488.121,-462.5"/>
</g>
<!-- BigBrother&#45;&gt;main -->
<g id="edge13" class="edge"><title>BigBrother&#45;&gt;main</title>
<path fill="none" stroke="black" d="M865.5,-447.764C865.5,-418.426 865.5,-364 865.5,-364 865.5,-364 881.937,-364 881.937,-364"/>
<polygon fill="black" stroke="black" points="881.937,-367.5 891.937,-364 881.936,-360.5 881.937,-367.5"/>
</g>
<!-- monitor&#45;&gt;main -->
<g id="edge36" class="edge"><title>monitor&#45;&gt;main</title>
<path fill="none" stroke="black" d="M954.78,-240C944.694,-240 935.667,-240 935.667,-240 935.667,-240 935.667,-329.821 935.667,-329.821"/>
<polygon fill="black" stroke="black" points="932.167,-329.821 935.667,-339.821 939.167,-329.821 932.167,-329.821"/>
</g>
<!-- Slave1&#45;&gt;FileJuggler -->
<g id="edge26" class="edge"><title>Slave1&#45;&gt;FileJuggler</title>
<path fill="none" stroke="black" d="M450.25,-653.831C450.25,-653.831 450.25,-610 450.25,-610 450.25,-610 364.071,-610 364.071,-610 364.071,-610 364.071,-386.123 364.071,-386.123"/>
<polygon fill="black" stroke="black" points="446.75,-653.831 450.25,-663.831 453.75,-653.831 446.75,-653.831"/>
<polygon fill="black" stroke="black" points="367.572,-386.123 364.071,-376.123 360.572,-386.123 367.572,-386.123"/>
</g>
<!-- Slave1&#45;&gt;SlaveDriver -->
<g id="edge22" class="edge"><title>Slave1&#45;&gt;SlaveDriver</title>
<path fill="none" stroke="black" d="M486.128,-653.578C486.128,-653.578 486.128,-646 486.128,-646 486.128,-646 921.5,-646 921.5,-646 921.5,-646 921.5,-602.169 921.5,-602.169"/>
<polygon fill="black" stroke="black" points="482.628,-653.578 486.128,-663.578 489.628,-653.578 482.628,-653.578"/>
<polygon fill="black" stroke="black" points="925,-602.169 921.5,-592.169 918,-602.169 925,-602.169"/>
</g>
<!-- Slave2&#45;&gt;FileJuggler -->
<g id="edge27" class="edge"><title>Slave2&#45;&gt;FileJuggler</title>
<path fill="none" stroke="black" d="M308,-653.992C308,-653.992 308,-364 308,-364 308,-364 309.017,-364 309.017,-364"/>
<polygon fill="black" stroke="black" points="304.5,-653.992 308,-663.992 311.5,-653.992 304.5,-653.992"/>
<polygon fill="black" stroke="black" points="308.167,-367.5 318.167,-364 308.167,-360.5 308.167,-367.5"/>
</g>
<!-- Slave2&#45;&gt;SlaveDriver -->
<g id="edge23" class="edge"><title>Slave2&#45;&gt;SlaveDriver</title>
<path fill="none" stroke="black" d="M301,-653.718C301,-653.718 301,-628 301,-628 301,-628 895.5,-628 895.5,-628 895.5,-628 895.5,-602.282 895.5,-602.282"/>
<polygon fill="black" stroke="black" points="297.5,-653.718 301,-663.718 304.5,-653.718 297.5,-653.718"/>
<polygon fill="black" stroke="black" points="899,-602.282 895.5,-592.282 892,-602.282 899,-602.282"/>
</g>
<!-- Slave3&#45;&gt;FileJuggler -->
<g id="edge28" class="edge"><title>Slave3&#45;&gt;FileJuggler</title>
<path fill="none" stroke="black" d="M541.372,-653.62C541.372,-653.62 541.372,-601 541.372,-601 541.372,-601 368.429,-601 368.429,-601 368.429,-601 368.429,-386.264 368.429,-386.264"/>
<polygon fill="black" stroke="black" points="537.872,-653.62 541.372,-663.62 544.872,-653.62 537.872,-653.62"/>
<polygon fill="black" stroke="black" points="371.929,-386.264 368.429,-376.264 364.929,-386.265 371.929,-386.264"/>
</g>
<!-- Slave3&#45;&gt;SlaveDriver -->
<g id="edge24" class="edge"><title>Slave3&#45;&gt;SlaveDriver</title>
<path fill="none" stroke="black" d="M576.75,-655.884C576.75,-655.884 576.75,-655 576.75,-655 576.75,-655 934.5,-655 934.5,-655 934.5,-655 934.5,-602.38 934.5,-602.38"/>
<polygon fill="black" stroke="black" points="573.25,-653.841 576.75,-663.841 580.25,-653.841 573.25,-653.841"/>
<polygon fill="black" stroke="black" points="938,-602.38 934.5,-592.38 931,-602.38 938,-602.38"/>
</g>
<!-- Slave4&#45;&gt;FileJuggler -->
<g id="edge29" class="edge"><title>Slave4&#45;&gt;FileJuggler</title>
<path fill="none" stroke="black" d="M359.714,-653.652C359.714,-653.652 359.714,-386.147 359.714,-386.147"/>
<polygon fill="black" stroke="black" points="363.214,-386.147 359.714,-376.147 356.214,-386.147 363.214,-386.147"/>
<polygon fill="black" stroke="black" points="356.214,-653.652 359.714,-663.652 363.214,-653.652 356.214,-653.652"/>
</g>
<!-- Slave4&#45;&gt;SlaveDriver -->
<g id="edge25" class="edge"><title>Slave4&#45;&gt;SlaveDriver</title>
<path fill="none" stroke="black" d="M392.75,-653.956C392.75,-653.956 392.75,-637 392.75,-637 392.75,-637 908.5,-637 908.5,-637 908.5,-637 908.5,-602.222 908.5,-602.222"/>
<polygon fill="black" stroke="black" points="389.25,-653.956 392.75,-663.956 396.25,-653.956 389.25,-653.956"/>
<polygon fill="black" stroke="black" points="912,-602.222 908.5,-592.222 905,-602.222 912,-602.222"/>
</g>
<!-- Importer -->
<g id="node25" class="node"><title>Importer</title>
<polygon fill="#9999ff" stroke="black" points="71,-700 17,-700 17,-664 71,-664 71,-700"/>
<text text-anchor="middle" x="44" y="-679.5" font-family="Roboto" font-size="10.00">main</text>
</g>
<!-- Importer&#45;&gt;FileJuggler -->
<g id="edge31" class="edge"><title>Importer&#45;&gt;FileJuggler</title>
<path fill="none" stroke="black" d="M53,-653.788C53,-653.788 53,-352 53,-352 53,-352 308.497,-352 308.497,-352"/>
<polygon fill="black" stroke="black" points="49.5001,-653.788 53,-663.788 56.5001,-653.788 49.5001,-653.788"/>
<polygon fill="black" stroke="black" points="308.497,-355.5 318.497,-352 308.497,-348.5 308.497,-355.5"/>
</g>
<!-- Importer&#45;&gt;MrChase -->
<g id="edge30" class="edge"><title>Importer&#45;&gt;MrChase</title>
<path fill="none" stroke="black" d="M35,-653.778C35,-653.778 35,-619 35,-619 35,-619 810,-619 810,-619 810,-619 810,-602.044 810,-602.044"/>
<polygon fill="black" stroke="black" points="31.5001,-653.778 35,-663.778 38.5001,-653.778 31.5001,-653.778"/>
<polygon fill="black" stroke="black" points="813.5,-602.044 810,-592.044 806.5,-602.044 813.5,-602.044"/>
</g>
<!-- Rebuild -->
<g id="node26" class="node"><title>Rebuild</title>
<polygon fill="#9999ff" stroke="black" points="675,-700 621,-700 621,-664 675,-664 675,-700"/>
<text text-anchor="middle" x="648" y="-679.5" font-family="Roboto" font-size="10.00">main</text>
</g>
<!-- Rebuild&#45;&gt;MrChase -->
<g id="edge32" class="edge"><title>Rebuild&#45;&gt;MrChase</title>
<path fill="none" stroke="black" d="M685.154,-682C685.154,-682 759,-682 759,-682 759,-682 759,-574 759,-574 759,-574 781.458,-574 781.458,-574"/>
<polygon fill="black" stroke="black" points="685.154,-678.5 675.154,-682 685.154,-685.5 685.154,-678.5"/>
<polygon fill="black" stroke="black" points="781.459,-577.5 791.458,-574 781.458,-570.5 781.459,-577.5"/>
</g>
<!-- Remove -->
<g id="node27" class="node"><title>Remove</title>
<polygon fill="#9999ff" stroke="black" points="846,-700 792,-700 792,-664 846,-664 846,-700"/>
<text text-anchor="middle" x="819" y="-679.5" font-family="Roboto" font-size="10.00">main</text>
</g>
<!-- Remove&#45;&gt;MrChase -->
<g id="edge33" class="edge"><title>Remove&#45;&gt;MrChase</title>
<path fill="none" stroke="black" d="M828,-653.679C828,-653.679 828,-602.05 828,-602.05"/>
<polygon fill="black" stroke="black" points="831.5,-602.05 828,-592.05 824.5,-602.05 831.5,-602.05"/>
<polygon fill="black" stroke="black" points="824.5,-653.679 828,-663.679 831.5,-653.679 824.5,-653.679"/>
</g>
<!-- Logger -->
<g id="node28" class="node"><title>Logger</title>
<polygon fill="#9999ff" stroke="black" points="294,-160 240,-160 240,-124 294,-124 294,-160"/>
<text text-anchor="middle" x="267" y="-139.5" font-family="Roboto" font-size="10.00">main</text>
</g>
<!-- Logger&#45;&gt;Lumberjack -->
<g id="edge34" class="edge"><title>Logger&#45;&gt;Lumberjack</title>
<path fill="none" stroke="black" d="M294.281,-142C316.774,-142 345,-142 345,-142 345,-142 345,-62.3207 345,-62.3207"/>
<polygon fill="black" stroke="black" points="348.5,-62.3207 345,-52.3207 341.5,-62.3208 348.5,-62.3207"/>
</g>
</g>
</svg>
