<?xml version="1.0" encoding="UTF-8" standalone="no"?>
<!DOCTYPE svg PUBLIC "-//W3C//DTD SVG 1.1//EN"
 "http://www.w3.org/Graphics/SVG/1.1/DTD/svg11.dtd">
<!-- Generated by graphviz version 2.38.0 (20140413.2041)
 -->
<!-- Title: slave Pages: 1 -->
<svg width="261pt" height="881pt"
 viewBox="0.00 0.00 261.47 881.00" xmlns="http://www.w3.org/2000/svg" xmlns:xlink="http://www.w3.org/1999/xlink">
<g id="graph0" class="graph" transform="scale(1 1) rotate(0) translate(4 877)">
<title>slave</title>
<polygon fill="white" stroke="none" points="-4,4 -4,-877 257.471,-877 257.471,4 -4,4"/>
<!-- HELLO -->
<g id="node1" class="node"><title>HELLO</title>
<polygon fill="#ffaaaa" stroke="black" stroke-width="0" points="154.323,-860.562 119.471,-873 84.6185,-860.562 84.651,-840.438 154.291,-840.438 154.323,-860.562"/>
<text text-anchor="middle" x="119.471" y="-852.5" font-family="Sans" font-size="10.00">HELLO</text>
</g>
<!-- ACK -->
<g id="node7" class="node"><title>ACK</title>
<polygon fill="#aaffaa" stroke="black" stroke-width="0" points="92.4709,-733.438 119.471,-721 146.471,-733.438 146.446,-753.562 92.4961,-753.562 92.4709,-733.438"/>
<text text-anchor="middle" x="119.471" y="-736.5" font-family="Sans" font-size="10.00">ACK</text>
</g>
<!-- HELLO&#45;&gt;ACK -->
<g id="edge1" class="edge"><title>HELLO&#45;&gt;ACK</title>
<path fill="none" stroke="black" d="M119.471,-840.021C119.471,-821.03 119.471,-786.807 119.471,-763.748"/>
<polygon fill="black" stroke="black" points="122.971,-763.737 119.471,-753.737 115.971,-763.737 122.971,-763.737"/>
<text text-anchor="middle" x="141.971" y="-811" font-family="Sans" font-size="10.00">[timeout,</text>
<text text-anchor="middle" x="141.971" y="-800" font-family="Sans" font-size="10.00">pyver,</text>
<text text-anchor="middle" x="141.971" y="-789" font-family="Sans" font-size="10.00">abi,</text>
<text text-anchor="middle" x="141.971" y="-778" font-family="Sans" font-size="10.00">...</text>
</g>
<!-- IDLE -->
<g id="node2" class="node"><title>IDLE</title>
<polygon fill="#ffaaaa" stroke="black" stroke-width="0" points="147.271,-661.562 119.471,-674 91.6704,-661.562 91.6963,-641.438 147.245,-641.438 147.271,-661.562"/>
<text text-anchor="middle" x="119.471" y="-653.5" font-family="Sans" font-size="10.00">IDLE</text>
</g>
<!-- BUILD -->
<g id="node8" class="node"><title>BUILD</title>
<polygon fill="#aaffaa" stroke="black" stroke-width="0" points="0.0291135,-556.438 33.4709,-544 66.9126,-556.438 66.8814,-576.562 0.0603274,-576.562 0.0291135,-556.438"/>
<text text-anchor="middle" x="33.4709" y="-559.5" font-family="Sans" font-size="10.00">BUILD</text>
</g>
<!-- IDLE&#45;&gt;BUILD -->
<g id="edge3" class="edge"><title>IDLE&#45;&gt;BUILD</title>
<path fill="none" stroke="black" d="M94.4737,-641.327C85.2932,-635.535 75.2522,-628.218 67.4709,-620 58.0347,-610.034 50.019,-597.003 44.1448,-585.916"/>
<polygon fill="black" stroke="black" points="47.1769,-584.155 39.5519,-576.799 40.9254,-587.305 47.1769,-584.155"/>
<text text-anchor="middle" x="91.4709" y="-612" font-family="Sans" font-size="10.00">[package,</text>
<text text-anchor="middle" x="91.4709" y="-601" font-family="Sans" font-size="10.00">version]</text>
</g>
<!-- SLEEP -->
<g id="node12" class="node"><title>SLEEP</title>
<polygon fill="#aaffaa" stroke="black" stroke-width="0" points="85.0727,-556.438 119.471,-544 153.869,-556.438 153.837,-576.562 85.1048,-576.562 85.0727,-556.438"/>
<text text-anchor="middle" x="119.471" y="-559.5" font-family="Sans" font-size="10.00">SLEEP</text>
</g>
<!-- IDLE&#45;&gt;SLEEP -->
<g id="edge4" class="edge"><title>IDLE&#45;&gt;SLEEP</title>
<path fill="none" stroke="black" d="M114.515,-641.425C112.536,-627.021 112.194,-603.985 113.49,-586.599"/>
<polygon fill="black" stroke="black" points="116.973,-586.935 114.508,-576.631 110.01,-586.223 116.973,-586.935"/>
</g>
<!-- DIE -->
<g id="node13" class="node"><title>DIE</title>
<polygon fill="#aaffaa" stroke="black" stroke-width="0" points="171.471,-556.438 198.471,-544 225.471,-556.438 225.446,-576.562 171.496,-576.562 171.471,-556.438"/>
<text text-anchor="middle" x="198.471" y="-559.5" font-family="Sans" font-size="10.00">DIE</text>
</g>
<!-- IDLE&#45;&gt;DIE -->
<g id="edge5" class="edge"><title>IDLE&#45;&gt;DIE</title>
<path fill="none" stroke="black" d="M131.128,-641.425C143.963,-626.477 164.78,-602.234 179.876,-584.655"/>
<polygon fill="black" stroke="black" points="182.907,-586.498 186.766,-576.631 177.596,-581.937 182.907,-586.498"/>
</g>
<!-- BUILT -->
<g id="node3" class="node"><title>BUILT</title>
<polygon fill="#ffaaaa" stroke="black" stroke-width="0" points="118.092,-262.562 87.4709,-275 56.85,-262.562 56.8786,-242.438 118.063,-242.438 118.092,-262.562"/>
<text text-anchor="middle" x="87.4709" y="-254.5" font-family="Sans" font-size="10.00">BUILT</text>
</g>
<!-- SEND -->
<g id="node10" class="node"><title>SEND</title>
<polygon fill="#aaffaa" stroke="black" stroke-width="0" points="35.4396,-168.438 67.4709,-156 99.5021,-168.438 99.4722,-188.562 35.4695,-188.562 35.4396,-168.438"/>
<text text-anchor="middle" x="67.4709" y="-171.5" font-family="Sans" font-size="10.00">SEND</text>
</g>
<!-- BUILT&#45;&gt;SEND -->
<g id="edge14" class="edge"><title>BUILT&#45;&gt;SEND</title>
<path fill="none" stroke="black" d="M79.7893,-242.104C76.6793,-235.839 73.3784,-228.236 71.4709,-221 69.6254,-213.999 68.5842,-206.213 68.0095,-199.067"/>
<polygon fill="black" stroke="black" points="71.4942,-198.691 67.4517,-188.898 64.5047,-199.074 71.4942,-198.691"/>
<text text-anchor="middle" x="92.4709" y="-213" font-family="Sans" font-size="10.00">filename</text>
</g>
<!-- DONE -->
<g id="node11" class="node"><title>DONE</title>
<polygon fill="#aaffaa" stroke="black" stroke-width="0" points="113.483,-12.4377 146.471,3.55271e-15 179.459,-12.4377 179.428,-32.5623 113.513,-32.5623 113.483,-12.4377"/>
<text text-anchor="middle" x="146.471" y="-15.5" font-family="Sans" font-size="10.00">DONE</text>
</g>
<!-- BUILT&#45;&gt;DONE -->
<g id="edge13" class="edge"><title>BUILT&#45;&gt;DONE</title>
<path fill="none" stroke="black" d="M100.028,-242.315C104.968,-236.208 110.225,-228.668 113.471,-221 139.126,-160.391 144.932,-81.7452 146.182,-42.8883"/>
<polygon fill="black" stroke="black" points="149.688,-42.6826 146.433,-32.6001 142.69,-42.5115 149.688,-42.6826"/>
</g>
<!-- SENT -->
<g id="node4" class="node"><title>SENT</title>
<polygon fill="#ffaaaa" stroke="black" stroke-width="0" points="99.0917,-96.5623 68.4709,-109 37.85,-96.5623 37.8786,-76.4377 99.0631,-76.4377 99.0917,-96.5623"/>
<text text-anchor="middle" x="68.4709" y="-88.5" font-family="Sans" font-size="10.00">SENT</text>
</g>
<!-- SENT&#45;&gt;SEND -->
<g id="edge17" class="edge"><title>SENT&#45;&gt;SEND</title>
<path fill="none" stroke="black" d="M68.2591,-109.153C68.1279,-119.78 67.9565,-133.663 67.8071,-145.768"/>
<polygon fill="black" stroke="black" points="64.3067,-145.78 67.6829,-155.822 71.3062,-145.866 64.3067,-145.78"/>
<text text-anchor="middle" x="89.4709" y="-130" font-family="Sans" font-size="10.00">filename</text>
</g>
<!-- SENT&#45;&gt;DONE -->
<g id="edge16" class="edge"><title>SENT&#45;&gt;DONE</title>
<path fill="none" stroke="black" d="M83.51,-76.3105C94.9481,-65.8989 110.876,-51.4008 123.849,-39.592"/>
<polygon fill="black" stroke="black" points="126.439,-41.9673 131.478,-32.6475 121.727,-36.7907 126.439,-41.9673"/>
</g>
<!-- BUSY -->
<g id="node5" class="node"><title>BUSY</title>
<polygon fill="#ffaaaa" stroke="black" stroke-width="0" points="131.548,-494.562 100.471,-507 69.3935,-494.562 69.4225,-474.438 131.519,-474.438 131.548,-494.562"/>
<text text-anchor="middle" x="100.471" y="-486.5" font-family="Sans" font-size="10.00">BUSY</text>
</g>
<!-- CONT -->
<g id="node9" class="node"><title>CONT</title>
<polygon fill="#aaffaa" stroke="black" stroke-width="0" points="68.4396,-367.438 100.471,-355 132.502,-367.438 132.472,-387.562 68.4695,-387.562 68.4396,-367.438"/>
<text text-anchor="middle" x="100.471" y="-370.5" font-family="Sans" font-size="10.00">CONT</text>
</g>
<!-- BUSY&#45;&gt;CONT -->
<g id="edge8" class="edge"><title>BUSY&#45;&gt;CONT</title>
<path fill="none" stroke="black" d="M95.8566,-474.021C93.3892,-455.03 93.0597,-420.807 94.8682,-397.748"/>
<polygon fill="black" stroke="black" points="98.3564,-398.04 95.8882,-387.737 91.3924,-397.331 98.3564,-398.04"/>
</g>
<!-- BUSY&#45;&gt;DONE -->
<g id="edge9" class="edge"><title>BUSY&#45;&gt;DONE</title>
<path fill="none" stroke="black" d="M114.575,-474.332C133.692,-454.268 165.471,-414.781 165.471,-374 165.471,-374 165.471,-374 165.471,-90 165.471,-73.6292 160.699,-55.8347 155.938,-42.1553"/>
<polygon fill="black" stroke="black" points="159.146,-40.7402 152.378,-32.5884 152.585,-43.1812 159.146,-40.7402"/>
</g>
<!-- BYE -->
<g id="node6" class="node"><title>BYE</title>
<polygon fill="#ffaaaa" stroke="black" stroke-width="0" points="225.471,-494.562 198.471,-507 171.471,-494.562 171.496,-474.438 225.446,-474.438 225.471,-494.562"/>
<text text-anchor="middle" x="198.471" y="-486.5" font-family="Sans" font-size="10.00">BYE</text>
</g>
<!-- ACK&#45;&gt;IDLE -->
<g id="edge2" class="edge"><title>ACK&#45;&gt;IDLE</title>
<path fill="none" stroke="black" d="M119.471,-720.822C119.471,-710.19 119.471,-696.306 119.471,-684.204"/>
<polygon fill="black" stroke="black" points="122.971,-684.153 119.471,-674.153 115.971,-684.153 122.971,-684.153"/>
<text text-anchor="middle" x="134.971" y="-695" font-family="Sans" font-size="10.00">[id,url]</text>
</g>
<!-- BUILD&#45;&gt;BUILT -->
<g id="edge12" class="edge"><title>BUILD&#45;&gt;BUILT</title>
<path fill="none" stroke="black" d="M34.6928,-544.301C37.4658,-509.048 45.134,-424.552 59.4709,-355 64.6301,-329.971 72.9946,-301.989 79.2401,-282.536"/>
<polygon fill="black" stroke="black" points="82.5964,-283.532 82.3712,-272.94 75.9417,-281.361 82.5964,-283.532"/>
<text text-anchor="middle" x="71.9709" y="-445" font-family="Sans" font-size="10.00">[status,</text>
<text text-anchor="middle" x="71.9709" y="-434" font-family="Sans" font-size="10.00">duration,</text>
<text text-anchor="middle" x="71.9709" y="-423" font-family="Sans" font-size="10.00">output,</text>
<text text-anchor="middle" x="71.9709" y="-412" font-family="Sans" font-size="10.00">...</text>
</g>
<!-- BUILD&#45;&gt;BUSY -->
<g id="edge7" class="edge"><title>BUILD&#45;&gt;BUSY</title>
<path fill="none" stroke="black" d="M45.4491,-548.307C55.4531,-537.705 69.8975,-522.399 81.4765,-510.128"/>
<polygon fill="black" stroke="black" points="84.2786,-512.259 88.5963,-502.583 79.1875,-507.454 84.2786,-512.259"/>
</g>
<!-- CONT&#45;&gt;BUILT -->
<g id="edge11" class="edge"><title>CONT&#45;&gt;BUILT</title>
<path fill="none" stroke="black" d="M98.6083,-355.667C96.4845,-337.043 92.9825,-306.333 90.4723,-284.32"/>
<polygon fill="black" stroke="black" points="93.9405,-283.842 89.33,-274.303 86.9856,-284.635 93.9405,-283.842"/>
<text text-anchor="middle" x="116.471" y="-329" font-family="Sans" font-size="10.00">[status,</text>
<text text-anchor="middle" x="116.471" y="-318" font-family="Sans" font-size="10.00">duration</text>
<text text-anchor="middle" x="116.471" y="-307" font-family="Sans" font-size="10.00">output,</text>
<text text-anchor="middle" x="116.471" y="-296" font-family="Sans" font-size="10.00">...</text>
</g>
<!-- CONT&#45;&gt;BUSY -->
<g id="edge10" class="edge"><title>CONT&#45;&gt;BUSY</title>
<path fill="none" stroke="black" d="M105.053,-387.737C107.539,-406.598 107.887,-440.803 106.097,-463.957"/>
<polygon fill="black" stroke="black" points="102.603,-463.721 105.085,-474.021 109.568,-464.421 102.603,-463.721"/>
</g>
<!-- SEND&#45;&gt;SENT -->
<g id="edge15" class="edge"><title>SEND&#45;&gt;SENT</title>
<path fill="none" stroke="black" d="M57.9709,-159.572C52.7147,-150.533 47.7466,-138.254 50.4709,-127 51.4555,-122.932 52.9994,-118.808 54.7786,-114.886"/>
<polygon fill="black" stroke="black" points="58.0398,-116.197 59.5013,-105.704 51.8149,-112.996 58.0398,-116.197"/>
</g>
<!-- DONE&#45;&gt;IDLE -->
<g id="edge18" class="edge"><title>DONE&#45;&gt;IDLE</title>
<path fill="none" stroke="black" d="M179.447,-26.1631C210.887,-35.1615 253.471,-53.9952 253.471,-90 253.471,-563 253.471,-563 253.471,-563 253.471,-610.086 196.543,-634.876 156.898,-646.431"/>
<polygon fill="black" stroke="black" points="155.949,-643.062 147.236,-649.089 157.806,-649.811 155.949,-643.062"/>
</g>
<!-- SLEEP&#45;&gt;IDLE -->
<g id="edge6" class="edge"><title>SLEEP&#45;&gt;IDLE</title>
<path fill="none" stroke="black" d="M124.434,-576.631C126.409,-591.057 126.747,-614.097 125.447,-631.469"/>
<polygon fill="black" stroke="black" points="121.965,-631.12 124.426,-641.425 128.928,-631.834 121.965,-631.12"/>
</g>
<!-- DIE&#45;&gt;BYE -->
<g id="edge19" class="edge"><title>DIE&#45;&gt;BYE</title>
<path fill="none" stroke="black" d="M198.471,-543.813C198.471,-535.789 198.471,-526.047 198.471,-517.069"/>
<polygon fill="black" stroke="black" points="201.971,-517.029 198.471,-507.029 194.971,-517.029 201.971,-517.029"/>
</g>
</g>
</svg>
