<?xml version="1.0" encoding="UTF-8" standalone="no"?>
<!DOCTYPE svg PUBLIC "-//W3C//DTD SVG 1.1//EN"
 "http://www.w3.org/Graphics/SVG/1.1/DTD/svg11.dtd">
<!-- Generated by graphviz version 2.38.0 (20140413.2041)
 -->
<!-- Title: slave Pages: 1 -->
<svg width="261pt" height="692pt"
 viewBox="0.00 0.00 261.47 692.00" xmlns="http://www.w3.org/2000/svg" xmlns:xlink="http://www.w3.org/1999/xlink">
<g id="graph0" class="graph" transform="scale(1 1) rotate(0) translate(4 688)">
<title>slave</title>
<polygon fill="white" stroke="none" points="-4,4 -4,-688 257.471,-688 257.471,4 -4,4"/>
<!-- HELLO -->
<g id="node1" class="node"><title>HELLO</title>
<polygon fill="#ffaaaa" stroke="black" stroke-width="0" points="154.323,-671.562 119.471,-684 84.6185,-671.562 84.651,-651.438 154.291,-651.438 154.323,-671.562"/>
<text text-anchor="middle" x="119.471" y="-663.5" font-family="Sans" font-size="10.00">HELLO</text>
</g>
<!-- ACK -->
<g id="node6" class="node"><title>ACK</title>
<polygon fill="#aaffaa" stroke="black" stroke-width="0" points="92.4709,-544.438 119.471,-532 146.471,-544.438 146.446,-564.562 92.4961,-564.562 92.4709,-544.438"/>
<text text-anchor="middle" x="119.471" y="-547.5" font-family="Sans" font-size="10.00">ACK</text>
</g>
<!-- HELLO&#45;&gt;ACK -->
<g id="edge1" class="edge"><title>HELLO&#45;&gt;ACK</title>
<path fill="none" stroke="black" d="M119.471,-651.021C119.471,-632.03 119.471,-597.807 119.471,-574.748"/>
<polygon fill="black" stroke="black" points="122.971,-574.737 119.471,-564.737 115.971,-574.737 122.971,-574.737"/>
<text text-anchor="middle" x="141.971" y="-622" font-family="Sans" font-size="10.00">[timeout,</text>
<text text-anchor="middle" x="141.971" y="-611" font-family="Sans" font-size="10.00">pyver,</text>
<text text-anchor="middle" x="141.971" y="-600" font-family="Sans" font-size="10.00">abi,</text>
<text text-anchor="middle" x="141.971" y="-589" font-family="Sans" font-size="10.00">...</text>
</g>
<!-- IDLE -->
<g id="node2" class="node"><title>IDLE</title>
<polygon fill="#ffaaaa" stroke="black" stroke-width="0" points="147.271,-472.562 119.471,-485 91.6704,-472.562 91.6963,-452.438 147.245,-452.438 147.271,-472.562"/>
<text text-anchor="middle" x="119.471" y="-464.5" font-family="Sans" font-size="10.00">IDLE</text>
</g>
<!-- BUILD -->
<g id="node7" class="node"><title>BUILD</title>
<polygon fill="#aaffaa" stroke="black" stroke-width="0" points="0.0291135,-367.438 33.4709,-355 66.9126,-367.438 66.8814,-387.562 0.0603274,-387.562 0.0291135,-367.438"/>
<text text-anchor="middle" x="33.4709" y="-370.5" font-family="Sans" font-size="10.00">BUILD</text>
</g>
<!-- IDLE&#45;&gt;BUILD -->
<g id="edge3" class="edge"><title>IDLE&#45;&gt;BUILD</title>
<path fill="none" stroke="black" d="M94.4737,-452.327C85.2932,-446.535 75.2522,-439.218 67.4709,-431 58.0347,-421.034 50.019,-408.003 44.1448,-396.916"/>
<polygon fill="black" stroke="black" points="47.1769,-395.155 39.5519,-387.799 40.9254,-398.305 47.1769,-395.155"/>
<text text-anchor="middle" x="91.4709" y="-423" font-family="Sans" font-size="10.00">[package,</text>
<text text-anchor="middle" x="91.4709" y="-412" font-family="Sans" font-size="10.00">version]</text>
</g>
<!-- SLEEP -->
<g id="node10" class="node"><title>SLEEP</title>
<polygon fill="#aaffaa" stroke="black" stroke-width="0" points="85.0727,-367.438 119.471,-355 153.869,-367.438 153.837,-387.562 85.1048,-387.562 85.0727,-367.438"/>
<text text-anchor="middle" x="119.471" y="-370.5" font-family="Sans" font-size="10.00">SLEEP</text>
</g>
<!-- IDLE&#45;&gt;SLEEP -->
<g id="edge4" class="edge"><title>IDLE&#45;&gt;SLEEP</title>
<path fill="none" stroke="black" d="M114.515,-452.425C112.536,-438.021 112.194,-414.985 113.49,-397.599"/>
<polygon fill="black" stroke="black" points="116.973,-397.935 114.508,-387.631 110.01,-397.223 116.973,-397.935"/>
</g>
<!-- DIE -->
<g id="node11" class="node"><title>DIE</title>
<polygon fill="#aaffaa" stroke="black" stroke-width="0" points="171.471,-367.438 198.471,-355 225.471,-367.438 225.446,-387.562 171.496,-387.562 171.471,-367.438"/>
<text text-anchor="middle" x="198.471" y="-370.5" font-family="Sans" font-size="10.00">DIE</text>
</g>
<!-- IDLE&#45;&gt;DIE -->
<g id="edge5" class="edge"><title>IDLE&#45;&gt;DIE</title>
<path fill="none" stroke="black" d="M131.128,-452.425C143.963,-437.477 164.78,-413.234 179.876,-395.655"/>
<polygon fill="black" stroke="black" points="182.907,-397.498 186.766,-387.631 177.596,-392.937 182.907,-397.498"/>
</g>
<!-- BUILT -->
<g id="node3" class="node"><title>BUILT</title>
<polygon fill="#ffaaaa" stroke="black" stroke-width="0" points="131.092,-262.562 100.471,-275 69.85,-262.562 69.8786,-242.438 131.063,-242.438 131.092,-262.562"/>
<text text-anchor="middle" x="100.471" y="-254.5" font-family="Sans" font-size="10.00">BUILT</text>
</g>
<!-- SEND -->
<g id="node8" class="node"><title>SEND</title>
<polygon fill="#aaffaa" stroke="black" stroke-width="0" points="68.4396,-168.438 100.471,-156 132.502,-168.438 132.472,-188.562 68.4695,-188.562 68.4396,-168.438"/>
<text text-anchor="middle" x="100.471" y="-171.5" font-family="Sans" font-size="10.00">SEND</text>
</g>
<!-- BUILT&#45;&gt;SEND -->
<g id="edge9" class="edge"><title>BUILT&#45;&gt;SEND</title>
<path fill="none" stroke="black" d="M100.471,-242.259C100.471,-230.39 100.471,-212.97 100.471,-198.833"/>
<polygon fill="black" stroke="black" points="103.971,-198.808 100.471,-188.808 96.971,-198.808 103.971,-198.808"/>
<text text-anchor="middle" x="121.471" y="-213" font-family="Sans" font-size="10.00">filename</text>
</g>
<!-- DONE -->
<g id="node9" class="node"><title>DONE</title>
<polygon fill="#aaffaa" stroke="black" stroke-width="0" points="142.483,-12.4377 175.471,3.55271e-15 208.459,-12.4377 208.428,-32.5623 142.513,-32.5623 142.483,-12.4377"/>
<text text-anchor="middle" x="175.471" y="-15.5" font-family="Sans" font-size="10.00">DONE</text>
</g>
<!-- BUILT&#45;&gt;DONE -->
<g id="edge8" class="edge"><title>BUILT&#45;&gt;DONE</title>
<path fill="none" stroke="black" d="M125.713,-242.148C133.577,-236.594 141.487,-229.478 146.471,-221 179.953,-164.049 180.045,-82.891 177.625,-43.0061"/>
<polygon fill="black" stroke="black" points="181.107,-42.6298 176.901,-32.9054 174.125,-43.13 181.107,-42.6298"/>
</g>
<!-- SENT -->
<g id="node4" class="node"><title>SENT</title>
<polygon fill="#ffaaaa" stroke="black" stroke-width="0" points="147.092,-96.5623 116.471,-109 85.85,-96.5623 85.8786,-76.4377 147.063,-76.4377 147.092,-96.5623"/>
<text text-anchor="middle" x="116.471" y="-88.5" font-family="Sans" font-size="10.00">SENT</text>
</g>
<!-- SENT&#45;&gt;SEND -->
<g id="edge12" class="edge"><title>SENT&#45;&gt;SEND</title>
<path fill="none" stroke="black" d="M113.316,-107.97C111.126,-119.056 108.159,-134.077 105.629,-146.889"/>
<polygon fill="black" stroke="black" points="102.136,-146.508 103.632,-156.997 109.004,-147.865 102.136,-146.508"/>
<text text-anchor="middle" x="130.471" y="-130" font-family="Sans" font-size="10.00">filename</text>
</g>
<!-- SENT&#45;&gt;DONE -->
<g id="edge11" class="edge"><title>SENT&#45;&gt;DONE</title>
<path fill="none" stroke="black" d="M127.847,-76.3105C136.254,-66.1936 147.867,-52.2182 157.521,-40.601"/>
<polygon fill="black" stroke="black" points="160.431,-42.5755 164.13,-32.6475 155.047,-38.1017 160.431,-42.5755"/>
</g>
<!-- BYE -->
<g id="node5" class="node"><title>BYE</title>
<polygon fill="#ffaaaa" stroke="black" stroke-width="0" points="225.471,-262.562 198.471,-275 171.471,-262.562 171.496,-242.438 225.446,-242.438 225.471,-262.562"/>
<text text-anchor="middle" x="198.471" y="-254.5" font-family="Sans" font-size="10.00">BYE</text>
</g>
<!-- ACK&#45;&gt;IDLE -->
<g id="edge2" class="edge"><title>ACK&#45;&gt;IDLE</title>
<path fill="none" stroke="black" d="M119.471,-531.822C119.471,-521.19 119.471,-507.306 119.471,-495.204"/>
<polygon fill="black" stroke="black" points="122.971,-495.153 119.471,-485.153 115.971,-495.153 122.971,-495.153"/>
<text text-anchor="middle" x="134.971" y="-506" font-family="Sans" font-size="10.00">[id,url]</text>
</g>
<!-- BUILD&#45;&gt;BUILT -->
<g id="edge7" class="edge"><title>BUILD&#45;&gt;BUILT</title>
<path fill="none" stroke="black" d="M41.6864,-358.021C53.0497,-338.687 73.6927,-303.563 87.2432,-280.507"/>
<polygon fill="black" stroke="black" points="90.3479,-282.132 92.3974,-271.737 84.313,-278.585 90.3479,-282.132"/>
<text text-anchor="middle" x="100.971" y="-329" font-family="Sans" font-size="10.00">[status,</text>
<text text-anchor="middle" x="100.971" y="-318" font-family="Sans" font-size="10.00">duration,</text>
<text text-anchor="middle" x="100.971" y="-307" font-family="Sans" font-size="10.00">output,</text>
<text text-anchor="middle" x="100.971" y="-296" font-family="Sans" font-size="10.00">...</text>
</g>
<!-- SEND&#45;&gt;SENT -->
<g id="edge10" class="edge"><title>SEND&#45;&gt;SENT</title>
<path fill="none" stroke="black" d="M97.6142,-157.034C96.5486,-148.086 96.1011,-136.789 98.4709,-127 99.4555,-122.932 100.999,-118.808 102.779,-114.886"/>
<polygon fill="black" stroke="black" points="106.04,-116.197 107.501,-105.704 99.8149,-112.996 106.04,-116.197"/>
</g>
<!-- DONE&#45;&gt;IDLE -->
<g id="edge13" class="edge"><title>DONE&#45;&gt;IDLE</title>
<path fill="none" stroke="black" d="M207.196,-32.737C228.791,-44.4625 253.471,-63.6312 253.471,-90 253.471,-374 253.471,-374 253.471,-374 253.471,-421.086 196.543,-445.876 156.898,-457.431"/>
<polygon fill="black" stroke="black" points="155.949,-454.062 147.236,-460.089 157.806,-460.811 155.949,-454.062"/>
</g>
<!-- SLEEP&#45;&gt;IDLE -->
<g id="edge6" class="edge"><title>SLEEP&#45;&gt;IDLE</title>
<path fill="none" stroke="black" d="M124.434,-387.631C126.409,-402.057 126.747,-425.097 125.447,-442.469"/>
<polygon fill="black" stroke="black" points="121.965,-442.12 124.426,-452.425 128.928,-442.834 121.965,-442.12"/>
</g>
<!-- DIE&#45;&gt;BYE -->
<g id="edge14" class="edge"><title>DIE&#45;&gt;BYE</title>
<path fill="none" stroke="black" d="M198.471,-354.686C198.471,-336.249 198.471,-306.816 198.471,-285.262"/>
<polygon fill="black" stroke="black" points="201.971,-285.104 198.471,-275.104 194.971,-285.104 201.971,-285.104"/>
</g>
</g>
</svg>
