<?xml version="1.0" encoding="UTF-8" standalone="no"?>
<!DOCTYPE svg PUBLIC "-//W3C//DTD SVG 1.1//EN"
 "http://www.w3.org/Graphics/SVG/1.1/DTD/svg11.dtd">
<!-- Generated by graphviz version 2.38.0 (20140413.2041)
 -->
<!-- Title: slave Pages: 1 -->
<svg width="138pt" height="283pt"
 viewBox="0.00 0.00 137.91 283.00" xmlns="http://www.w3.org/2000/svg" xmlns:xlink="http://www.w3.org/1999/xlink">
<g id="graph0" class="graph" transform="scale(1 1) rotate(0) translate(4 279)">
<title>slave</title>
<polygon fill="white" stroke="none" points="-4,4 -4,-279 133.908,-279 133.908,4 -4,4"/>
<!-- HELLO -->
<g id="node1" class="node"><title>HELLO</title>
<polygon fill="#ffaaaa" stroke="black" stroke-width="0" points="80.76,-262.562 45.9076,-275 11.0552,-262.562 11.0877,-242.438 80.7274,-242.438 80.76,-262.562"/>
<text text-anchor="middle" x="45.9076" y="-254.5" font-family="Sans" font-size="10.00">HELLO</text>
</g>
<!-- FETCH -->
<g id="node3" class="node"><title>FETCH</title>
<polygon fill="#aaffaa" stroke="black" stroke-width="0" points="11.5095,-168.438 45.9076,-156 80.3057,-168.438 80.2736,-188.562 11.5416,-188.562 11.5095,-168.438"/>
<text text-anchor="middle" x="45.9076" y="-171.5" font-family="Sans" font-size="10.00">FETCH</text>
</g>
<!-- HELLO&#45;&gt;FETCH -->
<g id="edge1" class="edge"><title>HELLO&#45;&gt;FETCH</title>
<path fill="none" stroke="black" d="M45.9076,-242.259C45.9076,-230.39 45.9076,-212.97 45.9076,-198.833"/>
<polygon fill="black" stroke="black" points="49.4077,-198.808 45.9076,-188.808 42.4077,-198.808 49.4077,-198.808"/>
<text text-anchor="middle" x="53.9076" y="-213" font-family="Sans" font-size="10.00">[id]</text>
</g>
<!-- CHUNK -->
<g id="node2" class="node"><title>CHUNK</title>
<polygon fill="#ffaaaa" stroke="black" stroke-width="0" points="83.5815,-96.5623 45.9076,-109 8.23364,-96.5623 8.2688,-76.4377 83.5464,-76.4377 83.5815,-96.5623"/>
<text text-anchor="middle" x="45.9076" y="-88.5" font-family="Sans" font-size="10.00">CHUNK</text>
</g>
<!-- CHUNK&#45;&gt;FETCH -->
<g id="edge3" class="edge"><title>CHUNK&#45;&gt;FETCH</title>
<path fill="none" stroke="black" d="M58.8497,-104.742C66.3259,-113.687 73.5875,-126.127 69.9076,-138 68.4313,-142.764 66.0578,-147.455 63.3648,-151.779"/>
<polygon fill="black" stroke="black" points="60.4448,-149.847 57.5734,-160.046 66.1779,-153.864 60.4448,-149.847"/>
<text text-anchor="middle" x="99.9076" y="-130" font-family="Sans" font-size="10.00">[offset,data]</text>
</g>
<!-- DONE -->
<g id="node4" class="node"><title>DONE</title>
<polygon fill="#aaffaa" stroke="black" stroke-width="0" points="12.9193,-12.4377 45.9076,3.55271e-15 78.8959,-12.4377 78.8651,-32.5623 12.9501,-32.5623 12.9193,-12.4377"/>
<text text-anchor="middle" x="45.9076" y="-15.5" font-family="Sans" font-size="10.00">DONE</text>
</g>
<!-- CHUNK&#45;&gt;DONE -->
<g id="edge4" class="edge"><title>CHUNK&#45;&gt;DONE</title>
<path fill="none" stroke="black" d="M45.9076,-76.3105C45.9076,-66.7829 45.9076,-53.8333 45.9076,-42.6539"/>
<polygon fill="black" stroke="black" points="49.4077,-42.6475 45.9076,-32.6475 42.4077,-42.6475 49.4077,-42.6475"/>
</g>
<!-- FETCH&#45;&gt;CHUNK -->
<g id="edge2" class="edge"><title>FETCH&#45;&gt;CHUNK</title>
<path fill="none" stroke="black" d="M26.1562,-162.794C16.9822,-156.9 6.99622,-148.55 1.90759,-138 -3.67821,-126.419 4.90093,-115.864 15.9237,-107.794"/>
<polygon fill="black" stroke="black" points="18.1583,-110.516 24.635,-102.131 14.3432,-104.647 18.1583,-110.516"/>
<text text-anchor="middle" x="35.9076" y="-130" font-family="Sans" font-size="10.00">[offset,length]</text>
</g>
</g>
</svg>
