<?xml version="1.0" encoding="UTF-8" standalone="no"?>
<!DOCTYPE svg PUBLIC "-//W3C//DTD SVG 1.1//EN"
 "http://www.w3.org/Graphics/SVG/1.1/DTD/svg11.dtd">
<!-- Generated by graphviz version 2.38.0 (20140413.2041)
 -->
<!-- Title: slave Pages: 1 -->
<svg width="186pt" height="326pt"
 viewBox="0.00 0.00 185.93 326.00" xmlns="http://www.w3.org/2000/svg" xmlns:xlink="http://www.w3.org/1999/xlink">
<g id="graph0" class="graph" transform="scale(1 1) rotate(0) translate(4 322)">
<title>slave</title>
<polygon fill="white" stroke="none" points="-4,4 -4,-322 181.926,-322 181.926,4 -4,4"/>
<!-- IMPORT -->
<g id="node1" class="node"><title>IMPORT</title>
<polygon fill="#ffaaaa" stroke="black" stroke-width="0" points="112.144,-305.562 74.9261,-318 37.7078,-305.562 37.7425,-285.438 112.11,-285.438 112.144,-305.562"/>
<text text-anchor="middle" x="74.9261" y="-297.5" font-family="Sans" font-size="10.00">IMPORT</text>
</g>
<!-- ERROR -->
<g id="node3" class="node"><title>ERROR</title>
<polygon fill="#aaffaa" stroke="black" stroke-width="0" points="0.073728,-178.438 34.9261,-166 69.7785,-178.438 69.746,-198.562 0.106259,-198.562 0.073728,-178.438"/>
<text text-anchor="middle" x="34.9261" y="-181.5" font-family="Sans" font-size="10.00">ERROR</text>
</g>
<!-- IMPORT&#45;&gt;ERROR -->
<g id="edge2" class="edge"><title>IMPORT&#45;&gt;ERROR</title>
<path fill="none" stroke="black" d="M57.0289,-285.131C50.8356,-279.315 44.5456,-272.032 40.9261,-264 33.1669,-246.78 32.0052,-225.305 32.5959,-209.093"/>
<polygon fill="black" stroke="black" points="36.1066,-209.023 33.2252,-198.827 29.1198,-208.595 36.1066,-209.023"/>
<text text-anchor="middle" x="66.9261" y="-239.5" font-family="Sans" font-size="10.00">[message]</text>
</g>
<!-- SEND -->
<g id="node4" class="node"><title>SEND</title>
<polygon fill="#aaffaa" stroke="black" stroke-width="0" points="87.8949,-178.438 119.926,-166 151.957,-178.438 151.927,-198.562 87.9248,-198.562 87.8949,-178.438"/>
<text text-anchor="middle" x="119.926" y="-181.5" font-family="Sans" font-size="10.00">SEND</text>
</g>
<!-- IMPORT&#45;&gt;SEND -->
<g id="edge1" class="edge"><title>IMPORT&#45;&gt;SEND</title>
<path fill="none" stroke="black" d="M82.5825,-285.257C85.9743,-278.893 89.8772,-271.168 92.9261,-264 100.745,-245.619 107.97,-224.134 112.975,-208.214"/>
<polygon fill="black" stroke="black" points="116.323,-209.231 115.927,-198.644 109.635,-207.168 116.323,-209.231"/>
<text text-anchor="middle" x="132.926" y="-256" font-family="Sans" font-size="10.00">[package,</text>
<text text-anchor="middle" x="132.926" y="-245" font-family="Sans" font-size="10.00">version,</text>
<text text-anchor="middle" x="132.926" y="-234" font-family="Sans" font-size="10.00">status,</text>
<text text-anchor="middle" x="132.926" y="-223" font-family="Sans" font-size="10.00">...</text>
</g>
<!-- SENT -->
<g id="node2" class="node"><title>SENT</title>
<polygon fill="#ffaaaa" stroke="black" stroke-width="0" points="149.547,-106.562 118.926,-119 88.3053,-106.562 88.3339,-86.4377 149.518,-86.4377 149.547,-106.562"/>
<text text-anchor="middle" x="118.926" y="-98.5" font-family="Sans" font-size="10.00">SENT</text>
</g>
<!-- SENT&#45;&gt;SEND -->
<g id="edge5" class="edge"><title>SENT&#45;&gt;SEND</title>
<path fill="none" stroke="black" d="M119.138,-119.153C119.269,-129.78 119.44,-143.663 119.59,-155.768"/>
<polygon fill="black" stroke="black" points="116.091,-155.866 119.714,-165.822 123.09,-155.78 116.091,-155.866"/>
<text text-anchor="middle" x="148.926" y="-140" font-family="Sans" font-size="10.00">failure/more</text>
</g>
<!-- DONE -->
<g id="node5" class="node"><title>DONE</title>
<polygon fill="#aaffaa" stroke="black" stroke-width="0" points="85.9378,-12.4377 118.926,3.55271e-15 151.914,-12.4377 151.884,-32.5623 85.9686,-32.5623 85.9378,-12.4377"/>
<text text-anchor="middle" x="118.926" y="-15.5" font-family="Sans" font-size="10.00">DONE</text>
</g>
<!-- SENT&#45;&gt;DONE -->
<g id="edge4" class="edge"><title>SENT&#45;&gt;DONE</title>
<path fill="none" stroke="black" d="M118.926,-86.2595C118.926,-74.3901 118.926,-56.9704 118.926,-42.8329"/>
<polygon fill="black" stroke="black" points="122.426,-42.8079 118.926,-32.808 115.426,-42.808 122.426,-42.8079"/>
<text text-anchor="middle" x="138.426" y="-57" font-family="Sans" font-size="10.00">success</text>
</g>
<!-- SEND&#45;&gt;SENT -->
<g id="edge3" class="edge"><title>SEND&#45;&gt;SENT</title>
<path fill="none" stroke="black" d="M118.232,-166.637C117.702,-160.767 117.187,-154.093 116.926,-148 116.659,-141.758 116.742,-135.04 116.985,-128.718"/>
<polygon fill="black" stroke="black" points="120.487,-128.776 117.513,-118.607 113.496,-128.411 120.487,-128.776"/>
</g>
</g>
</svg>
