<?xml version="1.0" encoding="UTF-8" standalone="no"?>
<!DOCTYPE svg PUBLIC "-//W3C//DTD SVG 1.1//EN"
 "http://www.w3.org/Graphics/SVG/1.1/DTD/svg11.dtd">
<!-- Generated by graphviz version 2.38.0 (20140413.2041)
 -->
<!-- Title: piwheels Pages: 1 -->
<svg width="927pt" height="780pt"
 viewBox="0.00 0.00 927.00 780.00" xmlns="http://www.w3.org/2000/svg" xmlns:xlink="http://www.w3.org/1999/xlink">
<g id="graph0" class="graph" transform="scale(1 1) rotate(0) translate(4 776)">
<title>piwheels</title>
<polygon fill="white" stroke="none" points="-4,4 -4,-776 923,-776 923,4 -4,4"/>
<g id="clust1" class="cluster"><title>cluster_db_server</title>
<polygon fill="#cccccc" stroke="black" points="284,-8 284,-324 663,-324 663,-8 284,-8"/>
<text text-anchor="middle" x="473.5" y="-308.8" font-family="Roboto" font-size="14.00">db&#45;server</text>
</g>
<g id="clust2" class="cluster"><title>cluster_file_server</title>
<polygon fill="#cccccc" stroke="black" points="8,-117 8,-444.5 222,-444.5 222,-117 8,-117"/>
<text text-anchor="middle" x="115" y="-429.3" font-family="Roboto" font-size="14.00">file&#45;server</text>
</g>
<g id="clust3" class="cluster"><title>cluster_master</title>
<polygon fill="#cccccc" stroke="black" points="230,-357 230,-584 911,-584 911,-357 230,-357"/>
<text text-anchor="middle" x="570.5" y="-568.8" font-family="Roboto" font-size="14.00">master</text>
</g>
<g id="clust4" class="cluster"><title>cluster_monitor</title>
<polygon fill="#cccccc" stroke="black" points="735,-236.5 735,-314.5 827,-314.5 827,-236.5 735,-236.5"/>
<text text-anchor="middle" x="781" y="-299.3" font-family="Roboto" font-size="14.00">monitor</text>
</g>
<g id="clust5" class="cluster"><title>cluster_slave1</title>
<polygon fill="#cccccc" stroke="black" points="509,-617 509,-695 611,-695 611,-617 509,-617"/>
<text text-anchor="middle" x="560" y="-679.8" font-family="Roboto" font-size="14.00">slave1</text>
</g>
<g id="clust6" class="cluster"><title>cluster_slave2</title>
<polygon fill="#cccccc" stroke="black" points="631,-617 631,-695 733,-695 733,-617 631,-617"/>
<text text-anchor="middle" x="682" y="-679.8" font-family="Roboto" font-size="14.00">slave2</text>
</g>
<g id="clust7" class="cluster"><title>cluster_import</title>
<polygon fill="#cccccc" stroke="black" points="198,-617 198,-695 300,-695 300,-617 198,-617"/>
<text text-anchor="middle" x="249" y="-679.8" font-family="Roboto" font-size="14.00">import</text>
</g>
<!-- PyPI -->
<g id="node1" class="node"><title>PyPI</title>
<polygon fill="#9999ff" stroke="black" points="684.683,-736.049 686.459,-736.148 688.216,-736.295 689.948,-736.491 691.648,-736.735 693.308,-737.027 694.923,-737.364 696.485,-737.748 697.989,-738.176 699.429,-738.647 700.8,-739.161 702.098,-739.715 703.317,-740.308 704.455,-740.939 705.507,-741.605 706.472,-742.306 707.346,-743.039 708.127,-743.801 708.815,-744.592 709.408,-745.408 709.906,-746.248 710.309,-747.109 710.617,-747.989 710.832,-748.886 710.956,-749.797 710.989,-750.719 710.934,-751.65 710.794,-752.587 710.571,-753.529 710.269,-754.471 709.89,-755.413 709.439,-756.35 708.918,-757.281 708.332,-758.203 707.685,-759.114 706.981,-760.011 706.223,-760.891 705.415,-761.752 704.561,-762.592 703.666,-763.408 702.732,-764.199 701.764,-764.961 700.764,-765.694 699.737,-766.395 698.684,-767.061 697.61,-767.692 696.516,-768.285 695.405,-768.839 694.28,-769.353 693.142,-769.824 691.994,-770.252 690.837,-770.636 689.672,-770.973 688.501,-771.265 687.325,-771.509 686.145,-771.705 684.963,-771.852 683.779,-771.951 682.593,-772 681.407,-772 680.221,-771.951 679.037,-771.852 677.855,-771.705 676.675,-771.509 675.499,-771.265 674.328,-770.973 673.163,-770.636 672.006,-770.252 670.858,-769.824 669.72,-769.353 668.595,-768.839 667.484,-768.285 666.39,-767.692 665.316,-767.061 664.263,-766.395 663.236,-765.694 662.236,-764.961 661.268,-764.199 660.334,-763.408 659.439,-762.592 658.585,-761.752 657.777,-760.891 657.019,-760.011 656.315,-759.114 655.668,-758.203 655.082,-757.281 654.561,-756.35 654.11,-755.413 653.731,-754.471 653.429,-753.529 653.206,-752.587 653.066,-751.65 653.011,-750.719 653.044,-749.797 653.168,-748.886 653.383,-747.989 653.691,-747.109 654.094,-746.248 654.592,-745.408 655.185,-744.592 655.873,-743.801 656.654,-743.039 657.528,-742.306 658.493,-741.605 659.545,-740.939 660.683,-740.308 661.902,-739.715 663.2,-739.161 664.571,-738.647 666.011,-738.176 667.515,-737.748 669.077,-737.364 670.692,-737.027 672.352,-736.735 674.052,-736.491 675.784,-736.295 677.541,-736.148 679.317,-736.049 681.105,-736 682.895,-736 684.683,-736.049"/>
<text text-anchor="middle" x="682" y="-751.5" font-family="Roboto" font-size="10.00">PyPI</text>
</g>
<!-- CloudGazer -->
<g id="node13" class="node"><title>CloudGazer</title>
<polygon fill="#9999ff" stroke="black" points="837.5,-505 837.5,-543 902.5,-543 902.5,-505 837.5,-505"/>
<text text-anchor="middle" x="870" y="-531" font-family="Roboto" font-size="10.00">CloudGazer</text>
<polyline fill="none" stroke="black" points="837.5,-524 902.5,-524 "/>
<text text-anchor="middle" x="870" y="-512" font-family="Roboto" font-size="10.00">REQ</text>
</g>
<!-- PyPI&#45;&gt;CloudGazer -->
<g id="edge14" class="edge"><title>PyPI&#45;&gt;CloudGazer:t</title>
<path fill="none" stroke="black" d="M705.43,-741.18C754.055,-714.863 862.051,-646.409 869.584,-554.176"/>
<polygon fill="black" stroke="black" points="873.089,-554.135 870,-544 866.095,-553.849 873.089,-554.135"/>
</g>
<!-- Slave1 -->
<g id="node19" class="node"><title>Slave1</title>
<polygon fill="#9999ff" stroke="black" points="517,-625.5 517,-663.5 603,-663.5 603,-625.5 517,-625.5"/>
<text text-anchor="middle" x="560" y="-651.5" font-family="Roboto" font-size="10.00">main</text>
<polyline fill="none" stroke="black" points="517,-644.5 603,-644.5 "/>
<text text-anchor="middle" x="542.5" y="-632.5" font-family="Roboto" font-size="10.00">DEALER</text>
<polyline fill="none" stroke="black" points="568,-625.5 568,-644.5 "/>
<text text-anchor="middle" x="585.5" y="-632.5" font-family="Roboto" font-size="10.00">REQ</text>
</g>
<!-- PyPI&#45;&gt;Slave1 -->
<g id="edge15" class="edge"><title>PyPI&#45;&gt;Slave1:t</title>
<path fill="none" stroke="black" d="M663.916,-738.769C650.961,-727.861 633.79,-711.859 622,-695 613.533,-682.894 618.722,-666.166 613.535,-658.558"/>
<polygon fill="black" stroke="black" points="614.572,-655.196 604,-654.5 611.831,-661.637 614.572,-655.196"/>
</g>
<!-- Slave2 -->
<g id="node20" class="node"><title>Slave2</title>
<polygon fill="#9999ff" stroke="black" points="639,-625.5 639,-663.5 725,-663.5 725,-625.5 639,-625.5"/>
<text text-anchor="middle" x="682" y="-651.5" font-family="Roboto" font-size="10.00">main</text>
<polyline fill="none" stroke="black" points="639,-644.5 725,-644.5 "/>
<text text-anchor="middle" x="664.5" y="-632.5" font-family="Roboto" font-size="10.00">DEALER</text>
<polyline fill="none" stroke="black" points="690,-625.5 690,-644.5 "/>
<text text-anchor="middle" x="707.5" y="-632.5" font-family="Roboto" font-size="10.00">REQ</text>
</g>
<!-- PyPI&#45;&gt;Slave2 -->
<g id="edge16" class="edge"><title>PyPI&#45;&gt;Slave2:t</title>
<path fill="none" stroke="black" d="M682,-735.703C682,-720.233 682,-696.651 682,-674.528"/>
<polygon fill="black" stroke="black" points="685.5,-674.5 682,-664.5 678.5,-674.5 685.5,-674.5"/>
</g>
<!-- Users -->
<g id="node2" class="node"><title>Users</title>
<polygon fill="#9999ff" stroke="black" points="120.683,-16.0493 122.459,-16.1479 124.216,-16.2953 125.948,-16.4913 127.648,-16.7353 129.308,-17.0266 130.923,-17.3645 132.485,-17.7479 133.989,-18.1759 135.429,-18.6472 136.8,-19.1606 138.098,-19.7147 139.317,-20.308 140.455,-20.9388 141.507,-21.6054 142.472,-22.3059 143.346,-23.0385 144.127,-23.8012 144.815,-24.5918 145.408,-25.4082 145.906,-26.2481 146.309,-27.1093 146.617,-27.9894 146.832,-28.886 146.956,-29.7965 146.989,-30.7186 146.934,-31.6497 146.794,-32.5873 146.571,-33.5287 146.269,-34.4713 145.89,-35.4127 145.439,-36.3503 144.918,-37.2814 144.332,-38.2035 143.685,-39.114 142.981,-40.0106 142.223,-40.8907 141.415,-41.7519 140.561,-42.5918 139.666,-43.4082 138.732,-44.1988 137.764,-44.9615 136.764,-45.6941 135.737,-46.3946 134.684,-47.0612 133.61,-47.692 132.516,-48.2853 131.405,-48.8394 130.28,-49.3528 129.142,-49.8241 127.994,-50.2521 126.837,-50.6355 125.672,-50.9734 124.501,-51.2647 123.325,-51.5087 122.145,-51.7047 120.963,-51.8521 119.779,-51.9507 118.593,-52 117.407,-52 116.221,-51.9507 115.037,-51.8521 113.855,-51.7047 112.675,-51.5087 111.499,-51.2647 110.328,-50.9734 109.163,-50.6355 108.006,-50.2521 106.858,-49.8241 105.72,-49.3528 104.595,-48.8394 103.484,-48.2853 102.39,-47.692 101.316,-47.0612 100.263,-46.3946 99.2356,-45.6941 98.2361,-44.9615 97.2677,-44.1988 96.3341,-43.4082 95.4387,-42.5918 94.5852,-41.7519 93.7775,-40.8907 93.0193,-40.0106 92.3147,-39.114 91.6676,-38.2035 91.0819,-37.2814 90.5614,-36.3503 90.11,-35.4127 89.7313,-34.4713 89.4289,-33.5287 89.2061,-32.5873 89.0658,-31.6497 89.011,-30.7186 89.0442,-29.7965 89.1675,-28.886 89.3828,-27.9894 89.6915,-27.1093 90.0945,-26.2481 90.5925,-25.4082 91.1854,-24.5918 91.8731,-23.8012 92.6545,-23.0385 93.5283,-22.3059 94.4926,-21.6054 95.5451,-20.9388 96.6828,-20.308 97.9024,-19.7147 99.2,-19.1606 100.571,-18.6472 102.011,-18.1759 103.515,-17.7479 105.077,-17.3645 106.692,-17.0266 108.352,-16.7353 110.052,-16.4913 111.784,-16.2953 113.541,-16.1479 115.317,-16.0493 117.105,-16 118.895,-16 120.683,-16.0493"/>
<text text-anchor="middle" x="118" y="-31.5" font-family="Roboto" font-size="10.00">Users</text>
</g>
<!-- TheOracle1 -->
<g id="node3" class="node"><title>TheOracle1</title>
<polygon fill="#9999ff" stroke="black" points="486.5,-124.5 486.5,-162.5 547.5,-162.5 547.5,-124.5 486.5,-124.5"/>
<text text-anchor="middle" x="517" y="-150.5" font-family="Roboto" font-size="10.00">REQ</text>
<polyline fill="none" stroke="black" points="486.5,-143.5 547.5,-143.5 "/>
<text text-anchor="middle" x="517" y="-131.5" font-family="Roboto" font-size="10.00">TheOracle</text>
</g>
<!-- db -->
<g id="node8" class="node"><title>db</title>
<polygon fill="#9999ff" stroke="black" points="496,-52 493,-56 472,-56 469,-52 440,-52 440,-16 496,-16 496,-52"/>
<text text-anchor="middle" x="468" y="-37" font-family="Roboto" font-size="10.00">piwheels</text>
<text text-anchor="middle" x="468" y="-26" font-family="Roboto" font-size="10.00">database</text>
</g>
<!-- TheOracle1&#45;&gt;db -->
<g id="edge4" class="edge"><title>TheOracle1:t&#45;&gt;db</title>
<path fill="none" stroke="black" d="M476.782,-127.579C469.327,-114.947 467.629,-84.6764 467.48,-62.167"/>
<polygon fill="black" stroke="black" points="474.841,-130.494 485,-133.5 478.933,-124.814 474.841,-130.494"/>
<polygon fill="black" stroke="black" points="470.979,-62.1675 467.508,-52.1574 463.979,-62.1472 470.979,-62.1675"/>
</g>
<!-- TheOracle2 -->
<g id="node4" class="node"><title>TheOracle2</title>
<polygon fill="#9999ff" stroke="black" points="292.5,-124.5 292.5,-162.5 353.5,-162.5 353.5,-124.5 292.5,-124.5"/>
<text text-anchor="middle" x="323" y="-150.5" font-family="Roboto" font-size="10.00">REQ</text>
<polyline fill="none" stroke="black" points="292.5,-143.5 353.5,-143.5 "/>
<text text-anchor="middle" x="323" y="-131.5" font-family="Roboto" font-size="10.00">TheOracle</text>
</g>
<!-- TheOracle2&#45;&gt;db -->
<g id="edge5" class="edge"><title>TheOracle2:t&#45;&gt;db</title>
<path fill="none" stroke="black" d="M363.691,-128.464C365.649,-125.129 367.034,-120.704 371,-117 392.997,-96.4543 419.114,-74.5056 438.704,-58.4913"/>
<polygon fill="black" stroke="black" points="361.898,-125.458 355,-133.5 365.407,-131.515 361.898,-125.458"/>
<polygon fill="black" stroke="black" points="441.119,-61.0382 446.668,-52.0128 436.702,-55.6077 441.119,-61.0382"/>
</g>
<!-- TheOracle3 -->
<g id="node5" class="node"><title>TheOracle3</title>
<polygon fill="#9999ff" stroke="black" points="389.5,-124.5 389.5,-162.5 450.5,-162.5 450.5,-124.5 389.5,-124.5"/>
<text text-anchor="middle" x="420" y="-150.5" font-family="Roboto" font-size="10.00">REQ</text>
<polyline fill="none" stroke="black" points="389.5,-143.5 450.5,-143.5 "/>
<text text-anchor="middle" x="420" y="-131.5" font-family="Roboto" font-size="10.00">TheOracle</text>
</g>
<!-- TheOracle3&#45;&gt;db -->
<g id="edge6" class="edge"><title>TheOracle3:t&#45;&gt;db</title>
<path fill="none" stroke="black" d="M460.146,-127.579C467.464,-114.947 468.861,-84.6764 468.788,-62.167"/>
<polygon fill="black" stroke="black" points="458.031,-124.789 452,-133.5 462.147,-130.451 458.031,-124.789"/>
<polygon fill="black" stroke="black" points="472.287,-62.1119 468.66,-52.1574 465.288,-62.2012 472.287,-62.1119"/>
</g>
<!-- TheArchitect -->
<g id="node6" class="node"><title>TheArchitect</title>
<polygon fill="#9999ff" stroke="black" points="583.5,-124.5 583.5,-162.5 654.5,-162.5 654.5,-124.5 583.5,-124.5"/>
<text text-anchor="middle" x="619" y="-150.5" font-family="Roboto" font-size="10.00">REP</text>
<polyline fill="none" stroke="black" points="583.5,-143.5 654.5,-143.5 "/>
<text text-anchor="middle" x="619" y="-131.5" font-family="Roboto" font-size="10.00">TheArchitect</text>
</g>
<!-- TheArchitect&#45;&gt;db -->
<g id="edge7" class="edge"><title>TheArchitect:t&#45;&gt;db</title>
<path fill="none" stroke="black" d="M573.04,-128.788C570.802,-125.438 569.267,-120.866 565,-117 539.507,-93.9028 509.064,-68.5056 489.17,-52.1884"/>
<polygon fill="black" stroke="black" points="571.52,-131.944 582,-133.5 574.778,-125.748 571.52,-131.944"/>
</g>
<!-- Seraph -->
<g id="node7" class="node"><title>Seraph</title>
<polygon fill="#9999ff" stroke="black" points="418,-235.5 418,-292.5 472,-292.5 472,-235.5 418,-235.5"/>
<text text-anchor="middle" x="445" y="-280.5" font-family="Roboto" font-size="10.00">ROUTER</text>
<polyline fill="none" stroke="black" points="418,-273.5 472,-273.5 "/>
<text text-anchor="middle" x="445" y="-261.5" font-family="Roboto" font-size="10.00">Seraph</text>
<polyline fill="none" stroke="black" points="418,-254.5 472,-254.5 "/>
<text text-anchor="middle" x="445" y="-242.5" font-family="Roboto" font-size="10.00">ROUTER</text>
</g>
<!-- Seraph&#45;&gt;TheOracle1 -->
<g id="edge1" class="edge"><title>Seraph:oracle&#45;&gt;TheOracle1:Seraph</title>
<path fill="none" stroke="black" d="M482.763,-241.956C497.867,-228.064 460.284,-170.759 475.124,-156.65"/>
<polygon fill="black" stroke="black" points="481.505,-238.682 473,-245 483.589,-245.364 481.505,-238.682"/>
<polygon fill="black" stroke="black" points="476.536,-159.873 485,-153.5 474.409,-153.204 476.536,-159.873"/>
</g>
<!-- Seraph&#45;&gt;TheOracle2 -->
<g id="edge2" class="edge"><title>Seraph:oracle&#45;&gt;TheOracle2:Seraph</title>
<path fill="none" stroke="black" d="M407.777,-240.587C391.775,-225.165 380.367,-173.769 364.399,-158.084"/>
<polygon fill="black" stroke="black" points="406.469,-243.841 417,-245 409.49,-237.526 406.469,-243.841"/>
<polygon fill="black" stroke="black" points="365.522,-154.738 355,-153.5 362.453,-161.03 365.522,-154.738"/>
</g>
<!-- Seraph&#45;&gt;TheOracle3 -->
<g id="edge3" class="edge"><title>Seraph:oracle&#45;&gt;TheOracle3:Seraph</title>
<path fill="none" stroke="black" d="M444.168,-224.871C440.356,-202.872 424.575,-195.054 420.81,-173.001"/>
<polygon fill="black" stroke="black" points="440.693,-225.32 445,-235 447.67,-224.747 440.693,-225.32"/>
<polygon fill="black" stroke="black" points="424.296,-172.685 420,-163 417.318,-173.25 424.296,-172.685"/>
</g>
<!-- FileJuggler -->
<g id="node9" class="node"><title>FileJuggler</title>
<polygon fill="#9999ff" stroke="black" points="16.5,-375 16.5,-413 103.5,-413 103.5,-375 16.5,-375"/>
<text text-anchor="middle" x="43" y="-401" font-family="Roboto" font-size="10.00">ROUTER</text>
<polyline fill="none" stroke="black" points="69.5,-394 69.5,-413 "/>
<text text-anchor="middle" x="86.5" y="-401" font-family="Roboto" font-size="10.00">REP</text>
<polyline fill="none" stroke="black" points="16.5,-394 103.5,-394 "/>
<text text-anchor="middle" x="60" y="-382" font-family="Roboto" font-size="10.00">FileJuggler</text>
</g>
<!-- fs -->
<g id="node11" class="node"><title>fs</title>
<polygon fill="#9999ff" stroke="black" points="148.5,-282 145.5,-286 124.5,-286 121.5,-282 87.5,-282 87.5,-246 148.5,-246 148.5,-282"/>
<text text-anchor="middle" x="118" y="-267" font-family="Roboto" font-size="10.00">www</text>
<text text-anchor="middle" x="118" y="-256" font-family="Roboto" font-size="10.00">filesystem</text>
</g>
<!-- FileJuggler&#45;&gt;fs -->
<g id="edge9" class="edge"><title>FileJuggler:t&#45;&gt;fs</title>
<path fill="none" stroke="black" d="M113.502,-378.415C123.009,-363.268 122.142,-320.639 120.316,-292.178"/>
<polygon fill="black" stroke="black" points="111.436,-375.584 105,-384 115.28,-381.435 111.436,-375.584"/>
<polygon fill="black" stroke="black" points="123.796,-291.774 119.589,-282.05 116.814,-292.275 123.796,-291.774"/>
</g>
<!-- IndexScribe -->
<g id="node10" class="node"><title>IndexScribe</title>
<polygon fill="#9999ff" stroke="black" points="140,-375 140,-413 214,-413 214,-375 140,-375"/>
<text text-anchor="middle" x="159.5" y="-401" font-family="Roboto" font-size="10.00">PULL</text>
<polyline fill="none" stroke="black" points="179,-394 179,-413 "/>
<text text-anchor="middle" x="196.5" y="-401" font-family="Roboto" font-size="10.00">REQ</text>
<polyline fill="none" stroke="black" points="140,-394 214,-394 "/>
<text text-anchor="middle" x="177" y="-382" font-family="Roboto" font-size="10.00">IndexScribe</text>
</g>
<!-- IndexScribe&#45;&gt;Seraph -->
<g id="edge29" class="edge"><title>IndexScribe:db&#45;&gt;Seraph:db</title>
<path fill="none" stroke="black" d="M219.721,-395.169C220.425,-383.224 216.463,-362.746 221,-357 276.562,-286.634 320.516,-283.168 406.829,-283.007"/>
<polygon fill="black" stroke="black" points="216.628,-393.531 215,-404 222.801,-396.831 216.628,-393.531"/>
<polygon fill="black" stroke="black" points="407.003,-286.507 417,-283 406.997,-279.507 407.003,-286.507"/>
</g>
<!-- IndexScribe&#45;&gt;fs -->
<g id="edge8" class="edge"><title>IndexScribe:t&#45;&gt;fs</title>
<path fill="none" stroke="black" d="M139,-384C120.463,-384 117.512,-327.294 117.461,-292.17"/>
<polygon fill="black" stroke="black" points="120.962,-292.072 117.525,-282.05 113.962,-292.028 120.962,-292.072"/>
</g>
<!-- httpd -->
<g id="node12" class="node"><title>httpd</title>
<polygon fill="#9999ff" stroke="black" points="91,-125.5 91,-161.5 145,-161.5 145,-125.5 91,-125.5"/>
<text text-anchor="middle" x="118" y="-141" font-family="Roboto" font-size="10.00">httpd</text>
</g>
<!-- fs&#45;&gt;httpd -->
<g id="edge10" class="edge"><title>fs&#45;&gt;httpd</title>
<path fill="none" stroke="black" d="M118,-245.769C118,-226.374 118,-194.603 118,-171.817"/>
<polygon fill="black" stroke="black" points="121.5,-171.752 118,-161.752 114.5,-171.752 121.5,-171.752"/>
</g>
<!-- httpd&#45;&gt;Users -->
<g id="edge37" class="edge"><title>httpd&#45;&gt;Users</title>
<path fill="none" stroke="black" d="M118,-125.228C118,-108.302 118,-82.238 118,-62.4672"/>
<polygon fill="black" stroke="black" points="121.5,-62.2288 118,-52.2289 114.5,-62.2289 121.5,-62.2288"/>
</g>
<!-- CloudGazer&#45;&gt;Seraph -->
<g id="edge25" class="edge"><title>CloudGazer:db&#45;&gt;Seraph:db</title>
<path fill="none" stroke="black" d="M827.521,-508.176C825.731,-504.131 824.687,-498.805 820,-495 783.182,-465.108 766.739,-468.779 726,-444.5 614.428,-378.007 606.741,-287.898 483.289,-283.192"/>
<polygon fill="black" stroke="black" points="825.775,-511.223 836,-514 829.739,-505.453 825.775,-511.223"/>
<polygon fill="black" stroke="black" points="483.064,-279.688 473,-283 482.933,-286.686 483.064,-279.688"/>
</g>
<!-- main -->
<g id="node14" class="node"><title>main</title>
<polygon fill="#9999ff" stroke="black" points="744,-365.5 744,-422.5 818,-422.5 818,-365.5 744,-365.5"/>
<text text-anchor="middle" x="781" y="-410.5" font-family="Roboto" font-size="10.00">PULL</text>
<polyline fill="none" stroke="black" points="744,-403.5 818,-403.5 "/>
<text text-anchor="middle" x="781" y="-391.5" font-family="Roboto" font-size="10.00">main</text>
<polyline fill="none" stroke="black" points="744,-384.5 818,-384.5 "/>
<text text-anchor="middle" x="763.5" y="-372.5" font-family="Roboto" font-size="10.00">PULL</text>
<polyline fill="none" stroke="black" points="783,-365.5 783,-384.5 "/>
<text text-anchor="middle" x="800.5" y="-372.5" font-family="Roboto" font-size="10.00">PUB</text>
</g>
<!-- monitor -->
<g id="node18" class="node"><title>monitor</title>
<polygon fill="#9999ff" stroke="black" points="743,-245 743,-283 819,-283 819,-245 743,-245"/>
<text text-anchor="middle" x="763.5" y="-271" font-family="Roboto" font-size="10.00">PUSH</text>
<polyline fill="none" stroke="black" points="784,-264 784,-283 "/>
<text text-anchor="middle" x="801.5" y="-271" font-family="Roboto" font-size="10.00">SUB</text>
<polyline fill="none" stroke="black" points="743,-264 819,-264 "/>
<text text-anchor="middle" x="781" y="-252" font-family="Roboto" font-size="10.00">main</text>
</g>
<!-- main&#45;&gt;monitor -->
<g id="edge23" class="edge"><title>main:ext_status&#45;&gt;monitor:status</title>
<path fill="none" stroke="black" d="M801,-364C801,-332.053 801.807,-321.638 801.971,-294.065"/>
<polygon fill="black" stroke="black" points="805.471,-294.01 802,-284 798.471,-293.99 805.471,-294.01"/>
</g>
<!-- BigBrother -->
<g id="node15" class="node"><title>BigBrother</title>
<polygon fill="#9999ff" stroke="black" points="238,-505 238,-543 390,-543 390,-505 238,-505"/>
<text text-anchor="middle" x="314" y="-531" font-family="Roboto" font-size="10.00">BigBrother</text>
<polyline fill="none" stroke="black" points="238,-524 390,-524 "/>
<text text-anchor="middle" x="258.5" y="-512" font-family="Roboto" font-size="10.00">PUSH</text>
<polyline fill="none" stroke="black" points="279,-505 279,-524 "/>
<text text-anchor="middle" x="296.5" y="-512" font-family="Roboto" font-size="10.00">REQ</text>
<polyline fill="none" stroke="black" points="314,-505 314,-524 "/>
<text text-anchor="middle" x="331.5" y="-512" font-family="Roboto" font-size="10.00">REQ</text>
<polyline fill="none" stroke="black" points="349,-505 349,-524 "/>
<text text-anchor="middle" x="369.5" y="-512" font-family="Roboto" font-size="10.00">PUSH</text>
</g>
<!-- BigBrother&#45;&gt;Seraph -->
<g id="edge30" class="edge"><title>BigBrother:db&#45;&gt;Seraph:db</title>
<path fill="none" stroke="black" d="M331.942,-493.797C330.864,-394.921 316.209,-290.405 406.963,-283.375"/>
<polygon fill="black" stroke="black" points="328.443,-494.02 332,-504 335.443,-493.98 328.443,-494.02"/>
<polygon fill="black" stroke="black" points="407.138,-286.871 417,-283 406.876,-279.876 407.138,-286.871"/>
</g>
<!-- BigBrother&#45;&gt;FileJuggler -->
<g id="edge31" class="edge"><title>BigBrother:fs&#45;&gt;FileJuggler:fs</title>
<path fill="none" stroke="black" d="M295.323,-493.926C285.843,-429.01 179.038,-497.789 122,-444.5 111.413,-434.609 117.93,-417.091 114.013,-408.715"/>
<polygon fill="black" stroke="black" points="291.838,-494.257 296,-504 298.822,-493.788 291.838,-494.257"/>
<polygon fill="black" stroke="black" points="115.483,-405.534 105,-404 112.238,-411.737 115.483,-405.534"/>
</g>
<!-- BigBrother&#45;&gt;IndexScribe -->
<g id="edge26" class="edge"><title>BigBrother:indexes&#45;&gt;IndexScribe:indexes</title>
<path fill="none" stroke="black" d="M237,-514C224.89,-514 175.989,-450.554 162.475,-423.767"/>
<polygon fill="black" stroke="black" points="165.65,-422.248 159,-414 159.055,-424.595 165.65,-422.248"/>
</g>
<!-- BigBrother&#45;&gt;main -->
<g id="edge11" class="edge"><title>BigBrother:int_status&#45;&gt;main:int_status</title>
<path fill="none" stroke="black" d="M391,-514C402.331,-514 398.284,-500.83 408,-495 536.484,-417.9 587.416,-413.179 732.825,-413.006"/>
<polygon fill="black" stroke="black" points="733.002,-416.506 743,-413 732.998,-409.506 733.002,-416.506"/>
</g>
<!-- SlaveDriver -->
<g id="node16" class="node"><title>SlaveDriver</title>
<polygon fill="#9999ff" stroke="black" points="614.5,-495.5 614.5,-552.5 801.5,-552.5 801.5,-495.5 614.5,-495.5"/>
<text text-anchor="middle" x="708" y="-540.5" font-family="Roboto" font-size="10.00">ROUTER</text>
<polyline fill="none" stroke="black" points="614.5,-533.5 801.5,-533.5 "/>
<text text-anchor="middle" x="708" y="-521.5" font-family="Roboto" font-size="10.00">SlaveDriver</text>
<polyline fill="none" stroke="black" points="614.5,-514.5 801.5,-514.5 "/>
<text text-anchor="middle" x="635" y="-502.5" font-family="Roboto" font-size="10.00">PUSH</text>
<polyline fill="none" stroke="black" points="655.5,-495.5 655.5,-514.5 "/>
<text text-anchor="middle" x="673" y="-502.5" font-family="Roboto" font-size="10.00">REQ</text>
<polyline fill="none" stroke="black" points="690.5,-495.5 690.5,-514.5 "/>
<text text-anchor="middle" x="708" y="-502.5" font-family="Roboto" font-size="10.00">REQ</text>
<polyline fill="none" stroke="black" points="725.5,-495.5 725.5,-514.5 "/>
<text text-anchor="middle" x="743" y="-502.5" font-family="Roboto" font-size="10.00">REQ</text>
<polyline fill="none" stroke="black" points="760.5,-495.5 760.5,-514.5 "/>
<text text-anchor="middle" x="781" y="-502.5" font-family="Roboto" font-size="10.00">PUSH</text>
</g>
<!-- SlaveDriver&#45;&gt;TheArchitect -->
<g id="edge34" class="edge"><title>SlaveDriver:builds&#45;&gt;TheArchitect:builds</title>
<path fill="none" stroke="black" d="M740.057,-485.111C723.15,-435.819 638.547,-221.403 621.861,-172.65"/>
<polygon fill="black" stroke="black" points="736.793,-486.414 743,-495 743.502,-484.417 736.793,-486.414"/>
<polygon fill="black" stroke="black" points="625.198,-171.593 619,-163 618.487,-173.582 625.198,-171.593"/>
</g>
<!-- SlaveDriver&#45;&gt;Seraph -->
<g id="edge33" class="edge"><title>SlaveDriver:db&#45;&gt;Seraph:db</title>
<path fill="none" stroke="black" d="M707.087,-484.961C698.388,-442.092 629.537,-478.6 587,-444.5 521.261,-391.799 557.567,-291.653 483.17,-283.527"/>
<polygon fill="black" stroke="black" points="703.609,-485.358 708,-495 710.58,-484.724 703.609,-485.358"/>
<polygon fill="black" stroke="black" points="483.168,-280.022 473,-283 482.806,-287.013 483.168,-280.022"/>
</g>
<!-- SlaveDriver&#45;&gt;FileJuggler -->
<g id="edge32" class="edge"><title>SlaveDriver:fs&#45;&gt;FileJuggler:fs</title>
<path fill="none" stroke="black" d="M668.657,-485.858C619.51,-438.446 168.878,-478.851 122,-444.5 110.313,-435.936 117.363,-417.775 113.794,-408.98"/>
<polygon fill="black" stroke="black" points="665.548,-487.469 673,-495 671.87,-484.466 665.548,-487.469"/>
<polygon fill="black" stroke="black" points="115.426,-405.882 105,-404 111.977,-411.973 115.426,-405.882"/>
</g>
<!-- SlaveDriver&#45;&gt;IndexScribe -->
<g id="edge27" class="edge"><title>SlaveDriver:indexes&#45;&gt;IndexScribe:indexes</title>
<path fill="none" stroke="black" d="M613,-505C604.234,-505 604.285,-497.864 596,-495 437.056,-440.061 381.881,-493.477 221,-444.5 195.524,-436.744 167.608,-442.597 160.642,-424.262"/>
<polygon fill="black" stroke="black" points="164.036,-423.321 159,-414 157.124,-424.427 164.036,-423.321"/>
</g>
<!-- SlaveDriver&#45;&gt;main -->
<g id="edge12" class="edge"><title>SlaveDriver:int_status&#45;&gt;main:int_status</title>
<path fill="none" stroke="black" d="M781,-495C781,-459.853 721.153,-423.432 733.1,-414.876"/>
<polygon fill="black" stroke="black" points="733.827,-418.301 743,-413 732.523,-411.423 733.827,-418.301"/>
</g>
<!-- MrChase -->
<g id="node17" class="node"><title>MrChase</title>
<polygon fill="#9999ff" stroke="black" points="426,-495.5 426,-552.5 578,-552.5 578,-495.5 426,-495.5"/>
<text text-anchor="middle" x="502" y="-540.5" font-family="Roboto" font-size="10.00">ROUTER</text>
<polyline fill="none" stroke="black" points="426,-533.5 578,-533.5 "/>
<text text-anchor="middle" x="502" y="-521.5" font-family="Roboto" font-size="10.00">MrChase</text>
<polyline fill="none" stroke="black" points="426,-514.5 578,-514.5 "/>
<text text-anchor="middle" x="446.5" y="-502.5" font-family="Roboto" font-size="10.00">PUSH</text>
<polyline fill="none" stroke="black" points="467,-495.5 467,-514.5 "/>
<text text-anchor="middle" x="484.5" y="-502.5" font-family="Roboto" font-size="10.00">REQ</text>
<polyline fill="none" stroke="black" points="502,-495.5 502,-514.5 "/>
<text text-anchor="middle" x="519.5" y="-502.5" font-family="Roboto" font-size="10.00">REQ</text>
<polyline fill="none" stroke="black" points="537,-495.5 537,-514.5 "/>
<text text-anchor="middle" x="557.5" y="-502.5" font-family="Roboto" font-size="10.00">PUSH</text>
</g>
<!-- MrChase&#45;&gt;Seraph -->
<g id="edge36" class="edge"><title>MrChase:db&#45;&gt;Seraph:db</title>
<path fill="none" stroke="black" d="M519.052,-484.769C510.98,-437.151 453.912,-351.657 445.927,-304.105"/>
<polygon fill="black" stroke="black" points="515.592,-485.366 520,-495 522.562,-484.72 515.592,-485.366"/>
<polygon fill="black" stroke="black" points="449.399,-303.638 445,-294 442.428,-304.278 449.399,-303.638"/>
</g>
<!-- MrChase&#45;&gt;FileJuggler -->
<g id="edge35" class="edge"><title>MrChase:fs&#45;&gt;FileJuggler:fs</title>
<path fill="none" stroke="black" d="M482.246,-485.005C457.73,-420.726 183.474,-491.816 122,-444.5 110.519,-435.663 117.469,-417.634 113.835,-408.926"/>
<polygon fill="black" stroke="black" points="478.824,-485.755 484,-495 485.719,-484.546 478.824,-485.755"/>
<polygon fill="black" stroke="black" points="115.439,-405.813 105,-404 112.03,-411.927 115.439,-405.813"/>
</g>
<!-- MrChase&#45;&gt;IndexScribe -->
<g id="edge28" class="edge"><title>MrChase:indexes&#45;&gt;IndexScribe:indexes</title>
<path fill="none" stroke="black" d="M425,-505C416.234,-505 416.082,-498.395 408,-495 328.632,-461.655 301.556,-474.864 221,-444.5 196.081,-435.107 167.756,-442.162 160.672,-424.175"/>
<polygon fill="black" stroke="black" points="164.075,-423.3 159,-414 157.168,-424.435 164.075,-423.3"/>
</g>
<!-- MrChase&#45;&gt;main -->
<g id="edge13" class="edge"><title>MrChase:int_status&#45;&gt;main:int_status</title>
<path fill="none" stroke="black" d="M579,-505C579.561,-505 699.794,-437.056 734.013,-417.946"/>
<polygon fill="black" stroke="black" points="735.927,-420.888 743,-413 732.552,-414.755 735.927,-420.888"/>
</g>
<!-- monitor&#45;&gt;main -->
<g id="edge24" class="edge"><title>monitor:control&#45;&gt;main:control</title>
<path fill="none" stroke="black" d="M763,-284C763,-315.944 763,-326.364 763,-353.936"/>
<polygon fill="black" stroke="black" points="759.5,-354 763,-364 766.5,-354 759.5,-354"/>
</g>
<!-- Slave1&#45;&gt;FileJuggler -->
<g id="edge19" class="edge"><title>Slave1:files&#45;&gt;FileJuggler:slaves</title>
<path fill="none" stroke="black" d="M505.647,-634.171C440.7,-630.92 187.097,-604.285 155,-584 137.783,-573.119 60.7714,-462.351 45.5999,-423.88"/>
<polygon fill="black" stroke="black" points="505.894,-637.68 516,-634.5 506.116,-630.684 505.894,-637.68"/>
<polygon fill="black" stroke="black" points="48.9297,-422.78 43,-414 42.1601,-424.561 48.9297,-422.78"/>
</g>
<!-- Slave1&#45;&gt;SlaveDriver -->
<g id="edge17" class="edge"><title>Slave1:builds&#45;&gt;SlaveDriver:slaves</title>
<path fill="none" stroke="black" d="M613.629,-631.456C628.227,-617.564 588.933,-560.259 603.262,-546.15"/>
<polygon fill="black" stroke="black" points="612.48,-628.148 604,-634.5 614.59,-634.822 612.48,-628.148"/>
<polygon fill="black" stroke="black" points="604.562,-549.408 613,-543 602.408,-542.747 604.562,-549.408"/>
</g>
<!-- Slave2&#45;&gt;FileJuggler -->
<g id="edge20" class="edge"><title>Slave2:files&#45;&gt;FileJuggler:slaves</title>
<path fill="none" stroke="black" d="M629.507,-629.21C627.241,-625.103 625.872,-619.671 620,-617 458.032,-543.322 378.289,-667.202 221,-584 176.026,-560.21 185.472,-530.475 149,-495 109.154,-456.243 50.8552,-471.075 43.7235,-424.226"/>
<polygon fill="black" stroke="black" points="627.661,-632.184 638,-634.5 631.362,-626.242 627.661,-632.184"/>
<polygon fill="black" stroke="black" points="47.1971,-423.728 43,-414 40.2145,-424.222 47.1971,-423.728"/>
</g>
<!-- Slave2&#45;&gt;SlaveDriver -->
<g id="edge18" class="edge"><title>Slave2:builds&#45;&gt;SlaveDriver:slaves</title>
<path fill="none" stroke="black" d="M708,-614.377C708,-594.112 708,-584.391 708,-564.128"/>
<polygon fill="black" stroke="black" points="704.5,-614.5 708,-624.5 711.5,-614.5 704.5,-614.5"/>
<polygon fill="black" stroke="black" points="711.5,-564 708,-554 704.5,-564 711.5,-564"/>
</g>
<!-- Import -->
<g id="node21" class="node"><title>Import</title>
<polygon fill="#9999ff" stroke="black" points="206,-625.5 206,-663.5 292,-663.5 292,-625.5 206,-625.5"/>
<text text-anchor="middle" x="249" y="-651.5" font-family="Roboto" font-size="10.00">main</text>
<polyline fill="none" stroke="black" points="206,-644.5 292,-644.5 "/>
<text text-anchor="middle" x="231.5" y="-632.5" font-family="Roboto" font-size="10.00">DEALER</text>
<polyline fill="none" stroke="black" points="257,-625.5 257,-644.5 "/>
<text text-anchor="middle" x="274.5" y="-632.5" font-family="Roboto" font-size="10.00">REQ</text>
</g>
<!-- Import&#45;&gt;FileJuggler -->
<g id="edge22" class="edge"><title>Import:files&#45;&gt;FileJuggler:slaves</title>
<path fill="none" stroke="black" d="M194.875,-634.441C142.396,-633.768 117.174,-626.774 81,-584 33.2531,-527.54 42.0476,-494.478 42.9341,-424.174"/>
<polygon fill="black" stroke="black" points="194.98,-637.941 205,-634.5 195.021,-630.941 194.98,-637.941"/>
<polygon fill="black" stroke="black" points="46.4351,-424.022 43,-414 39.4352,-423.977 46.4351,-424.022"/>
</g>
<!-- Import&#45;&gt;MrChase -->
<g id="edge21" class="edge"><title>Import:imports&#45;&gt;MrChase:imports</title>
<path fill="none" stroke="black" d="M303.062,-634.371C351.411,-633.058 371.38,-621.387 408,-584 418.353,-573.431 411.643,-555.653 415.963,-547.424"/>
<polygon fill="black" stroke="black" points="302.954,-630.872 293,-634.5 303.044,-637.871 302.954,-630.872"/>
<polygon fill="black" stroke="black" points="417.558,-550.541 425,-543 414.48,-544.254 417.558,-550.541"/>
</g>
</g>
</svg>
