<?xml version="1.0" encoding="UTF-8" standalone="no"?>
<!DOCTYPE svg PUBLIC "-//W3C//DTD SVG 1.1//EN"
 "http://www.w3.org/Graphics/SVG/1.1/DTD/svg11.dtd">
<!-- Generated by graphviz version 2.38.0 (20140413.2041)
 -->
<!-- Title: piwheels Pages: 1 -->
<svg width="985pt" height="1130pt"
 viewBox="0.00 0.00 984.74 1130.00" xmlns="http://www.w3.org/2000/svg" xmlns:xlink="http://www.w3.org/1999/xlink">
<g id="graph0" class="graph" transform="scale(1 1) rotate(0) translate(4 1126)">
<title>piwheels</title>
<polygon fill="white" stroke="none" points="-4,4 -4,-1126 980.743,-1126 980.743,4 -4,4"/>
<g id="clust1" class="cluster"><title>cluster_db_server</title>
<polygon fill="#cccccc" stroke="black" points="375.743,-8 375.743,-324 754.743,-324 754.743,-8 375.743,-8"/>
<text text-anchor="middle" x="565.243" y="-308.8" font-family="Roboto" font-size="14.00">db&#45;server</text>
</g>
<g id="clust2" class="cluster"><title>cluster_file_server</title>
<polygon fill="#cccccc" stroke="black" points="65.7434,-357 65.7434,-794.5 279.743,-794.5 279.743,-357 65.7434,-357"/>
<text text-anchor="middle" x="172.743" y="-779.3" font-family="Roboto" font-size="14.00">file&#45;server</text>
</g>
<g id="clust3" class="cluster"><title>cluster_master</title>
<polygon fill="#cccccc" stroke="black" points="287.743,-707 287.743,-934 968.743,-934 968.743,-707 287.743,-707"/>
<text text-anchor="middle" x="628.243" y="-918.8" font-family="Roboto" font-size="14.00">master</text>
</g>
<g id="clust4" class="cluster"><title>cluster_monitor</title>
<polygon fill="#cccccc" stroke="black" points="584.743,-596 584.743,-674 676.743,-674 676.743,-596 584.743,-596"/>
<text text-anchor="middle" x="630.743" y="-658.8" font-family="Roboto" font-size="14.00">monitor</text>
</g>
<g id="clust5" class="cluster"><title>cluster_slave1</title>
<polygon fill="#cccccc" stroke="black" points="688.743,-967 688.743,-1045 790.743,-1045 790.743,-967 688.743,-967"/>
<text text-anchor="middle" x="739.743" y="-1029.8" font-family="Roboto" font-size="14.00">slave1</text>
</g>
<g id="clust6" class="cluster"><title>cluster_slave2</title>
<polygon fill="#cccccc" stroke="black" points="566.743,-967 566.743,-1045 668.743,-1045 668.743,-967 566.743,-967"/>
<text text-anchor="middle" x="617.743" y="-1029.8" font-family="Roboto" font-size="14.00">slave2</text>
</g>
<g id="clust7" class="cluster"><title>cluster_import</title>
<polygon fill="#cccccc" stroke="black" points="180.743,-967 180.743,-1045 282.743,-1045 282.743,-967 180.743,-967"/>
<text text-anchor="middle" x="231.743" y="-1029.8" font-family="Roboto" font-size="14.00">import</text>
</g>
<!-- PyPI -->
<g id="node1" class="node"><title>PyPI</title>
<polygon fill="#9999ff" stroke="black" points="742.426,-1086.05 744.202,-1086.15 745.96,-1086.3 747.692,-1086.49 749.391,-1086.74 751.052,-1087.03 752.666,-1087.36 754.228,-1087.75 755.732,-1088.18 757.172,-1088.65 758.543,-1089.16 759.841,-1089.71 761.061,-1090.31 762.198,-1090.94 763.251,-1091.61 764.215,-1092.31 765.089,-1093.04 765.87,-1093.8 766.558,-1094.59 767.151,-1095.41 767.649,-1096.25 768.052,-1097.11 768.361,-1097.99 768.576,-1098.89 768.699,-1099.8 768.732,-1100.72 768.678,-1101.65 768.537,-1102.59 768.315,-1103.53 768.012,-1104.47 767.633,-1105.41 767.182,-1106.35 766.662,-1107.28 766.076,-1108.2 765.429,-1109.11 764.724,-1110.01 763.966,-1110.89 763.158,-1111.75 762.305,-1112.59 761.409,-1113.41 760.476,-1114.2 759.507,-1114.96 758.508,-1115.69 757.48,-1116.39 756.428,-1117.06 755.353,-1117.69 754.26,-1118.29 753.149,-1118.84 752.024,-1119.35 750.886,-1119.82 749.737,-1120.25 748.58,-1120.64 747.415,-1120.97 746.244,-1121.26 745.069,-1121.51 743.889,-1121.7 742.706,-1121.85 741.522,-1121.95 740.336,-1122 739.15,-1122 737.965,-1121.95 736.78,-1121.85 735.598,-1121.7 734.418,-1121.51 733.243,-1121.26 732.072,-1120.97 730.907,-1120.64 729.75,-1120.25 728.601,-1119.82 727.463,-1119.35 726.338,-1118.84 725.227,-1118.29 724.134,-1117.69 723.059,-1117.06 722.007,-1116.39 720.979,-1115.69 719.98,-1114.96 719.011,-1114.2 718.078,-1113.41 717.182,-1112.59 716.329,-1111.75 715.521,-1110.89 714.763,-1110.01 714.058,-1109.11 713.411,-1108.2 712.825,-1107.28 712.305,-1106.35 711.853,-1105.41 711.475,-1104.47 711.172,-1103.53 710.949,-1102.59 710.809,-1101.65 710.754,-1100.72 710.788,-1099.8 710.911,-1098.89 711.126,-1097.99 711.435,-1097.11 711.838,-1096.25 712.336,-1095.41 712.929,-1094.59 713.617,-1093.8 714.398,-1093.04 715.272,-1092.31 716.236,-1091.61 717.289,-1090.94 718.426,-1090.31 719.646,-1089.71 720.943,-1089.16 722.315,-1088.65 723.755,-1088.18 725.259,-1087.75 726.821,-1087.36 728.435,-1087.03 730.095,-1086.74 731.795,-1086.49 733.527,-1086.3 735.285,-1086.15 737.061,-1086.05 738.848,-1086 740.639,-1086 742.426,-1086.05"/>
<text text-anchor="middle" x="739.743" y="-1101.5" font-family="Roboto" font-size="10.00">PyPI</text>
</g>
<!-- CloudGazer -->
<g id="node14" class="node"><title>CloudGazer</title>
<polygon fill="#9999ff" stroke="black" points="895.243,-855 895.243,-893 960.243,-893 960.243,-855 895.243,-855"/>
<text text-anchor="middle" x="927.743" y="-881" font-family="Roboto" font-size="10.00">CloudGazer</text>
<polyline fill="none" stroke="black" points="895.243,-874 960.243,-874 "/>
<text text-anchor="middle" x="927.743" y="-862" font-family="Roboto" font-size="10.00">REQ</text>
</g>
<!-- PyPI&#45;&gt;CloudGazer -->
<g id="edge15" class="edge"><title>PyPI&#45;&gt;CloudGazer:t</title>
<path fill="none" stroke="black" d="M763.174,-1091.18C811.799,-1064.86 919.794,-996.409 927.328,-904.176"/>
<polygon fill="black" stroke="black" points="930.832,-904.135 927.743,-894 923.838,-903.849 930.832,-904.135"/>
</g>
<!-- Slave1 -->
<g id="node20" class="node"><title>Slave1</title>
<polygon fill="#9999ff" stroke="black" points="696.743,-975.5 696.743,-1013.5 782.743,-1013.5 782.743,-975.5 696.743,-975.5"/>
<text text-anchor="middle" x="739.743" y="-1001.5" font-family="Roboto" font-size="10.00">main</text>
<polyline fill="none" stroke="black" points="696.743,-994.5 782.743,-994.5 "/>
<text text-anchor="middle" x="722.243" y="-982.5" font-family="Roboto" font-size="10.00">DEALER</text>
<polyline fill="none" stroke="black" points="747.743,-975.5 747.743,-994.5 "/>
<text text-anchor="middle" x="765.243" y="-982.5" font-family="Roboto" font-size="10.00">REQ</text>
</g>
<!-- PyPI&#45;&gt;Slave1 -->
<g id="edge16" class="edge"><title>PyPI&#45;&gt;Slave1:t</title>
<path fill="none" stroke="black" d="M739.743,-1085.7C739.743,-1070.23 739.743,-1046.65 739.743,-1024.53"/>
<polygon fill="black" stroke="black" points="743.244,-1024.5 739.743,-1014.5 736.244,-1024.5 743.244,-1024.5"/>
</g>
<!-- Slave2 -->
<g id="node21" class="node"><title>Slave2</title>
<polygon fill="#9999ff" stroke="black" points="574.743,-975.5 574.743,-1013.5 660.743,-1013.5 660.743,-975.5 574.743,-975.5"/>
<text text-anchor="middle" x="617.743" y="-1001.5" font-family="Roboto" font-size="10.00">main</text>
<polyline fill="none" stroke="black" points="574.743,-994.5 660.743,-994.5 "/>
<text text-anchor="middle" x="600.243" y="-982.5" font-family="Roboto" font-size="10.00">DEALER</text>
<polyline fill="none" stroke="black" points="625.743,-975.5 625.743,-994.5 "/>
<text text-anchor="middle" x="643.243" y="-982.5" font-family="Roboto" font-size="10.00">REQ</text>
</g>
<!-- PyPI&#45;&gt;Slave2 -->
<g id="edge17" class="edge"><title>PyPI&#45;&gt;Slave2:t</title>
<path fill="none" stroke="black" d="M721.66,-1088.77C708.705,-1077.86 691.534,-1061.86 679.743,-1045 671.277,-1032.89 676.465,-1016.17 671.278,-1008.56"/>
<polygon fill="black" stroke="black" points="672.315,-1005.2 661.743,-1004.5 669.574,-1011.64 672.315,-1005.2"/>
</g>
<!-- Users -->
<g id="node2" class="node"><title>Users</title>
<polygon fill="#9999ff" stroke="black" points="31.426,-376.049 33.202,-376.148 34.9597,-376.295 36.6919,-376.491 38.3915,-376.735 40.0517,-377.027 41.666,-377.364 43.2281,-377.748 44.732,-378.176 46.1722,-378.647 47.5435,-379.161 48.8411,-379.715 50.0607,-380.308 51.1984,-380.939 52.2508,-381.605 53.2152,-382.306 54.089,-383.039 54.8704,-383.801 55.558,-384.592 56.151,-385.408 56.6489,-386.248 57.052,-387.109 57.3606,-387.989 57.5759,-388.886 57.6992,-389.797 57.7324,-390.719 57.6776,-391.65 57.5374,-392.587 57.3145,-393.529 57.0121,-394.471 56.6334,-395.413 56.182,-396.35 55.6616,-397.281 55.0759,-398.203 54.4287,-399.114 53.7241,-400.011 52.966,-400.891 52.1582,-401.752 51.3048,-402.592 50.4093,-403.408 49.4757,-404.199 48.5074,-404.961 47.5078,-405.694 46.4803,-406.395 45.4278,-407.061 44.3533,-407.692 43.2595,-408.285 42.1488,-408.839 41.0235,-409.353 39.8858,-409.824 38.7373,-410.252 37.58,-410.636 36.4152,-410.973 35.2443,-411.265 34.0685,-411.509 32.8889,-411.705 31.7065,-411.852 30.522,-411.951 29.3364,-412 28.1505,-412 26.9649,-411.951 25.7804,-411.852 24.598,-411.705 23.4184,-411.509 22.2426,-411.265 21.0717,-410.973 19.9069,-410.636 18.7495,-410.252 17.6011,-409.824 16.4633,-409.353 15.3381,-408.839 14.2274,-408.285 13.1335,-407.692 12.0591,-407.061 11.0066,-406.395 9.97906,-405.694 8.9795,-404.961 8.01119,-404.199 7.07754,-403.408 6.18213,-402.592 5.32865,-401.752 4.5209,-400.891 3.76276,-400.011 3.05816,-399.114 2.41103,-398.203 1.8253,-397.281 1.30484,-396.35 0.853445,-395.413 0.474783,-394.471 0.172362,-393.529 -0.0505064,-392.587 -0.190739,-391.65 -0.245522,-390.719 -0.212342,-389.797 -0.0890205,-388.886 0.126256,-387.989 0.434908,-387.109 0.837936,-386.248 1.3359,-385.408 1.92889,-384.592 2.61652,-383.801 3.39793,-383.039 4.27173,-382.306 5.23606,-381.605 6.28851,-380.939 7.42622,-380.308 8.64581,-379.715 9.9434,-379.161 11.3147,-378.647 12.7549,-378.176 14.2588,-377.748 15.8209,-377.364 17.4352,-377.027 19.0954,-376.735 20.795,-376.491 22.5271,-376.295 24.2848,-376.148 26.0609,-376.049 27.848,-376 29.6389,-376 31.426,-376.049"/>
<text text-anchor="middle" x="28.7434" y="-391.5" font-family="Roboto" font-size="10.00">Users</text>
</g>
<!-- TheOracle1 -->
<g id="node3" class="node"><title>TheOracle1</title>
<polygon fill="#9999ff" stroke="black" points="481.243,-124.5 481.243,-162.5 542.243,-162.5 542.243,-124.5 481.243,-124.5"/>
<text text-anchor="middle" x="511.743" y="-150.5" font-family="Roboto" font-size="10.00">REQ</text>
<polyline fill="none" stroke="black" points="481.243,-143.5 542.243,-143.5 "/>
<text text-anchor="middle" x="511.743" y="-131.5" font-family="Roboto" font-size="10.00">TheOracle</text>
</g>
<!-- db -->
<g id="node8" class="node"><title>db</title>
<polygon fill="#9999ff" stroke="black" points="587.743,-52 584.743,-56 563.743,-56 560.743,-52 531.743,-52 531.743,-16 587.743,-16 587.743,-52"/>
<text text-anchor="middle" x="559.743" y="-37" font-family="Roboto" font-size="10.00">piwheels</text>
<text text-anchor="middle" x="559.743" y="-26" font-family="Roboto" font-size="10.00">database</text>
</g>
<!-- TheOracle1&#45;&gt;db -->
<g id="edge4" class="edge"><title>TheOracle1:t&#45;&gt;db</title>
<path fill="none" stroke="black" d="M551.889,-127.579C559.207,-114.947 560.604,-84.6764 560.531,-62.167"/>
<polygon fill="black" stroke="black" points="549.774,-124.789 543.743,-133.5 553.89,-130.451 549.774,-124.789"/>
<polygon fill="black" stroke="black" points="564.031,-62.1119 560.404,-52.1574 557.031,-62.2012 564.031,-62.1119"/>
</g>
<!-- TheOracle2 -->
<g id="node4" class="node"><title>TheOracle2</title>
<polygon fill="#9999ff" stroke="black" points="578.243,-124.5 578.243,-162.5 639.243,-162.5 639.243,-124.5 578.243,-124.5"/>
<text text-anchor="middle" x="608.743" y="-150.5" font-family="Roboto" font-size="10.00">REQ</text>
<polyline fill="none" stroke="black" points="578.243,-143.5 639.243,-143.5 "/>
<text text-anchor="middle" x="608.743" y="-131.5" font-family="Roboto" font-size="10.00">TheOracle</text>
</g>
<!-- TheOracle2&#45;&gt;db -->
<g id="edge5" class="edge"><title>TheOracle2:t&#45;&gt;db</title>
<path fill="none" stroke="black" d="M568.526,-127.579C561.07,-114.947 559.372,-84.6764 559.223,-62.167"/>
<polygon fill="black" stroke="black" points="566.584,-130.494 576.743,-133.5 570.676,-124.814 566.584,-130.494"/>
<polygon fill="black" stroke="black" points="562.723,-62.1675 559.252,-52.1574 555.723,-62.1472 562.723,-62.1675"/>
</g>
<!-- TheOracle3 -->
<g id="node5" class="node"><title>TheOracle3</title>
<polygon fill="#9999ff" stroke="black" points="384.243,-124.5 384.243,-162.5 445.243,-162.5 445.243,-124.5 384.243,-124.5"/>
<text text-anchor="middle" x="414.743" y="-150.5" font-family="Roboto" font-size="10.00">REQ</text>
<polyline fill="none" stroke="black" points="384.243,-143.5 445.243,-143.5 "/>
<text text-anchor="middle" x="414.743" y="-131.5" font-family="Roboto" font-size="10.00">TheOracle</text>
</g>
<!-- TheOracle3&#45;&gt;db -->
<g id="edge6" class="edge"><title>TheOracle3:t&#45;&gt;db</title>
<path fill="none" stroke="black" d="M455.408,-128.209C472.328,-115.401 508.966,-82.0884 533.995,-58.9706"/>
<polygon fill="black" stroke="black" points="453.454,-125.301 446.743,-133.5 457.102,-131.275 453.454,-125.301"/>
<polygon fill="black" stroke="black" points="536.394,-61.519 541.355,-52.1574 531.639,-56.382 536.394,-61.519"/>
</g>
<!-- TheArchitect -->
<g id="node6" class="node"><title>TheArchitect</title>
<polygon fill="#9999ff" stroke="black" points="675.243,-124.5 675.243,-162.5 746.243,-162.5 746.243,-124.5 675.243,-124.5"/>
<text text-anchor="middle" x="710.743" y="-150.5" font-family="Roboto" font-size="10.00">REP</text>
<polyline fill="none" stroke="black" points="675.243,-143.5 746.243,-143.5 "/>
<text text-anchor="middle" x="710.743" y="-131.5" font-family="Roboto" font-size="10.00">TheArchitect</text>
</g>
<!-- TheArchitect&#45;&gt;db -->
<g id="edge7" class="edge"><title>TheArchitect:t&#45;&gt;db</title>
<path fill="none" stroke="black" d="M665.012,-128.209C646.186,-114.077 603.121,-74.9766 578.3,-52.1574"/>
<polygon fill="black" stroke="black" points="663.377,-131.31 673.743,-133.5 667.005,-125.324 663.377,-131.31"/>
</g>
<!-- Seraph -->
<g id="node7" class="node"><title>Seraph</title>
<polygon fill="#9999ff" stroke="black" points="436.743,-235.5 436.743,-292.5 490.743,-292.5 490.743,-235.5 436.743,-235.5"/>
<text text-anchor="middle" x="463.743" y="-280.5" font-family="Roboto" font-size="10.00">ROUTER</text>
<polyline fill="none" stroke="black" points="436.743,-273.5 490.743,-273.5 "/>
<text text-anchor="middle" x="463.743" y="-261.5" font-family="Roboto" font-size="10.00">Seraph</text>
<polyline fill="none" stroke="black" points="436.743,-254.5 490.743,-254.5 "/>
<text text-anchor="middle" x="463.743" y="-242.5" font-family="Roboto" font-size="10.00">ROUTER</text>
</g>
<!-- Seraph&#45;&gt;TheOracle1 -->
<g id="edge1" class="edge"><title>Seraph:oracle&#45;&gt;TheOracle1:Seraph</title>
<path fill="none" stroke="black" d="M501.862,-243.576C523.33,-236.494 514.199,-204.184 512.123,-173.358"/>
<polygon fill="black" stroke="black" points="501.158,-240.14 491.743,-245 502.134,-247.072 501.158,-240.14"/>
<polygon fill="black" stroke="black" points="515.607,-172.865 511.743,-163 508.612,-173.121 515.607,-172.865"/>
</g>
<!-- Seraph&#45;&gt;TheOracle2 -->
<g id="edge2" class="edge"><title>Seraph:oracle&#45;&gt;TheOracle2:Seraph</title>
<path fill="none" stroke="black" d="M501.237,-241.743C522.944,-227.545 545.454,-171.123 567.164,-156.813"/>
<polygon fill="black" stroke="black" points="500.067,-238.445 491.743,-245 502.338,-245.066 500.067,-238.445"/>
<polygon fill="black" stroke="black" points="568.437,-160.076 576.743,-153.5 566.149,-153.461 568.437,-160.076"/>
</g>
<!-- Seraph&#45;&gt;TheOracle3 -->
<g id="edge3" class="edge"><title>Seraph:oracle&#45;&gt;TheOracle3:Seraph</title>
<path fill="none" stroke="black" d="M425.567,-243.579C403.894,-236.513 412.428,-204.265 414.385,-173.383"/>
<polygon fill="black" stroke="black" points="425.355,-247.083 435.743,-245 426.324,-240.151 425.355,-247.083"/>
<polygon fill="black" stroke="black" points="417.896,-173.115 414.743,-163 410.9,-172.873 417.896,-173.115"/>
</g>
<!-- FileJuggler -->
<g id="node9" class="node"><title>FileJuggler</title>
<polygon fill="#9999ff" stroke="black" points="74.2434,-725 74.2434,-763 161.243,-763 161.243,-725 74.2434,-725"/>
<text text-anchor="middle" x="100.743" y="-751" font-family="Roboto" font-size="10.00">ROUTER</text>
<polyline fill="none" stroke="black" points="127.243,-744 127.243,-763 "/>
<text text-anchor="middle" x="144.243" y="-751" font-family="Roboto" font-size="10.00">REP</text>
<polyline fill="none" stroke="black" points="74.2434,-744 161.243,-744 "/>
<text text-anchor="middle" x="117.743" y="-732" font-family="Roboto" font-size="10.00">FileJuggler</text>
</g>
<!-- fs -->
<g id="node12" class="node"><title>fs</title>
<polygon fill="#9999ff" stroke="black" points="187.243,-641.5 184.243,-645.5 163.243,-645.5 160.243,-641.5 126.243,-641.5 126.243,-605.5 187.243,-605.5 187.243,-641.5"/>
<text text-anchor="middle" x="156.743" y="-626.5" font-family="Roboto" font-size="10.00">www</text>
<text text-anchor="middle" x="156.743" y="-615.5" font-family="Roboto" font-size="10.00">filesystem</text>
</g>
<!-- FileJuggler&#45;&gt;fs -->
<g id="edge9" class="edge"><title>FileJuggler:t&#45;&gt;fs</title>
<path fill="none" stroke="black" d="M118.298,-713.907C120.773,-690.731 131.108,-667.432 140.439,-650.431"/>
<polygon fill="black" stroke="black" points="114.797,-713.823 117.743,-724 121.786,-714.207 114.797,-713.823"/>
<polygon fill="black" stroke="black" points="143.522,-652.09 145.463,-641.675 137.45,-648.606 143.522,-652.09"/>
</g>
<!-- IndexScribe -->
<g id="node10" class="node"><title>IndexScribe</title>
<polygon fill="#9999ff" stroke="black" points="197.743,-725 197.743,-763 271.743,-763 271.743,-725 197.743,-725"/>
<text text-anchor="middle" x="217.243" y="-751" font-family="Roboto" font-size="10.00">PULL</text>
<polyline fill="none" stroke="black" points="236.743,-744 236.743,-763 "/>
<text text-anchor="middle" x="254.243" y="-751" font-family="Roboto" font-size="10.00">REQ</text>
<polyline fill="none" stroke="black" points="197.743,-744 271.743,-744 "/>
<text text-anchor="middle" x="234.743" y="-732" font-family="Roboto" font-size="10.00">IndexScribe</text>
</g>
<!-- IndexScribe&#45;&gt;Seraph -->
<g id="edge30" class="edge"><title>IndexScribe:db&#45;&gt;Seraph:db</title>
<path fill="none" stroke="black" d="M276.219,-744.572C277.989,-731.917 278.088,-710.601 278.743,-707 307.35,-549.711 283.822,-496.594 361.743,-357 382.643,-319.56 388.37,-288.261 425.577,-283.599"/>
<polygon fill="black" stroke="black" points="272.919,-743.407 272.743,-754 279.486,-745.828 272.919,-743.407"/>
<polygon fill="black" stroke="black" points="425.967,-287.082 435.743,-283 425.555,-280.094 425.967,-287.082"/>
</g>
<!-- IndexScribe&#45;&gt;fs -->
<g id="edge8" class="edge"><title>IndexScribe:t&#45;&gt;fs</title>
<path fill="none" stroke="black" d="M196.743,-734C187.977,-734 172.756,-683.849 163.832,-651.427"/>
<polygon fill="black" stroke="black" points="167.165,-650.346 161.172,-641.609 160.409,-652.177 167.165,-650.346"/>
</g>
<!-- Lumberjack -->
<g id="node11" class="node"><title>Lumberjack</title>
<polygon fill="#9999ff" stroke="black" points="143.243,-365.5 143.243,-422.5 210.243,-422.5 210.243,-365.5 143.243,-365.5"/>
<text text-anchor="middle" x="176.743" y="-410.5" font-family="Roboto" font-size="10.00">PULL</text>
<polyline fill="none" stroke="black" points="143.243,-403.5 210.243,-403.5 "/>
<text text-anchor="middle" x="176.743" y="-391.5" font-family="Roboto" font-size="10.00">Lumberjack</text>
<polyline fill="none" stroke="black" points="143.243,-384.5 210.243,-384.5 "/>
<text text-anchor="middle" x="176.743" y="-372.5" font-family="Roboto" font-size="10.00">REQ</text>
</g>
<!-- Lumberjack&#45;&gt;Seraph -->
<g id="edge38" class="edge"><title>Lumberjack:db&#45;&gt;Seraph:db</title>
<path fill="none" stroke="black" d="M221.331,-371.393C258.03,-356.71 388.95,-301.503 425.968,-286.682"/>
<polygon fill="black" stroke="black" points="219.871,-368.203 211.743,-375 222.335,-374.755 219.871,-368.203"/>
<polygon fill="black" stroke="black" points="427.619,-289.8 435.743,-283 425.152,-283.249 427.619,-289.8"/>
</g>
<!-- httpd -->
<g id="node13" class="node"><title>httpd</title>
<polygon fill="#9999ff" stroke="black" points="129.743,-495.5 129.743,-531.5 183.743,-531.5 183.743,-495.5 129.743,-495.5"/>
<text text-anchor="middle" x="156.743" y="-511" font-family="Roboto" font-size="10.00">httpd</text>
</g>
<!-- fs&#45;&gt;httpd -->
<g id="edge10" class="edge"><title>fs&#45;&gt;httpd</title>
<path fill="none" stroke="black" d="M156.743,-605.148C156.743,-588.064 156.743,-561.715 156.743,-541.819"/>
<polygon fill="black" stroke="black" points="160.244,-541.809 156.743,-531.809 153.244,-541.809 160.244,-541.809"/>
</g>
<!-- httpd&#45;&gt;Users -->
<g id="edge39" class="edge"><title>httpd&#45;&gt;Users</title>
<path fill="none" stroke="black" d="M138.131,-495.414C114.982,-474.164 75.5099,-437.93 50.8463,-415.29"/>
<polygon fill="black" stroke="black" points="53.1321,-412.637 43.3984,-408.453 48.3983,-417.794 53.1321,-412.637"/>
</g>
<!-- httpd&#45;&gt;Lumberjack -->
<g id="edge11" class="edge"><title>httpd&#45;&gt;Lumberjack:logs</title>
<path fill="none" stroke="black" d="M162.962,-495.262C168.076,-479.724 174.738,-455.874 176.37,-433.04"/>
<polygon fill="black" stroke="black" points="179.87,-433.123 176.743,-423 172.874,-432.863 179.87,-433.123"/>
</g>
<!-- CloudGazer&#45;&gt;Seraph -->
<g id="edge26" class="edge"><title>CloudGazer:db&#45;&gt;Seraph:db</title>
<path fill="none" stroke="black" d="M885.607,-857.674C883.98,-853.393 882.988,-847.991 877.743,-845 759.53,-777.583 674.544,-888.083 575.743,-794.5 519.535,-741.26 537.743,-701.92 537.743,-624.5 537.743,-624.5 537.743,-624.5 537.743,-512.5 537.743,-412.027 591.873,-291.552 501.851,-283.434"/>
<polygon fill="black" stroke="black" points="883.7,-860.625 893.743,-864 887.997,-855.099 883.7,-860.625"/>
<polygon fill="black" stroke="black" points="501.884,-279.932 491.743,-283 501.584,-286.926 501.884,-279.932"/>
</g>
<!-- main -->
<g id="node15" class="node"><title>main</title>
<polygon fill="#9999ff" stroke="black" points="593.743,-715.5 593.743,-772.5 667.743,-772.5 667.743,-715.5 593.743,-715.5"/>
<text text-anchor="middle" x="630.743" y="-760.5" font-family="Roboto" font-size="10.00">PULL</text>
<polyline fill="none" stroke="black" points="593.743,-753.5 667.743,-753.5 "/>
<text text-anchor="middle" x="630.743" y="-741.5" font-family="Roboto" font-size="10.00">main</text>
<polyline fill="none" stroke="black" points="593.743,-734.5 667.743,-734.5 "/>
<text text-anchor="middle" x="613.243" y="-722.5" font-family="Roboto" font-size="10.00">PULL</text>
<polyline fill="none" stroke="black" points="632.743,-715.5 632.743,-734.5 "/>
<text text-anchor="middle" x="650.243" y="-722.5" font-family="Roboto" font-size="10.00">PUB</text>
</g>
<!-- monitor -->
<g id="node19" class="node"><title>monitor</title>
<polygon fill="#9999ff" stroke="black" points="592.743,-604.5 592.743,-642.5 668.743,-642.5 668.743,-604.5 592.743,-604.5"/>
<text text-anchor="middle" x="613.243" y="-630.5" font-family="Roboto" font-size="10.00">PUSH</text>
<polyline fill="none" stroke="black" points="633.743,-623.5 633.743,-642.5 "/>
<text text-anchor="middle" x="651.243" y="-630.5" font-family="Roboto" font-size="10.00">SUB</text>
<polyline fill="none" stroke="black" points="592.743,-623.5 668.743,-623.5 "/>
<text text-anchor="middle" x="630.743" y="-611.5" font-family="Roboto" font-size="10.00">main</text>
</g>
<!-- main&#45;&gt;monitor -->
<g id="edge24" class="edge"><title>main:ext_status&#45;&gt;monitor:status</title>
<path fill="none" stroke="black" d="M650.743,-714C650.743,-686.336 651.523,-676.994 651.705,-653.624"/>
<polygon fill="black" stroke="black" points="655.206,-653.513 651.743,-643.5 648.206,-653.487 655.206,-653.513"/>
</g>
<!-- BigBrother -->
<g id="node16" class="node"><title>BigBrother</title>
<polygon fill="#9999ff" stroke="black" points="483.743,-855 483.743,-893 635.743,-893 635.743,-855 483.743,-855"/>
<text text-anchor="middle" x="559.743" y="-881" font-family="Roboto" font-size="10.00">BigBrother</text>
<polyline fill="none" stroke="black" points="483.743,-874 635.743,-874 "/>
<text text-anchor="middle" x="504.243" y="-862" font-family="Roboto" font-size="10.00">PUSH</text>
<polyline fill="none" stroke="black" points="524.743,-855 524.743,-874 "/>
<text text-anchor="middle" x="542.243" y="-862" font-family="Roboto" font-size="10.00">REQ</text>
<polyline fill="none" stroke="black" points="559.743,-855 559.743,-874 "/>
<text text-anchor="middle" x="577.243" y="-862" font-family="Roboto" font-size="10.00">REQ</text>
<polyline fill="none" stroke="black" points="594.743,-855 594.743,-874 "/>
<text text-anchor="middle" x="615.243" y="-862" font-family="Roboto" font-size="10.00">PUSH</text>
</g>
<!-- BigBrother&#45;&gt;Seraph -->
<g id="edge31" class="edge"><title>BigBrother:db&#45;&gt;Seraph:db</title>
<path fill="none" stroke="black" d="M576.571,-844.067C569.205,-816.173 529.017,-825.371 509.743,-794.5 468.291,-728.105 463.743,-702.773 463.743,-624.5 463.743,-624.5 463.743,-624.5 463.743,-512.5 463.743,-418.898 463.743,-392.961 463.743,-304.248"/>
<polygon fill="black" stroke="black" points="573.095,-844.479 577.743,-854 580.047,-843.659 573.095,-844.479"/>
<polygon fill="black" stroke="black" points="467.244,-304 463.743,-294 460.244,-304 467.244,-304"/>
</g>
<!-- BigBrother&#45;&gt;FileJuggler -->
<g id="edge32" class="edge"><title>BigBrother:fs&#45;&gt;FileJuggler:fs</title>
<path fill="none" stroke="black" d="M539.988,-843.921C515.442,-778.744 240.863,-842.738 179.743,-794.5 168.37,-785.524 175.268,-767.563 171.6,-758.898"/>
<polygon fill="black" stroke="black" points="536.579,-844.749 541.743,-854 543.475,-843.548 536.579,-844.749"/>
<polygon fill="black" stroke="black" points="173.188,-755.777 162.743,-754 169.8,-761.902 173.188,-755.777"/>
</g>
<!-- BigBrother&#45;&gt;IndexScribe -->
<g id="edge27" class="edge"><title>BigBrother:indexes&#45;&gt;IndexScribe:indexes</title>
<path fill="none" stroke="black" d="M482.743,-864C471.412,-864 475.39,-850.945 465.743,-845 392.456,-799.832 359.299,-824.864 278.743,-794.5 253.824,-785.107 225.499,-792.162 218.415,-774.175"/>
<polygon fill="black" stroke="black" points="221.818,-773.3 216.743,-764 214.911,-774.435 221.818,-773.3"/>
</g>
<!-- BigBrother&#45;&gt;main -->
<g id="edge12" class="edge"><title>BigBrother:int_status&#45;&gt;main:int_status</title>
<path fill="none" stroke="black" d="M615.743,-854C615.743,-816.846 564.41,-773.69 582.651,-764.694"/>
<polygon fill="black" stroke="black" points="583.461,-768.107 592.743,-763 582.302,-761.204 583.461,-768.107"/>
</g>
<!-- SlaveDriver -->
<g id="node17" class="node"><title>SlaveDriver</title>
<polygon fill="#9999ff" stroke="black" points="672.243,-845.5 672.243,-902.5 859.243,-902.5 859.243,-845.5 672.243,-845.5"/>
<text text-anchor="middle" x="765.743" y="-890.5" font-family="Roboto" font-size="10.00">ROUTER</text>
<polyline fill="none" stroke="black" points="672.243,-883.5 859.243,-883.5 "/>
<text text-anchor="middle" x="765.743" y="-871.5" font-family="Roboto" font-size="10.00">SlaveDriver</text>
<polyline fill="none" stroke="black" points="672.243,-864.5 859.243,-864.5 "/>
<text text-anchor="middle" x="692.743" y="-852.5" font-family="Roboto" font-size="10.00">PUSH</text>
<polyline fill="none" stroke="black" points="713.243,-845.5 713.243,-864.5 "/>
<text text-anchor="middle" x="730.743" y="-852.5" font-family="Roboto" font-size="10.00">REQ</text>
<polyline fill="none" stroke="black" points="748.243,-845.5 748.243,-864.5 "/>
<text text-anchor="middle" x="765.743" y="-852.5" font-family="Roboto" font-size="10.00">REQ</text>
<polyline fill="none" stroke="black" points="783.243,-845.5 783.243,-864.5 "/>
<text text-anchor="middle" x="800.743" y="-852.5" font-family="Roboto" font-size="10.00">REQ</text>
<polyline fill="none" stroke="black" points="818.243,-845.5 818.243,-864.5 "/>
<text text-anchor="middle" x="838.743" y="-852.5" font-family="Roboto" font-size="10.00">PUSH</text>
</g>
<!-- SlaveDriver&#45;&gt;TheArchitect -->
<g id="edge35" class="edge"><title>SlaveDriver:builds&#45;&gt;TheArchitect:builds</title>
<path fill="none" stroke="black" d="M800.74,-834.93C800.674,-745.186 799.743,-719.056 799.743,-624.5 799.743,-624.5 799.743,-624.5 799.743,-393 799.743,-287.586 853.058,-161.894 757.765,-153.902"/>
<polygon fill="black" stroke="black" points="797.24,-835.001 800.743,-845 804.24,-834.999 797.24,-835.001"/>
<polygon fill="black" stroke="black" points="757.876,-150.403 747.743,-153.5 757.595,-157.398 757.876,-150.403"/>
</g>
<!-- SlaveDriver&#45;&gt;Seraph -->
<g id="edge34" class="edge"><title>SlaveDriver:db&#45;&gt;Seraph:db</title>
<path fill="none" stroke="black" d="M765.595,-834.771C762.911,-743.737 724.743,-720.675 724.743,-624.5 724.743,-624.5 724.743,-624.5 724.743,-512.5 724.743,-370.553 641.158,-286.978 501.868,-283.138"/>
<polygon fill="black" stroke="black" points="762.099,-835.052 765.743,-845 769.098,-834.95 762.099,-835.052"/>
<polygon fill="black" stroke="black" points="501.79,-279.637 491.743,-283 501.695,-286.636 501.79,-279.637"/>
</g>
<!-- SlaveDriver&#45;&gt;FileJuggler -->
<g id="edge33" class="edge"><title>SlaveDriver:fs&#45;&gt;FileJuggler:fs</title>
<path fill="none" stroke="black" d="M726.401,-835.858C677.253,-788.446 226.621,-828.851 179.743,-794.5 168.057,-785.936 175.106,-767.775 171.537,-758.98"/>
<polygon fill="black" stroke="black" points="723.291,-837.469 730.743,-845 729.614,-834.466 723.291,-837.469"/>
<polygon fill="black" stroke="black" points="173.17,-755.882 162.743,-754 169.72,-761.973 173.17,-755.882"/>
</g>
<!-- SlaveDriver&#45;&gt;IndexScribe -->
<g id="edge28" class="edge"><title>SlaveDriver:indexes&#45;&gt;IndexScribe:indexes</title>
<path fill="none" stroke="black" d="M670.743,-855C661.978,-855 662.028,-847.864 653.743,-845 494.799,-790.061 439.625,-843.477 278.743,-794.5 253.267,-786.744 225.351,-792.597 218.386,-774.262"/>
<polygon fill="black" stroke="black" points="221.78,-773.321 216.743,-764 214.868,-774.427 221.78,-773.321"/>
</g>
<!-- SlaveDriver&#45;&gt;main -->
<g id="edge13" class="edge"><title>SlaveDriver:int_status&#45;&gt;main:int_status</title>
<path fill="none" stroke="black" d="M838.743,-845C838.743,-778.017 752.294,-831.929 696.743,-794.5 684.85,-786.486 685.735,-772.279 678.397,-766.059"/>
<polygon fill="black" stroke="black" points="679.334,-762.685 668.743,-763 677.219,-769.358 679.334,-762.685"/>
</g>
<!-- MrChase -->
<g id="node18" class="node"><title>MrChase</title>
<polygon fill="#9999ff" stroke="black" points="295.743,-845.5 295.743,-902.5 447.743,-902.5 447.743,-845.5 295.743,-845.5"/>
<text text-anchor="middle" x="371.743" y="-890.5" font-family="Roboto" font-size="10.00">ROUTER</text>
<polyline fill="none" stroke="black" points="295.743,-883.5 447.743,-883.5 "/>
<text text-anchor="middle" x="371.743" y="-871.5" font-family="Roboto" font-size="10.00">MrChase</text>
<polyline fill="none" stroke="black" points="295.743,-864.5 447.743,-864.5 "/>
<text text-anchor="middle" x="316.243" y="-852.5" font-family="Roboto" font-size="10.00">PUSH</text>
<polyline fill="none" stroke="black" points="336.743,-845.5 336.743,-864.5 "/>
<text text-anchor="middle" x="354.243" y="-852.5" font-family="Roboto" font-size="10.00">REQ</text>
<polyline fill="none" stroke="black" points="371.743,-845.5 371.743,-864.5 "/>
<text text-anchor="middle" x="389.243" y="-852.5" font-family="Roboto" font-size="10.00">REQ</text>
<polyline fill="none" stroke="black" points="406.743,-845.5 406.743,-864.5 "/>
<text text-anchor="middle" x="427.243" y="-852.5" font-family="Roboto" font-size="10.00">PUSH</text>
</g>
<!-- MrChase&#45;&gt;Seraph -->
<g id="edge37" class="edge"><title>MrChase:db&#45;&gt;Seraph:db</title>
<path fill="none" stroke="black" d="M389.743,-834.93C389.743,-745.187 389.743,-719.055 389.743,-624.5 389.743,-624.5 389.743,-624.5 389.743,-512.5 389.743,-412.027 335.614,-291.552 425.636,-283.434"/>
<polygon fill="black" stroke="black" points="386.244,-835 389.743,-845 393.244,-835 386.244,-835"/>
<polygon fill="black" stroke="black" points="425.903,-286.926 435.743,-283 425.603,-279.932 425.903,-286.926"/>
</g>
<!-- MrChase&#45;&gt;FileJuggler -->
<g id="edge36" class="edge"><title>MrChase:fs&#45;&gt;FileJuggler:fs</title>
<path fill="none" stroke="black" d="M353.01,-834.727C343.185,-772.012 237.042,-845.563 179.743,-794.5 168.927,-784.86 175.555,-767.22 171.711,-758.766"/>
<polygon fill="black" stroke="black" points="349.54,-835.275 353.743,-845 356.522,-834.776 349.54,-835.275"/>
<polygon fill="black" stroke="black" points="173.216,-755.602 162.743,-754 169.931,-761.784 173.216,-755.602"/>
</g>
<!-- MrChase&#45;&gt;IndexScribe -->
<g id="edge29" class="edge"><title>MrChase:indexes&#45;&gt;IndexScribe:indexes</title>
<path fill="none" stroke="black" d="M294.743,-855C271.022,-855 227.684,-803.944 218.487,-773.96"/>
<polygon fill="black" stroke="black" points="221.916,-773.246 216.743,-764 215.021,-774.454 221.916,-773.246"/>
</g>
<!-- MrChase&#45;&gt;main -->
<g id="edge14" class="edge"><title>MrChase:int_status&#45;&gt;main:int_status</title>
<path fill="none" stroke="black" d="M448.743,-855C452.823,-855 552.733,-787.056 583.764,-767.946"/>
<polygon fill="black" stroke="black" points="585.673,-770.891 592.743,-763 582.296,-764.76 585.673,-770.891"/>
</g>
<!-- monitor&#45;&gt;main -->
<g id="edge25" class="edge"><title>monitor:control&#45;&gt;main:control</title>
<path fill="none" stroke="black" d="M612.743,-643.5C612.743,-671.161 612.743,-680.508 612.743,-703.877"/>
<polygon fill="black" stroke="black" points="609.244,-704 612.743,-714 616.244,-704 609.244,-704"/>
</g>
<!-- Slave1&#45;&gt;FileJuggler -->
<g id="edge20" class="edge"><title>Slave1:files&#45;&gt;FileJuggler:slaves</title>
<path fill="none" stroke="black" d="M687.251,-979.21C684.984,-975.103 683.615,-969.671 677.743,-967 515.775,-893.322 436.032,-1017.2 278.743,-934 233.769,-910.21 243.215,-880.475 206.743,-845 166.898,-806.243 108.599,-821.075 101.467,-774.226"/>
<polygon fill="black" stroke="black" points="685.405,-982.184 695.743,-984.5 689.106,-976.242 685.405,-982.184"/>
<polygon fill="black" stroke="black" points="104.941,-773.728 100.743,-764 97.958,-774.222 104.941,-773.728"/>
</g>
<!-- Slave1&#45;&gt;SlaveDriver -->
<g id="edge18" class="edge"><title>Slave1:builds&#45;&gt;SlaveDriver:slaves</title>
<path fill="none" stroke="black" d="M765.743,-964.377C765.743,-944.112 765.743,-934.391 765.743,-914.128"/>
<polygon fill="black" stroke="black" points="762.244,-964.5 765.743,-974.5 769.244,-964.5 762.244,-964.5"/>
<polygon fill="black" stroke="black" points="769.244,-914 765.743,-904 762.244,-914 769.244,-914"/>
</g>
<!-- Slave2&#45;&gt;FileJuggler -->
<g id="edge21" class="edge"><title>Slave2:files&#45;&gt;FileJuggler:slaves</title>
<path fill="none" stroke="black" d="M563.67,-984.465C476.433,-983.881 278.543,-975.585 212.743,-934 195.527,-923.119 118.515,-812.351 103.343,-773.88"/>
<polygon fill="black" stroke="black" points="563.731,-987.965 573.743,-984.5 563.756,-980.965 563.731,-987.965"/>
<polygon fill="black" stroke="black" points="106.673,-772.78 100.743,-764 99.9036,-774.561 106.673,-772.78"/>
</g>
<!-- Slave2&#45;&gt;SlaveDriver -->
<g id="edge19" class="edge"><title>Slave2:builds&#45;&gt;SlaveDriver:slaves</title>
<path fill="none" stroke="black" d="M671.372,-981.456C685.971,-967.564 646.677,-910.259 661.006,-896.15"/>
<polygon fill="black" stroke="black" points="670.223,-978.148 661.743,-984.5 672.333,-984.822 670.223,-978.148"/>
<polygon fill="black" stroke="black" points="662.306,-899.408 670.743,-893 660.152,-892.747 662.306,-899.408"/>
</g>
<!-- Import -->
<g id="node22" class="node"><title>Import</title>
<polygon fill="#9999ff" stroke="black" points="188.743,-975.5 188.743,-1013.5 274.743,-1013.5 274.743,-975.5 188.743,-975.5"/>
<text text-anchor="middle" x="231.743" y="-1001.5" font-family="Roboto" font-size="10.00">main</text>
<polyline fill="none" stroke="black" points="188.743,-994.5 274.743,-994.5 "/>
<text text-anchor="middle" x="214.243" y="-982.5" font-family="Roboto" font-size="10.00">DEALER</text>
<polyline fill="none" stroke="black" points="239.743,-975.5 239.743,-994.5 "/>
<text text-anchor="middle" x="257.243" y="-982.5" font-family="Roboto" font-size="10.00">REQ</text>
</g>
<!-- Import&#45;&gt;FileJuggler -->
<g id="edge23" class="edge"><title>Import:files&#45;&gt;FileJuggler:slaves</title>
<path fill="none" stroke="black" d="M177.741,-983.835C97.8629,-972.885 100.052,-829.71 100.666,-774.161"/>
<polygon fill="black" stroke="black" points="177.533,-987.329 187.743,-984.5 177.998,-980.344 177.533,-987.329"/>
<polygon fill="black" stroke="black" points="104.167,-774.026 100.743,-764 97.1675,-773.973 104.167,-774.026"/>
</g>
<!-- Import&#45;&gt;MrChase -->
<g id="edge22" class="edge"><title>Import:imports&#45;&gt;MrChase:imports</title>
<path fill="none" stroke="black" d="M285.609,-981.661C302.673,-968.027 267.771,-909.367 284.92,-895.806"/>
<polygon fill="black" stroke="black" points="284.386,-978.371 275.743,-984.5 286.321,-985.098 284.386,-978.371"/>
<polygon fill="black" stroke="black" points="286.089,-899.112 294.743,-893 284.167,-892.381 286.089,-899.112"/>
</g>
</g>
</svg>
