<?xml version="1.0" encoding="UTF-8" standalone="no"?>
<!DOCTYPE svg PUBLIC "-//W3C//DTD SVG 1.1//EN"
 "http://www.w3.org/Graphics/SVG/1.1/DTD/svg11.dtd">
<!-- Generated by graphviz version 2.38.0 (20140413.2041)
 -->
<!-- Title: piwheels Pages: 1 -->
<svg width="739pt" height="780pt"
 viewBox="0.00 0.00 739.00 780.00" xmlns="http://www.w3.org/2000/svg" xmlns:xlink="http://www.w3.org/1999/xlink">
<g id="graph0" class="graph" transform="scale(1 1) rotate(0) translate(4 776)">
<title>piwheels</title>
<polygon fill="white" stroke="none" points="-4,4 -4,-776 735,-776 735,4 -4,4"/>
<g id="clust1" class="cluster"><title>cluster_db_server</title>
<polygon fill="#cccccc" stroke="black" points="122,-8 122,-324 501,-324 501,-8 122,-8"/>
<text text-anchor="middle" x="311.5" y="-308.8" font-family="Roboto" font-size="14.00">db&#45;server</text>
</g>
<g id="clust2" class="cluster"><title>cluster_file_server</title>
<polygon fill="#cccccc" stroke="black" points="509,-117 509,-444.5 723,-444.5 723,-117 509,-117"/>
<text text-anchor="middle" x="616" y="-429.3" font-family="Roboto" font-size="14.00">file&#45;server</text>
</g>
<g id="clust3" class="cluster"><title>cluster_master</title>
<polygon fill="#cccccc" stroke="black" points="8,-357 8,-584 501,-584 501,-357 8,-357"/>
<text text-anchor="middle" x="254.5" y="-568.8" font-family="Roboto" font-size="14.00">master</text>
</g>
<g id="clust4" class="cluster"><title>cluster_monitor</title>
<polygon fill="#cccccc" stroke="black" points="15,-236.5 15,-314.5 107,-314.5 107,-236.5 15,-236.5"/>
<text text-anchor="middle" x="61" y="-299.3" font-family="Roboto" font-size="14.00">monitor</text>
</g>
<g id="clust5" class="cluster"><title>cluster_Slave1</title>
<polygon fill="#cccccc" stroke="black" points="308,-617 308,-695 410,-695 410,-617 308,-617"/>
<text text-anchor="middle" x="359" y="-679.8" font-family="Roboto" font-size="14.00">slave1</text>
</g>
<g id="clust6" class="cluster"><title>cluster_Slave2</title>
<polygon fill="#cccccc" stroke="black" points="186,-617 186,-695 288,-695 288,-617 186,-617"/>
<text text-anchor="middle" x="237" y="-679.8" font-family="Roboto" font-size="14.00">slave2</text>
</g>
<!-- PyPI -->
<g id="node1" class="node"><title>PyPI</title>
<polygon fill="#9999ff" stroke="black" points="239.683,-736.049 241.459,-736.148 243.216,-736.295 244.948,-736.491 246.648,-736.735 248.308,-737.027 249.923,-737.364 251.485,-737.748 252.989,-738.176 254.429,-738.647 255.8,-739.161 257.098,-739.715 258.317,-740.308 259.455,-740.939 260.507,-741.605 261.472,-742.306 262.346,-743.039 263.127,-743.801 263.815,-744.592 264.408,-745.408 264.906,-746.248 265.309,-747.109 265.617,-747.989 265.832,-748.886 265.956,-749.797 265.989,-750.719 265.934,-751.65 265.794,-752.587 265.571,-753.529 265.269,-754.471 264.89,-755.413 264.439,-756.35 263.918,-757.281 263.332,-758.203 262.685,-759.114 261.981,-760.011 261.223,-760.891 260.415,-761.752 259.561,-762.592 258.666,-763.408 257.732,-764.199 256.764,-764.961 255.764,-765.694 254.737,-766.395 253.684,-767.061 252.61,-767.692 251.516,-768.285 250.405,-768.839 249.28,-769.353 248.142,-769.824 246.994,-770.252 245.837,-770.636 244.672,-770.973 243.501,-771.265 242.325,-771.509 241.145,-771.705 239.963,-771.852 238.779,-771.951 237.593,-772 236.407,-772 235.221,-771.951 234.037,-771.852 232.855,-771.705 231.675,-771.509 230.499,-771.265 229.328,-770.973 228.163,-770.636 227.006,-770.252 225.858,-769.824 224.72,-769.353 223.595,-768.839 222.484,-768.285 221.39,-767.692 220.316,-767.061 219.263,-766.395 218.236,-765.694 217.236,-764.961 216.268,-764.199 215.334,-763.408 214.439,-762.592 213.585,-761.752 212.777,-760.891 212.019,-760.011 211.315,-759.114 210.668,-758.203 210.082,-757.281 209.561,-756.35 209.11,-755.413 208.731,-754.471 208.429,-753.529 208.206,-752.587 208.066,-751.65 208.011,-750.719 208.044,-749.797 208.168,-748.886 208.383,-747.989 208.691,-747.109 209.094,-746.248 209.592,-745.408 210.185,-744.592 210.873,-743.801 211.654,-743.039 212.528,-742.306 213.493,-741.605 214.545,-740.939 215.683,-740.308 216.902,-739.715 218.2,-739.161 219.571,-738.647 221.011,-738.176 222.515,-737.748 224.077,-737.364 225.692,-737.027 227.352,-736.735 229.052,-736.491 230.784,-736.295 232.541,-736.148 234.317,-736.049 236.105,-736 237.895,-736 239.683,-736.049"/>
<text text-anchor="middle" x="237" y="-751.5" font-family="Roboto" font-size="10.00">PyPI</text>
</g>
<!-- CloudGazer -->
<g id="node13" class="node"><title>CloudGazer</title>
<polygon fill="#9999ff" stroke="black" points="16.5,-505 16.5,-543 81.5,-543 81.5,-505 16.5,-505"/>
<text text-anchor="middle" x="49" y="-531" font-family="Roboto" font-size="10.00">CloudGazer</text>
<polyline fill="none" stroke="black" points="16.5,-524 81.5,-524 "/>
<text text-anchor="middle" x="49" y="-512" font-family="Roboto" font-size="10.00">REQ</text>
</g>
<!-- PyPI&#45;&gt;CloudGazer -->
<g id="edge13" class="edge"><title>PyPI&#45;&gt;CloudGazer:t</title>
<path fill="none" stroke="black" d="M213.57,-741.18C164.945,-714.863 56.949,-646.409 49.4156,-554.176"/>
<polygon fill="black" stroke="black" points="52.9053,-553.849 49,-544 45.9111,-554.135 52.9053,-553.849"/>
</g>
<!-- Slave1 -->
<g id="node18" class="node"><title>Slave1</title>
<polygon fill="#9999ff" stroke="black" points="316,-625.5 316,-663.5 402,-663.5 402,-625.5 316,-625.5"/>
<text text-anchor="middle" x="359" y="-651.5" font-family="Roboto" font-size="10.00">main</text>
<polyline fill="none" stroke="black" points="316,-644.5 402,-644.5 "/>
<text text-anchor="middle" x="333.5" y="-632.5" font-family="Roboto" font-size="10.00">REQ</text>
<polyline fill="none" stroke="black" points="351,-625.5 351,-644.5 "/>
<text text-anchor="middle" x="376.5" y="-632.5" font-family="Roboto" font-size="10.00">DEALER</text>
</g>
<!-- PyPI&#45;&gt;Slave1 -->
<g id="edge14" class="edge"><title>PyPI&#45;&gt;Slave1:t</title>
<path fill="none" stroke="black" d="M255.084,-738.769C268.039,-727.861 285.21,-711.859 297,-695 305.467,-682.894 300.278,-666.166 305.465,-658.558"/>
<polygon fill="black" stroke="black" points="307.169,-661.637 315,-654.5 304.428,-655.196 307.169,-661.637"/>
</g>
<!-- Slave2 -->
<g id="node19" class="node"><title>Slave2</title>
<polygon fill="#9999ff" stroke="black" points="194,-625.5 194,-663.5 280,-663.5 280,-625.5 194,-625.5"/>
<text text-anchor="middle" x="237" y="-651.5" font-family="Roboto" font-size="10.00">main</text>
<polyline fill="none" stroke="black" points="194,-644.5 280,-644.5 "/>
<text text-anchor="middle" x="211.5" y="-632.5" font-family="Roboto" font-size="10.00">REQ</text>
<polyline fill="none" stroke="black" points="229,-625.5 229,-644.5 "/>
<text text-anchor="middle" x="254.5" y="-632.5" font-family="Roboto" font-size="10.00">DEALER</text>
</g>
<!-- PyPI&#45;&gt;Slave2 -->
<g id="edge15" class="edge"><title>PyPI&#45;&gt;Slave2:t</title>
<path fill="none" stroke="black" d="M237,-735.703C237,-720.233 237,-696.651 237,-674.528"/>
<polygon fill="black" stroke="black" points="240.5,-674.5 237,-664.5 233.5,-674.5 240.5,-674.5"/>
</g>
<!-- Users -->
<g id="node2" class="node"><title>Users</title>
<polygon fill="#9999ff" stroke="black" points="615.683,-16.0493 617.459,-16.1479 619.216,-16.2953 620.948,-16.4913 622.648,-16.7353 624.308,-17.0266 625.923,-17.3645 627.485,-17.7479 628.989,-18.1759 630.429,-18.6472 631.8,-19.1606 633.098,-19.7147 634.317,-20.308 635.455,-20.9388 636.507,-21.6054 637.472,-22.3059 638.346,-23.0385 639.127,-23.8012 639.815,-24.5918 640.408,-25.4082 640.906,-26.2481 641.309,-27.1093 641.617,-27.9894 641.832,-28.886 641.956,-29.7965 641.989,-30.7186 641.934,-31.6497 641.794,-32.5873 641.571,-33.5287 641.269,-34.4713 640.89,-35.4127 640.439,-36.3503 639.918,-37.2814 639.332,-38.2035 638.685,-39.114 637.981,-40.0106 637.223,-40.8907 636.415,-41.7519 635.561,-42.5918 634.666,-43.4082 633.732,-44.1988 632.764,-44.9615 631.764,-45.6941 630.737,-46.3946 629.684,-47.0612 628.61,-47.692 627.516,-48.2853 626.405,-48.8394 625.28,-49.3528 624.142,-49.8241 622.994,-50.2521 621.837,-50.6355 620.672,-50.9734 619.501,-51.2647 618.325,-51.5087 617.145,-51.7047 615.963,-51.8521 614.779,-51.9507 613.593,-52 612.407,-52 611.221,-51.9507 610.037,-51.8521 608.855,-51.7047 607.675,-51.5087 606.499,-51.2647 605.328,-50.9734 604.163,-50.6355 603.006,-50.2521 601.858,-49.8241 600.72,-49.3528 599.595,-48.8394 598.484,-48.2853 597.39,-47.692 596.316,-47.0612 595.263,-46.3946 594.236,-45.6941 593.236,-44.9615 592.268,-44.1988 591.334,-43.4082 590.439,-42.5918 589.585,-41.7519 588.777,-40.8907 588.019,-40.0106 587.315,-39.114 586.668,-38.2035 586.082,-37.2814 585.561,-36.3503 585.11,-35.4127 584.731,-34.4713 584.429,-33.5287 584.206,-32.5873 584.066,-31.6497 584.011,-30.7186 584.044,-29.7965 584.168,-28.886 584.383,-27.9894 584.691,-27.1093 585.094,-26.2481 585.592,-25.4082 586.185,-24.5918 586.873,-23.8012 587.654,-23.0385 588.528,-22.3059 589.493,-21.6054 590.545,-20.9388 591.683,-20.308 592.902,-19.7147 594.2,-19.1606 595.571,-18.6472 597.011,-18.1759 598.515,-17.7479 600.077,-17.3645 601.692,-17.0266 603.352,-16.7353 605.052,-16.4913 606.784,-16.2953 608.541,-16.1479 610.317,-16.0493 612.105,-16 613.895,-16 615.683,-16.0493"/>
<text text-anchor="middle" x="613" y="-31.5" font-family="Roboto" font-size="10.00">Users</text>
</g>
<!-- TheOracle1 -->
<g id="node3" class="node"><title>TheOracle1</title>
<polygon fill="#9999ff" stroke="black" points="237.5,-124.5 237.5,-162.5 298.5,-162.5 298.5,-124.5 237.5,-124.5"/>
<text text-anchor="middle" x="268" y="-150.5" font-family="Roboto" font-size="10.00">REQ</text>
<polyline fill="none" stroke="black" points="237.5,-143.5 298.5,-143.5 "/>
<text text-anchor="middle" x="268" y="-131.5" font-family="Roboto" font-size="10.00">TheOracle</text>
</g>
<!-- db -->
<g id="node8" class="node"><title>db</title>
<polygon fill="#9999ff" stroke="black" points="344,-52 341,-56 320,-56 317,-52 288,-52 288,-16 344,-16 344,-52"/>
<text text-anchor="middle" x="316" y="-37" font-family="Roboto" font-size="10.00">piwheels</text>
<text text-anchor="middle" x="316" y="-26" font-family="Roboto" font-size="10.00">database</text>
</g>
<!-- TheOracle1&#45;&gt;db -->
<g id="edge4" class="edge"><title>TheOracle1:t&#45;&gt;db</title>
<path fill="none" stroke="black" d="M308.146,-127.579C315.464,-114.947 316.861,-84.6764 316.788,-62.167"/>
<polygon fill="black" stroke="black" points="306.031,-124.789 300,-133.5 310.147,-130.451 306.031,-124.789"/>
<polygon fill="black" stroke="black" points="320.287,-62.1119 316.66,-52.1574 313.288,-62.2012 320.287,-62.1119"/>
</g>
<!-- TheOracle2 -->
<g id="node4" class="node"><title>TheOracle2</title>
<polygon fill="#9999ff" stroke="black" points="334.5,-124.5 334.5,-162.5 395.5,-162.5 395.5,-124.5 334.5,-124.5"/>
<text text-anchor="middle" x="365" y="-150.5" font-family="Roboto" font-size="10.00">REQ</text>
<polyline fill="none" stroke="black" points="334.5,-143.5 395.5,-143.5 "/>
<text text-anchor="middle" x="365" y="-131.5" font-family="Roboto" font-size="10.00">TheOracle</text>
</g>
<!-- TheOracle2&#45;&gt;db -->
<g id="edge5" class="edge"><title>TheOracle2:t&#45;&gt;db</title>
<path fill="none" stroke="black" d="M324.782,-127.579C317.327,-114.947 315.629,-84.6764 315.48,-62.167"/>
<polygon fill="black" stroke="black" points="322.841,-130.494 333,-133.5 326.933,-124.814 322.841,-130.494"/>
<polygon fill="black" stroke="black" points="318.979,-62.1675 315.508,-52.1574 311.979,-62.1472 318.979,-62.1675"/>
</g>
<!-- TheOracle3 -->
<g id="node5" class="node"><title>TheOracle3</title>
<polygon fill="#9999ff" stroke="black" points="431.5,-124.5 431.5,-162.5 492.5,-162.5 492.5,-124.5 431.5,-124.5"/>
<text text-anchor="middle" x="462" y="-150.5" font-family="Roboto" font-size="10.00">REQ</text>
<polyline fill="none" stroke="black" points="431.5,-143.5 492.5,-143.5 "/>
<text text-anchor="middle" x="462" y="-131.5" font-family="Roboto" font-size="10.00">TheOracle</text>
</g>
<!-- TheOracle3&#45;&gt;db -->
<g id="edge6" class="edge"><title>TheOracle3:t&#45;&gt;db</title>
<path fill="none" stroke="black" d="M421.04,-128.788C418.802,-125.438 417.267,-120.866 413,-117 390.694,-96.79 364.597,-74.819 345.094,-58.7108"/>
<polygon fill="black" stroke="black" points="419.52,-131.944 430,-133.5 422.778,-125.748 419.52,-131.944"/>
<polygon fill="black" stroke="black" points="347.115,-55.841 337.17,-52.1884 342.667,-61.2458 347.115,-55.841"/>
</g>
<!-- TheArchitect -->
<g id="node6" class="node"><title>TheArchitect</title>
<polygon fill="#9999ff" stroke="black" points="130.5,-124.5 130.5,-162.5 201.5,-162.5 201.5,-124.5 130.5,-124.5"/>
<text text-anchor="middle" x="166" y="-150.5" font-family="Roboto" font-size="10.00">REP</text>
<polyline fill="none" stroke="black" points="130.5,-143.5 201.5,-143.5 "/>
<text text-anchor="middle" x="166" y="-131.5" font-family="Roboto" font-size="10.00">TheArchitect</text>
</g>
<!-- TheArchitect&#45;&gt;db -->
<g id="edge7" class="edge"><title>TheArchitect:t&#45;&gt;db</title>
<path fill="none" stroke="black" d="M211.691,-128.464C213.649,-125.129 215.034,-120.704 219,-117 244.14,-93.5192 274.66,-68.2059 294.668,-52.0128"/>
<polygon fill="black" stroke="black" points="209.898,-125.458 203,-133.5 213.407,-131.515 209.898,-125.458"/>
</g>
<!-- Seraph -->
<g id="node7" class="node"><title>Seraph</title>
<polygon fill="#9999ff" stroke="black" points="338,-235.5 338,-292.5 392,-292.5 392,-235.5 338,-235.5"/>
<text text-anchor="middle" x="365" y="-280.5" font-family="Roboto" font-size="10.00">ROUTER</text>
<polyline fill="none" stroke="black" points="338,-273.5 392,-273.5 "/>
<text text-anchor="middle" x="365" y="-261.5" font-family="Roboto" font-size="10.00">Seraph</text>
<polyline fill="none" stroke="black" points="338,-254.5 392,-254.5 "/>
<text text-anchor="middle" x="365" y="-242.5" font-family="Roboto" font-size="10.00">ROUTER</text>
</g>
<!-- Seraph&#45;&gt;TheOracle1 -->
<g id="edge1" class="edge"><title>Seraph:oracle&#45;&gt;TheOracle1:Seraph</title>
<path fill="none" stroke="black" d="M328.777,-239.276C318.698,-222.844 318.301,-175.651 308.221,-159.222"/>
<polygon fill="black" stroke="black" points="326.793,-242.159 337,-245 330.792,-236.414 326.793,-242.159"/>
<polygon fill="black" stroke="black" points="310.207,-156.34 300,-153.5 306.209,-162.085 310.207,-156.34"/>
</g>
<!-- Seraph&#45;&gt;TheOracle2 -->
<g id="edge2" class="edge"><title>Seraph:oracle&#45;&gt;TheOracle2:Seraph</title>
<path fill="none" stroke="black" d="M365,-224.979C365,-203.986 365,-194.068 365,-173.104"/>
<polygon fill="black" stroke="black" points="361.5,-225 365,-235 368.5,-225 361.5,-225"/>
<polygon fill="black" stroke="black" points="368.5,-173 365,-163 361.5,-173 368.5,-173"/>
</g>
<!-- Seraph&#45;&gt;TheOracle3 -->
<g id="edge3" class="edge"><title>Seraph:oracle&#45;&gt;TheOracle3:Seraph</title>
<path fill="none" stroke="black" d="M402.999,-242.738C425.627,-230.079 397.302,-168.135 420.144,-155.683"/>
<polygon fill="black" stroke="black" points="401.981,-239.38 393,-245 403.526,-246.207 401.981,-239.38"/>
<polygon fill="black" stroke="black" points="420.993,-159.08 430,-153.5 419.48,-152.245 420.993,-159.08"/>
</g>
<!-- FileJuggler -->
<g id="node9" class="node"><title>FileJuggler</title>
<polygon fill="#9999ff" stroke="black" points="627.5,-375 627.5,-413 714.5,-413 714.5,-375 627.5,-375"/>
<text text-anchor="middle" x="644.5" y="-401" font-family="Roboto" font-size="10.00">REP</text>
<polyline fill="none" stroke="black" points="661.5,-394 661.5,-413 "/>
<text text-anchor="middle" x="688" y="-401" font-family="Roboto" font-size="10.00">ROUTER</text>
<polyline fill="none" stroke="black" points="627.5,-394 714.5,-394 "/>
<text text-anchor="middle" x="671" y="-382" font-family="Roboto" font-size="10.00">FileJuggler</text>
</g>
<!-- fs -->
<g id="node11" class="node"><title>fs</title>
<polygon fill="#9999ff" stroke="black" points="643.5,-282 640.5,-286 619.5,-286 616.5,-282 582.5,-282 582.5,-246 643.5,-246 643.5,-282"/>
<text text-anchor="middle" x="613" y="-267" font-family="Roboto" font-size="10.00">www</text>
<text text-anchor="middle" x="613" y="-256" font-family="Roboto" font-size="10.00">filesystem</text>
</g>
<!-- FileJuggler&#45;&gt;fs -->
<g id="edge9" class="edge"><title>FileJuggler:t&#45;&gt;fs</title>
<path fill="none" stroke="black" d="M617.498,-378.415C607.991,-363.268 608.858,-320.639 610.684,-292.178"/>
<polygon fill="black" stroke="black" points="615.72,-381.435 626,-384 619.564,-375.584 615.72,-381.435"/>
<polygon fill="black" stroke="black" points="614.186,-292.275 611.411,-282.05 607.204,-291.774 614.186,-292.275"/>
</g>
<!-- IndexScribe -->
<g id="node10" class="node"><title>IndexScribe</title>
<polygon fill="#9999ff" stroke="black" points="517,-375 517,-413 591,-413 591,-375 517,-375"/>
<text text-anchor="middle" x="534.5" y="-401" font-family="Roboto" font-size="10.00">REQ</text>
<polyline fill="none" stroke="black" points="552,-394 552,-413 "/>
<text text-anchor="middle" x="571.5" y="-401" font-family="Roboto" font-size="10.00">PULL</text>
<polyline fill="none" stroke="black" points="517,-394 591,-394 "/>
<text text-anchor="middle" x="554" y="-382" font-family="Roboto" font-size="10.00">IndexScribe</text>
</g>
<!-- IndexScribe&#45;&gt;Seraph -->
<g id="edge25" class="edge"><title>IndexScribe:db&#45;&gt;Seraph:db</title>
<path fill="none" stroke="black" d="M511.082,-394.888C510.289,-383.031 513.887,-363.106 510,-357 478.83,-308.037 457.103,-285.599 403.088,-283.214"/>
<polygon fill="black" stroke="black" points="508.17,-396.863 516,-404 514.33,-393.538 508.17,-396.863"/>
<polygon fill="black" stroke="black" points="403.072,-279.713 393,-283 402.923,-286.711 403.072,-279.713"/>
</g>
<!-- IndexScribe&#45;&gt;fs -->
<g id="edge8" class="edge"><title>IndexScribe:t&#45;&gt;fs</title>
<path fill="none" stroke="black" d="M592,-384C610.537,-384 613.488,-327.294 613.539,-292.17"/>
<polygon fill="black" stroke="black" points="617.038,-292.028 613.475,-282.05 610.038,-292.072 617.038,-292.028"/>
</g>
<!-- httpd -->
<g id="node12" class="node"><title>httpd</title>
<polygon fill="#9999ff" stroke="black" points="586,-125.5 586,-161.5 640,-161.5 640,-125.5 586,-125.5"/>
<text text-anchor="middle" x="613" y="-141" font-family="Roboto" font-size="10.00">httpd</text>
</g>
<!-- fs&#45;&gt;httpd -->
<g id="edge10" class="edge"><title>fs&#45;&gt;httpd</title>
<path fill="none" stroke="black" d="M613,-245.769C613,-226.374 613,-194.603 613,-171.817"/>
<polygon fill="black" stroke="black" points="616.5,-171.752 613,-161.752 609.5,-171.752 616.5,-171.752"/>
</g>
<!-- httpd&#45;&gt;Users -->
<g id="edge31" class="edge"><title>httpd&#45;&gt;Users</title>
<path fill="none" stroke="black" d="M613,-125.228C613,-108.302 613,-82.238 613,-62.4672"/>
<polygon fill="black" stroke="black" points="616.5,-62.2288 613,-52.2289 609.5,-62.2289 616.5,-62.2288"/>
</g>
<!-- CloudGazer&#45;&gt;Seraph -->
<g id="edge22" class="edge"><title>CloudGazer:db&#45;&gt;Seraph:db</title>
<path fill="none" stroke="black" d="M91.6356,-508.856C93.6867,-504.95 94.7213,-499.501 99,-495 160.967,-429.819 179.344,-416.255 247,-357 283.217,-325.28 285.123,-288.58 326.824,-283.576"/>
<polygon fill="black" stroke="black" points="89.8003,-505.876 83,-514 93.3825,-511.89 89.8003,-505.876"/>
<polygon fill="black" stroke="black" points="327.214,-287.059 337,-283 326.818,-280.07 327.214,-287.059"/>
</g>
<!-- main -->
<g id="node14" class="node"><title>main</title>
<polygon fill="#9999ff" stroke="black" points="25,-365.5 25,-422.5 99,-422.5 99,-365.5 25,-365.5"/>
<text text-anchor="middle" x="62" y="-410.5" font-family="Roboto" font-size="10.00">PULL</text>
<polyline fill="none" stroke="black" points="25,-403.5 99,-403.5 "/>
<text text-anchor="middle" x="62" y="-391.5" font-family="Roboto" font-size="10.00">main</text>
<polyline fill="none" stroke="black" points="25,-384.5 99,-384.5 "/>
<text text-anchor="middle" x="44.5" y="-372.5" font-family="Roboto" font-size="10.00">PULL</text>
<polyline fill="none" stroke="black" points="64,-365.5 64,-384.5 "/>
<text text-anchor="middle" x="81.5" y="-372.5" font-family="Roboto" font-size="10.00">PUB</text>
</g>
<!-- monitor -->
<g id="node17" class="node"><title>monitor</title>
<polygon fill="#9999ff" stroke="black" points="23,-245 23,-283 99,-283 99,-245 23,-245"/>
<text text-anchor="middle" x="43.5" y="-271" font-family="Roboto" font-size="10.00">PUSH</text>
<polyline fill="none" stroke="black" points="64,-264 64,-283 "/>
<text text-anchor="middle" x="81.5" y="-271" font-family="Roboto" font-size="10.00">SUB</text>
<polyline fill="none" stroke="black" points="23,-264 99,-264 "/>
<text text-anchor="middle" x="61" y="-252" font-family="Roboto" font-size="10.00">main</text>
</g>
<!-- main&#45;&gt;monitor -->
<g id="edge20" class="edge"><title>main:ext_status&#45;&gt;monitor:status</title>
<path fill="none" stroke="black" d="M82,-364C82,-332.056 82,-321.636 82,-294.064"/>
<polygon fill="black" stroke="black" points="85.5001,-294 82,-284 78.5001,-294 85.5001,-294"/>
</g>
<!-- BigBrother -->
<g id="node15" class="node"><title>BigBrother</title>
<polygon fill="#9999ff" stroke="black" points="341,-505 341,-543 493,-543 493,-505 341,-505"/>
<text text-anchor="middle" x="417" y="-531" font-family="Roboto" font-size="10.00">BigBrother</text>
<polyline fill="none" stroke="black" points="341,-524 493,-524 "/>
<text text-anchor="middle" x="361.5" y="-512" font-family="Roboto" font-size="10.00">PUSH</text>
<polyline fill="none" stroke="black" points="382,-505 382,-524 "/>
<text text-anchor="middle" x="399.5" y="-512" font-family="Roboto" font-size="10.00">REQ</text>
<polyline fill="none" stroke="black" points="417,-505 417,-524 "/>
<text text-anchor="middle" x="434.5" y="-512" font-family="Roboto" font-size="10.00">REQ</text>
<polyline fill="none" stroke="black" points="452,-505 452,-524 "/>
<text text-anchor="middle" x="472.5" y="-512" font-family="Roboto" font-size="10.00">PUSH</text>
</g>
<!-- BigBrother&#45;&gt;Seraph -->
<g id="edge26" class="edge"><title>BigBrother:db&#45;&gt;Seraph:db</title>
<path fill="none" stroke="black" d="M398.863,-493.771C396.612,-411.073 367.359,-386.865 365.134,-304.112"/>
<polygon fill="black" stroke="black" points="395.366,-494.048 399,-504 402.366,-493.954 395.366,-494.048"/>
<polygon fill="black" stroke="black" points="368.632,-303.953 365,-294 361.633,-304.045 368.632,-303.953"/>
</g>
<!-- BigBrother&#45;&gt;FileJuggler -->
<g id="edge27" class="edge"><title>BigBrother:fs&#45;&gt;FileJuggler:fs</title>
<path fill="none" stroke="black" d="M435.677,-493.926C445.157,-429.01 551.962,-497.789 609,-444.5 619.587,-434.609 613.07,-417.091 616.987,-408.715"/>
<polygon fill="black" stroke="black" points="432.178,-493.788 435,-504 439.162,-494.257 432.178,-493.788"/>
<polygon fill="black" stroke="black" points="618.762,-411.737 626,-404 615.517,-405.534 618.762,-411.737"/>
</g>
<!-- BigBrother&#45;&gt;IndexScribe -->
<g id="edge23" class="edge"><title>BigBrother:indexes&#45;&gt;IndexScribe:indexes</title>
<path fill="none" stroke="black" d="M494,-514C546.953,-514 569.253,-475.49 571.759,-424.091"/>
<polygon fill="black" stroke="black" points="575.26,-424.081 572,-414 568.262,-423.914 575.26,-424.081"/>
</g>
<!-- BigBrother&#45;&gt;main -->
<g id="edge11" class="edge"><title>BigBrother:int_status&#45;&gt;main:int_status</title>
<path fill="none" stroke="black" d="M340,-514C328.368,-514 331.71,-501.405 322,-495 237.115,-439.006 207.174,-414.637 110.23,-413.08"/>
<polygon fill="black" stroke="black" points="110.027,-409.578 100,-413 109.972,-416.578 110.027,-409.578"/>
</g>
<!-- SlaveDriver -->
<g id="node16" class="node"><title>SlaveDriver</title>
<polygon fill="#9999ff" stroke="black" points="117.5,-495.5 117.5,-552.5 304.5,-552.5 304.5,-495.5 117.5,-495.5"/>
<text text-anchor="middle" x="211" y="-540.5" font-family="Roboto" font-size="10.00">ROUTER</text>
<polyline fill="none" stroke="black" points="117.5,-533.5 304.5,-533.5 "/>
<text text-anchor="middle" x="211" y="-521.5" font-family="Roboto" font-size="10.00">SlaveDriver</text>
<polyline fill="none" stroke="black" points="117.5,-514.5 304.5,-514.5 "/>
<text text-anchor="middle" x="138" y="-502.5" font-family="Roboto" font-size="10.00">PUSH</text>
<polyline fill="none" stroke="black" points="158.5,-495.5 158.5,-514.5 "/>
<text text-anchor="middle" x="176" y="-502.5" font-family="Roboto" font-size="10.00">REQ</text>
<polyline fill="none" stroke="black" points="193.5,-495.5 193.5,-514.5 "/>
<text text-anchor="middle" x="211" y="-502.5" font-family="Roboto" font-size="10.00">REQ</text>
<polyline fill="none" stroke="black" points="228.5,-495.5 228.5,-514.5 "/>
<text text-anchor="middle" x="246" y="-502.5" font-family="Roboto" font-size="10.00">REQ</text>
<polyline fill="none" stroke="black" points="263.5,-495.5 263.5,-514.5 "/>
<text text-anchor="middle" x="284" y="-502.5" font-family="Roboto" font-size="10.00">PUSH</text>
</g>
<!-- SlaveDriver&#45;&gt;TheArchitect -->
<g id="edge30" class="edge"><title>SlaveDriver:builds&#45;&gt;TheArchitect:builds</title>
<path fill="none" stroke="black" d="M176.721,-484.892C183.073,-426.258 228.801,-201.73 210.76,-160.146"/>
<polygon fill="black" stroke="black" points="173.221,-484.776 176,-495 180.203,-485.275 173.221,-484.776"/>
<polygon fill="black" stroke="black" points="212.872,-157.346 203,-153.5 208.319,-162.663 212.872,-157.346"/>
</g>
<!-- SlaveDriver&#45;&gt;Seraph -->
<g id="edge29" class="edge"><title>SlaveDriver:db&#45;&gt;Seraph:db</title>
<path fill="none" stroke="black" d="M212.317,-484.957C218.062,-465.594 241.292,-466.167 256,-444.5 299.074,-381.046 260.509,-291.483 326.914,-283.564"/>
<polygon fill="black" stroke="black" points="208.83,-484.63 211,-495 215.771,-485.54 208.83,-484.63"/>
<polygon fill="black" stroke="black" points="327.211,-287.053 337,-283 326.82,-280.064 327.211,-287.053"/>
</g>
<!-- SlaveDriver&#45;&gt;FileJuggler -->
<g id="edge28" class="edge"><title>SlaveDriver:fs&#45;&gt;FileJuggler:fs</title>
<path fill="none" stroke="black" d="M247.759,-484.979C272.342,-420.536 547.351,-491.933 609,-444.5 620.483,-435.665 613.532,-417.635 617.166,-408.926"/>
<polygon fill="black" stroke="black" points="244.281,-484.546 246,-495 251.176,-485.755 244.281,-484.546"/>
<polygon fill="black" stroke="black" points="618.971,-411.927 626,-404 615.561,-405.813 618.971,-411.927"/>
</g>
<!-- SlaveDriver&#45;&gt;IndexScribe -->
<g id="edge24" class="edge"><title>SlaveDriver:indexes&#45;&gt;IndexScribe:indexes</title>
<path fill="none" stroke="black" d="M306,-505C314.766,-505 314.918,-498.395 323,-495 402.368,-461.655 429.444,-474.864 510,-444.5 534.919,-435.107 563.244,-442.162 570.328,-424.175"/>
<polygon fill="black" stroke="black" points="573.832,-424.435 572,-414 566.925,-423.3 573.832,-424.435"/>
</g>
<!-- SlaveDriver&#45;&gt;main -->
<g id="edge12" class="edge"><title>SlaveDriver:int_status&#45;&gt;main:int_status</title>
<path fill="none" stroke="black" d="M116,-505C79.0367,-505 128.143,-432.024 110.008,-416.061"/>
<polygon fill="black" stroke="black" points="110.586,-412.578 100,-413 108.539,-419.272 110.586,-412.578"/>
</g>
<!-- monitor&#45;&gt;main -->
<g id="edge21" class="edge"><title>monitor:control&#45;&gt;main:control</title>
<path fill="none" stroke="black" d="M43,-284C43,-315.947 43.8072,-326.362 43.9712,-353.935"/>
<polygon fill="black" stroke="black" points="40.4713,-354.01 44,-364 47.4712,-353.99 40.4713,-354.01"/>
</g>
<!-- Slave1&#45;&gt;FileJuggler -->
<g id="edge18" class="edge"><title>Slave1:files&#45;&gt;FileJuggler:slaves</title>
<path fill="none" stroke="black" d="M413.009,-634.247C465.561,-631.81 574.938,-612.003 609,-584 670.718,-533.26 686.715,-500.118 687.924,-424.006"/>
<polygon fill="black" stroke="black" points="412.908,-630.748 403,-634.5 413.085,-637.746 412.908,-630.748"/>
<polygon fill="black" stroke="black" points="691.424,-424.026 688,-414 684.424,-423.973 691.424,-424.026"/>
</g>
<!-- Slave1&#45;&gt;SlaveDriver -->
<g id="edge16" class="edge"><title>Slave1:builds&#45;&gt;SlaveDriver:slaves</title>
<path fill="none" stroke="black" d="M305.371,-631.456C290.773,-617.564 330.067,-560.259 315.738,-546.15"/>
<polygon fill="black" stroke="black" points="304.41,-634.822 315,-634.5 306.52,-628.148 304.41,-634.822"/>
<polygon fill="black" stroke="black" points="316.592,-542.747 306,-543 314.438,-549.408 316.592,-542.747"/>
</g>
<!-- Slave2&#45;&gt;FileJuggler -->
<g id="edge19" class="edge"><title>Slave2:files&#45;&gt;FileJuggler:slaves</title>
<path fill="none" stroke="black" d="M289.731,-628.992C291.922,-624.991 293.385,-619.804 299,-617 383.915,-574.587 424.897,-626.035 510,-584 510.673,-583.667 647.664,-453.259 680.831,-421.1"/>
<polygon fill="black" stroke="black" points="287.59,-626.204 281,-634.5 291.325,-632.125 287.59,-626.204"/>
<polygon fill="black" stroke="black" points="683.358,-423.524 688,-414 678.432,-418.55 683.358,-423.524"/>
</g>
<!-- Slave2&#45;&gt;SlaveDriver -->
<g id="edge17" class="edge"><title>Slave2:builds&#45;&gt;SlaveDriver:slaves</title>
<path fill="none" stroke="black" d="M211,-614.377C211,-594.112 211,-584.391 211,-564.128"/>
<polygon fill="black" stroke="black" points="207.5,-614.5 211,-624.5 214.5,-614.5 207.5,-614.5"/>
<polygon fill="black" stroke="black" points="214.5,-564 211,-554 207.5,-564 214.5,-564"/>
</g>
</g>
</svg>
