<?xml version="1.0" encoding="UTF-8" standalone="no"?>
<!DOCTYPE svg PUBLIC "-//W3C//DTD SVG 1.1//EN"
 "http://www.w3.org/Graphics/SVG/1.1/DTD/svg11.dtd">
<!-- Generated by graphviz version 2.38.0 (20140413.2041)
 -->
<!-- Title: slave Pages: 1 -->
<svg width="261pt" height="702pt"
 viewBox="0.00 0.00 261.47 702.00" xmlns="http://www.w3.org/2000/svg" xmlns:xlink="http://www.w3.org/1999/xlink">
<g id="graph0" class="graph" transform="scale(1 1) rotate(0) translate(4 698)">
<title>slave</title>
<polygon fill="white" stroke="none" points="-4,4 -4,-698 257.471,-698 257.471,4 -4,4"/>
<!-- HELLO1 -->
<g id="node1" class="node"><title>HELLO1</title>
<polygon fill="#ffaaaa" stroke="black" stroke-width="0" points="154.323,-681.562 119.471,-694 84.6185,-681.562 84.651,-661.438 154.291,-661.438 154.323,-681.562"/>
<text text-anchor="middle" x="119.471" y="-673.5" font-family="Sans" font-size="10.00">HELLO</text>
</g>
<!-- HELLO2 -->
<g id="node6" class="node"><title>HELLO2</title>
<polygon fill="#aaffaa" stroke="black" stroke-width="0" points="84.6185,-554.438 119.471,-542 154.323,-554.438 154.291,-574.562 84.651,-574.562 84.6185,-554.438"/>
<text text-anchor="middle" x="119.471" y="-557.5" font-family="Sans" font-size="10.00">HELLO</text>
</g>
<!-- HELLO1&#45;&gt;HELLO2 -->
<g id="edge1" class="edge"><title>HELLO1&#45;&gt;HELLO2</title>
<path fill="none" stroke="black" d="M119.471,-661.021C119.471,-642.03 119.471,-607.807 119.471,-584.748"/>
<polygon fill="black" stroke="black" points="122.971,-584.737 119.471,-574.737 115.971,-584.737 122.971,-584.737"/>
<text text-anchor="middle" x="141.971" y="-632" font-family="Sans" font-size="10.00">[timeout,</text>
<text text-anchor="middle" x="141.971" y="-621" font-family="Sans" font-size="10.00">pyver,</text>
<text text-anchor="middle" x="141.971" y="-610" font-family="Sans" font-size="10.00">abi,</text>
<text text-anchor="middle" x="141.971" y="-599" font-family="Sans" font-size="10.00">...</text>
</g>
<!-- IDLE -->
<g id="node2" class="node"><title>IDLE</title>
<polygon fill="#ffaaaa" stroke="black" stroke-width="0" points="147.271,-482.562 119.471,-495 91.6704,-482.562 91.6963,-462.438 147.245,-462.438 147.271,-482.562"/>
<text text-anchor="middle" x="119.471" y="-474.5" font-family="Sans" font-size="10.00">IDLE</text>
</g>
<!-- BUILD -->
<g id="node7" class="node"><title>BUILD</title>
<polygon fill="#aaffaa" stroke="black" stroke-width="0" points="0.0291135,-377.438 33.4709,-365 66.9126,-377.438 66.8814,-397.562 0.0603274,-397.562 0.0291135,-377.438"/>
<text text-anchor="middle" x="33.4709" y="-380.5" font-family="Sans" font-size="10.00">BUILD</text>
</g>
<!-- IDLE&#45;&gt;BUILD -->
<g id="edge3" class="edge"><title>IDLE&#45;&gt;BUILD</title>
<path fill="none" stroke="black" d="M94.4737,-462.327C85.2932,-456.535 75.2522,-449.218 67.4709,-441 58.0347,-431.034 50.019,-418.003 44.1448,-406.916"/>
<polygon fill="black" stroke="black" points="47.1769,-405.155 39.5519,-397.799 40.9254,-408.305 47.1769,-405.155"/>
<text text-anchor="middle" x="91.4709" y="-433" font-family="Sans" font-size="10.00">[package,</text>
<text text-anchor="middle" x="91.4709" y="-422" font-family="Sans" font-size="10.00">version]</text>
</g>
<!-- SLEEP -->
<g id="node10" class="node"><title>SLEEP</title>
<polygon fill="#aaffaa" stroke="black" stroke-width="0" points="85.0727,-377.438 119.471,-365 153.869,-377.438 153.837,-397.562 85.1048,-397.562 85.0727,-377.438"/>
<text text-anchor="middle" x="119.471" y="-380.5" font-family="Sans" font-size="10.00">SLEEP</text>
</g>
<!-- IDLE&#45;&gt;SLEEP -->
<g id="edge4" class="edge"><title>IDLE&#45;&gt;SLEEP</title>
<path fill="none" stroke="black" d="M114.515,-462.425C112.536,-448.021 112.194,-424.985 113.49,-407.599"/>
<polygon fill="black" stroke="black" points="116.973,-407.935 114.508,-397.631 110.01,-407.223 116.973,-407.935"/>
</g>
<!-- BYE1 -->
<g id="node11" class="node"><title>BYE1</title>
<polygon fill="#aaffaa" stroke="black" stroke-width="0" points="171.471,-377.438 198.471,-365 225.471,-377.438 225.446,-397.562 171.496,-397.562 171.471,-377.438"/>
<text text-anchor="middle" x="198.471" y="-380.5" font-family="Sans" font-size="10.00">BYE</text>
</g>
<!-- IDLE&#45;&gt;BYE1 -->
<g id="edge5" class="edge"><title>IDLE&#45;&gt;BYE1</title>
<path fill="none" stroke="black" d="M131.128,-462.425C143.963,-447.477 164.78,-423.234 179.876,-405.655"/>
<polygon fill="black" stroke="black" points="182.907,-407.498 186.766,-397.631 177.596,-402.937 182.907,-407.498"/>
</g>
<!-- BUILT -->
<g id="node3" class="node"><title>BUILT</title>
<polygon fill="#ffaaaa" stroke="black" stroke-width="0" points="117.092,-272.562 86.4709,-285 55.85,-272.562 55.8786,-252.438 117.063,-252.438 117.092,-272.562"/>
<text text-anchor="middle" x="86.4709" y="-264.5" font-family="Sans" font-size="10.00">BUILT</text>
</g>
<!-- SEND -->
<g id="node8" class="node"><title>SEND</title>
<polygon fill="#aaffaa" stroke="black" stroke-width="0" points="54.4396,-178.438 86.4709,-166 118.502,-178.438 118.472,-198.562 54.4695,-198.562 54.4396,-178.438"/>
<text text-anchor="middle" x="86.4709" y="-181.5" font-family="Sans" font-size="10.00">SEND</text>
</g>
<!-- BUILT&#45;&gt;SEND -->
<g id="edge9" class="edge"><title>BUILT&#45;&gt;SEND</title>
<path fill="none" stroke="black" d="M86.4709,-252.259C86.4709,-240.39 86.4709,-222.97 86.4709,-208.833"/>
<polygon fill="black" stroke="black" points="89.971,-208.808 86.4709,-198.808 82.971,-208.808 89.971,-208.808"/>
<text text-anchor="middle" x="105.971" y="-223" font-family="Sans" font-size="10.00">success</text>
</g>
<!-- DONE -->
<g id="node9" class="node"><title>DONE</title>
<polygon fill="#aaffaa" stroke="black" stroke-width="0" points="153.483,-12.4377 186.471,3.55271e-15 219.459,-12.4377 219.428,-32.5623 153.513,-32.5623 153.483,-12.4377"/>
<text text-anchor="middle" x="186.471" y="-15.5" font-family="Sans" font-size="10.00">DONE</text>
</g>
<!-- BUILT&#45;&gt;DONE -->
<g id="edge8" class="edge"><title>BUILT&#45;&gt;DONE</title>
<path fill="none" stroke="black" d="M107.819,-252.27C115.494,-246.471 123.677,-239.164 129.471,-231 171.184,-172.226 182.374,-84.6055 185.373,-42.8246"/>
<polygon fill="black" stroke="black" points="188.871,-42.9729 185.997,-32.7752 181.884,-42.5391 188.871,-42.9729"/>
<text text-anchor="middle" x="185.471" y="-140" font-family="Sans" font-size="10.00">failure</text>
</g>
<!-- SENT -->
<g id="node4" class="node"><title>SENT</title>
<polygon fill="#ffaaaa" stroke="black" stroke-width="0" points="136.092,-106.562 105.471,-119 74.85,-106.562 74.8786,-86.4377 136.063,-86.4377 136.092,-106.562"/>
<text text-anchor="middle" x="105.471" y="-98.5" font-family="Sans" font-size="10.00">SENT</text>
</g>
<!-- SENT&#45;&gt;SEND -->
<g id="edge12" class="edge"><title>SENT&#45;&gt;SEND</title>
<path fill="none" stroke="black" d="M101.819,-117.57C99.1667,-128.875 95.5197,-144.423 92.4462,-157.526"/>
<polygon fill="black" stroke="black" points="89.0105,-156.847 90.1343,-167.382 95.8255,-158.446 89.0105,-156.847"/>
<text text-anchor="middle" x="126.471" y="-140" font-family="Sans" font-size="10.00">failure/more</text>
</g>
<!-- SENT&#45;&gt;DONE -->
<g id="edge11" class="edge"><title>SENT&#45;&gt;DONE</title>
<path fill="none" stroke="black" d="M111.913,-86.0299C116.865,-76.298 124.388,-63.4242 133.471,-54 139.066,-48.1943 145.79,-42.8496 152.54,-38.1763"/>
<polygon fill="black" stroke="black" points="154.567,-41.0329 161.022,-32.6315 150.736,-35.1738 154.567,-41.0329"/>
<text text-anchor="middle" x="152.971" y="-57" font-family="Sans" font-size="10.00">success</text>
</g>
<!-- BYE2 -->
<g id="node5" class="node"><title>BYE2</title>
<polygon fill="#ffaaaa" stroke="black" stroke-width="0" points="225.471,-272.562 198.471,-285 171.471,-272.562 171.496,-252.438 225.446,-252.438 225.471,-272.562"/>
<text text-anchor="middle" x="198.471" y="-264.5" font-family="Sans" font-size="10.00">BYE</text>
</g>
<!-- HELLO2&#45;&gt;IDLE -->
<g id="edge2" class="edge"><title>HELLO2&#45;&gt;IDLE</title>
<path fill="none" stroke="black" d="M119.471,-541.822C119.471,-531.19 119.471,-517.306 119.471,-505.204"/>
<polygon fill="black" stroke="black" points="122.971,-505.153 119.471,-495.153 115.971,-505.153 122.971,-505.153"/>
<text text-anchor="middle" x="127.471" y="-516" font-family="Sans" font-size="10.00">[id]</text>
</g>
<!-- BUILD&#45;&gt;BUILT -->
<g id="edge7" class="edge"><title>BUILD&#45;&gt;BUILT</title>
<path fill="none" stroke="black" d="M40.3997,-367.096C49.2966,-347.96 64.8433,-314.52 75.3913,-291.831"/>
<polygon fill="black" stroke="black" points="78.6658,-293.09 79.7079,-282.547 72.3183,-290.139 78.6658,-293.09"/>
<text text-anchor="middle" x="90.9709" y="-339" font-family="Sans" font-size="10.00">[status,</text>
<text text-anchor="middle" x="90.9709" y="-328" font-family="Sans" font-size="10.00">duration,</text>
<text text-anchor="middle" x="90.9709" y="-317" font-family="Sans" font-size="10.00">output,</text>
<text text-anchor="middle" x="90.9709" y="-306" font-family="Sans" font-size="10.00">...</text>
</g>
<!-- SEND&#45;&gt;SENT -->
<g id="edge10" class="edge"><title>SEND&#45;&gt;SENT</title>
<path fill="none" stroke="black" d="M84.5269,-166.578C83.9575,-157.691 84.0336,-146.598 86.4709,-137 87.562,-132.703 89.2987,-128.362 91.289,-124.27"/>
<polygon fill="black" stroke="black" points="94.4646,-125.758 96.2091,-115.308 88.3285,-122.39 94.4646,-125.758"/>
</g>
<!-- DONE&#45;&gt;IDLE -->
<g id="edge13" class="edge"><title>DONE&#45;&gt;IDLE</title>
<path fill="none" stroke="black" d="M208.039,-32.5768C227.625,-46.764 253.471,-70.9828 253.471,-100 253.471,-384 253.471,-384 253.471,-384 253.471,-431.086 196.543,-455.876 156.898,-467.431"/>
<polygon fill="black" stroke="black" points="155.949,-464.062 147.236,-470.089 157.806,-470.811 155.949,-464.062"/>
</g>
<!-- SLEEP&#45;&gt;IDLE -->
<g id="edge6" class="edge"><title>SLEEP&#45;&gt;IDLE</title>
<path fill="none" stroke="black" d="M124.434,-397.631C126.409,-412.057 126.747,-435.097 125.447,-452.469"/>
<polygon fill="black" stroke="black" points="121.965,-452.12 124.426,-462.425 128.928,-452.834 121.965,-452.12"/>
</g>
<!-- BYE1&#45;&gt;BYE2 -->
<g id="edge14" class="edge"><title>BYE1&#45;&gt;BYE2</title>
<path fill="none" stroke="black" d="M198.471,-364.686C198.471,-346.249 198.471,-316.816 198.471,-295.262"/>
<polygon fill="black" stroke="black" points="201.971,-295.104 198.471,-285.104 194.971,-295.104 201.971,-295.104"/>
</g>
</g>
</svg>
